{
.appVersion = "1291";
customParameters = (
{
name = license;
value = "Can be used, modified or redistributed for nonprofit purposes.";
},
{
name = panose;
value = (
2,
11,
10,
3,
5,
0,
0,
2,
0,
4
);
},
{
name = fsType;
value = (
);
},
{
name = "Family Alignment Zones";
value = (
"{739, 14}",
"{689, 14}",
"{564, 14}",
"{0, -14}",
"{-202, -14}"
);
},
{
name = blueScale;
value = 0.037;
},
{
name = sampleText;
value = "wo de mi3b tiY zyuo, DE mioEyu6 H r8H di3Y? Hu8 de AHL yuL2, wo xo de wi8fHL zEyu6H wo NVVga r8H2ki2, NVVga r8 H Ym2Ym2 Vb8 owiL.";
},
{
name = glyphOrder;
value = (
a,
o,
e,
E,
A,
Y,
L,
six,
two,
b,
p,
m,
w,
j,
q,
x,
y,
n,
z,
D,
s,
r,
H,
i,
one,
V,
three,
N,
l,
d,
t,
g,
k,
h,
four,
eight,
five,
v,
F,
seven,
B,
c,
f,
u,
T,
a.case,
o.case,
e.case,
E.case,
A.case,
Y.case,
L.case,
six.case,
two.case,
b.case,
p.case,
m.case,
w.case,
j.case,
q.case,
x.case,
y.case,
n.case,
z.case,
D.case,
s.case,
r.case,
H.case,
i.case,
one.case,
V.case,
three.case,
N.case,
l.case,
d.case,
t.case,
g.case,
k.case,
h.case,
four.case,
eight.case,
five.case,
v.case,
F.case,
seven.case,
B.case,
c.case,
f.case,
u.case,
T.case,
a.sc,
o.sc,
e.sc,
E.sc,
A.sc,
Y.sc,
L.sc,
six.sc,
two.sc,
b.sc,
p.sc,
m.sc,
w.sc,
j.sc,
q.sc,
x.sc,
y.sc,
n.sc,
z.sc,
D.sc,
s.sc,
r.sc,
H.sc,
i.sc,
one.sc,
V.sc,
three.sc,
N.sc,
l.sc,
d.sc,
t.sc,
g.sc,
k.sc,
h.sc,
four.sc,
eight.sc,
five.sc,
v.sc,
F.sc,
seven.sc,
B.sc,
c.sc,
f.sc,
u.sc,
T.sc
);
},
{
name = uniqueID;
value = "Nyoeghau Zen: Gentium Xdi8: 2020";
},
{
name = Axes;
value = (
{
Name = Weight;
Tag = wght;
}
);
},
{
name = "Variable Font Family Name";
value = "Fira Xdi8 Variable";
},
{
name = variableStyleName;
value = "Thin Italic";
},
{
name = "Variable Font File Name";
value = "Fira Xdi8 Italic Variable";
}
);
date = "2020-09-29 05:44:23 +0000";
designer = "bBox Type, Nyoeghau Zen";
disablesNiceNames = 1;
familyName = "Fira Xdi8";
featurePrefixes = (
{
automatic = 1;
code = "languagesystem DFLT dflt;\012\012languagesystem hebr dflt;\012";

glyphs = (
{
glyphname = a;
lastChange = "2020-09-29 05:45:51 +0000";
layers = (
{
hints = (
{
horizontal = 1;
place = "{-16, 21}";
target = up;
type = BottomGhost;
},
{
horizontal = 1;
place = "{418, 136}";
type = Stem;
},
{
place = "{11, 199}";
type = Stem;
},
{
horizontal = 1;
place = "{-20, 21}";
target = up;
type = BottomGhost;
},
{
horizontal = 1;
place = "{-20, 142}";
type = Stem;
}
);
layerId = "FE8AE7D2-7E60-458F-B844-21CAF2BBDFF5";
paths = (
{
closed = 1;
nodes = (
"94 554 OFFCURVE",
"11 354 OFFCURVE",
"11 197 CURVE SMOOTH",
"11 64 OFFCURVE",
"72 -20 OFFCURVE",
"186 -20 CURVE SMOOTH",
"262 -20 OFFCURVE",
"310 19 OFFCURVE",
"345 72 CURVE",
"366 15 OFFCURVE",
"424 -12 OFFCURVE",
"486 -16 CURVE",
"542 110 LINE",
"516 121 OFFCURVE",
"516 138 OFFCURVE",
"520 172 CURVE SMOOTH",
"566 491 LINE",
"492 535 OFFCURVE",
"405 554 OFFCURVE",
"330 554 CURVE SMOOTH"
);
},
{
closed = 1;
nodes = (
"338 418 OFFCURVE",
"349 416 OFFCURVE",
"364 412 CURVE",
"330 182 LINE",
"306 141 OFFCURVE",
"279 122 OFFCURVE",
"253 122 CURVE SMOOTH",
"231 122 OFFCURVE",
"210 132 OFFCURVE",
"210 198 CURVE SMOOTH",
"210 292 OFFCURVE",
"237 418 OFFCURVE",
"322 418 CURVE SMOOTH"
);
}
);
width = 574;
},
{
hints = (
{
horizontal = 1;
place = "{-10, 21}";
type = Stem;
},
{
horizontal = 1;
place = "{510, 19}";
type = Stem;
},
{
place = "{68, 22}";
type = Stem;
},
{
place = "{397, 18.13}";
type = Stem;
}
);
layerId = "E8D61EB5-BB7B-4E1E-8596-56C59CE9CB81";
paths = (
{
closed = 1;
nodes = (
"136 529 OFFCURVE",
"68 330 OFFCURVE",
"68 190 CURVE SMOOTH",
"68 67 OFFCURVE",
"127 -10 OFFCURVE",
"228 -10 CURVE SMOOTH",
"296 -10 OFFCURVE",
"356 31 OFFCURVE",
"397 97 CURVE",
"389 38 OFFCURVE",
"403 6 OFFCURVE",
"444 -10 CURVE",
"451 7 LINE",
"412 23 OFFCURVE",
"411 57 OFFCURVE",
"419 112 CURVE SMOOTH",
"473 488 LINE",
"434 511 OFFCURVE",
"391 529 OFFCURVE",
"328 529 CURVE SMOOTH"
);
},
{
closed = 1;
nodes = (
"378 510 OFFCURVE",
"417 497 OFFCURVE",
"449 477 CURVE",
"400 135 LINE",
"354 53 OFFCURVE",
"297 11 OFFCURVE",
"228 11 CURVE SMOOTH",
"140 11 OFFCURVE",
"90 79 OFFCURVE",
"90 191 CURVE SMOOTH",
"90 320 OFFCURVE",
"152 510 OFFCURVE",
"328 510 CURVE SMOOTH"
);
}
);
width = 548;
}
);
leftKerningGroup = uni0262;
note = a;
rightKerningGroup = a;
unicode = 0061;
},
{
glyphname = o;
lastChange = "2020-09-29 05:50:46 +0000";
layers = (
{
hints = (
{
horizontal = 1;
place = "{-20, 142}";
type = Stem;
},
{
horizontal = 1;
place = "{412, 142}";
type = Stem;
},
{
place = "{13, 198}";
type = Stem;
},
{
place = "{360, 198}";
type = Stem;
}
);
layerId = "FE8AE7D2-7E60-458F-B844-21CAF2BBDFF5";
paths = (
{
closed = 1;
nodes = (
"481 -20 OFFCURVE",
"557 165 OFFCURVE",
"558 323 CURVE SMOOTH",
"559 465 OFFCURVE",
"471 554 OFFCURVE",
"323 554 CURVE SMOOTH",
"89 554 OFFCURVE",
"13 370 OFFCURVE",
"13 211 CURVE SMOOTH",
"13 66 OFFCURVE",
"100 -20 OFFCURVE",
"247 -20 CURVE SMOOTH"
);
},
{
closed = 1;
nodes = (
"227 122 OFFCURVE",
"211 144 OFFCURVE",
"211 201 CURVE SMOOTH",
"211 270 OFFCURVE",
"222 412 OFFCURVE",
"307 412 CURVE SMOOTH",
"344 412 OFFCURVE",
"361 390 OFFCURVE",
"360 333 CURVE SMOOTH",
"359 264 OFFCURVE",
"348 122 OFFCURVE",
"263 122 CURVE SMOOTH"
);
}
);
width = 572;
},
{
hints = (
{
horizontal = 1;
place = "{-10, 21}";
type = Stem;
},
{
horizontal = 1;
place = "{509, 20}";
type = Stem;
},
{
place = "{69, 22}";
type = Stem;
},
{
place = "{471, 22}";
type = Stem;
}
);
layerId = "E8D61EB5-BB7B-4E1E-8596-56C59CE9CB81";
paths = (
{
closed = 1;
nodes = (
"434 -10 OFFCURVE",
"493 197 OFFCURVE",
"493 327 CURVE SMOOTH",
"493 458 OFFCURVE",
"428 529 OFFCURVE",
"318 529 CURVE SMOOTH",
"131 529 OFFCURVE",
"69 329 OFFCURVE",
"69 196 CURVE SMOOTH",
"69 66 OFFCURVE",
"133 -10 OFFCURVE",
"244 -10 CURVE SMOOTH"
);
},
{
closed = 1;
nodes = (
"147 11 OFFCURVE",
"91 77 OFFCURVE",
"91 195 CURVE SMOOTH",
"91 315 OFFCURVE",
"145 509 OFFCURVE",
"318 509 CURVE SMOOTH",
"416 509 OFFCURVE",
"471 445 OFFCURVE",
"471 327 CURVE SMOOTH",
"471 203 OFFCURVE",
"416 11 OFFCURVE",
"244 11 CURVE SMOOTH"
);
}
);
width = 561;
}
);
leftKerningGroup = uni0262;
note = o;
rightKerningGroup = uni01F6;
unicode = 006F;
},
{
glyphname = e;
lastChange = "2020-09-29 05:54:04 +0000";
layers = (
{
hints = (
{
horizontal = 1;
place = "{-20, 140}";
type = Stem;
},
{
horizontal = 1;
place = "{429, 125}";
type = Stem;
},
{
place = "{12, 194}";
type = Stem;
},
{
place = "{351, 194}";
type = Stem;
}
);
layerId = "FE8AE7D2-7E60-458F-B844-21CAF2BBDFF5";
paths = (
{
closed = 1;
nodes = (
"545 488 OFFCURVE",
"470 554 OFFCURVE",
"331 554 CURVE SMOOTH",
"94 554 OFFCURVE",
"12 356 OFFCURVE",
"12 211 CURVE SMOOTH",
"12 75 OFFCURVE",
"90 -20 OFFCURVE",
"261 -20 CURVE SMOOTH",
"351 -20 OFFCURVE",
"427 13 OFFCURVE",
"486 56 CURVE",
"419 169 LINE",
"369 137 OFFCURVE",
"331 120 OFFCURVE",
"287 120 CURVE SMOOTH",
"244 120 OFFCURVE",
"211 137 OFFCURVE",
"206 190 CURVE",
"206 191 LINE",
"362 205 OFFCURVE",
"545 252 OFFCURVE",
"545 401 CURVE SMOOTH"
);
},
{
closed = 1;
nodes = (
"341 429 OFFCURVE",
"351 413 OFFCURVE",
"351 392 CURVE SMOOTH",
"351 368 OFFCURVE",
"334 309 OFFCURVE",
"214 302 CURVE",
"227 367 OFFCURVE",
"255 429 OFFCURVE",
"312 429 CURVE SMOOTH"
);
}
);
width = 542;
},
{
hints = (
{
horizontal = 1;
place = "{-10, 21}";
type = Stem;
},
{
horizontal = 1;
place = "{214, 20}";
type = Stem;
},
{
horizontal = 1;
place = "{509, 20}";
type = Stem;
},
{
place = "{68, 22}";
type = Stem;
},
{
place = "{448, 23}";
type = Stem;
}
);
layerId = "E8D61EB5-BB7B-4E1E-8596-56C59CE9CB81";
paths = (
{
closed = 1;
nodes = (
"471 484 OFFCURVE",
"414 529 OFFCURVE",
"328 529 CURVE SMOOTH",
"144 529 OFFCURVE",
"68 334 OFFCURVE",
"68 195 CURVE SMOOTH",
"68 62 OFFCURVE",
"134 -10 OFFCURVE",
"244 -10 CURVE SMOOTH",
"309 -10 OFFCURVE",
"359 12 OFFCURVE",
"411 51 CURVE",
"399 67 LINE",
"348 31 OFFCURVE",
"307 11 OFFCURVE",
"244 11 CURVE SMOOTH",
"151 11 OFFCURVE",
"90 70 OFFCURVE",
"90 196 CURVE SMOOTH",
"90 214 LINE",
"337 228 OFFCURVE",
"471 293 OFFCURVE",
"471 411 CURVE SMOOTH"
);
},
{
closed = 1;
nodes = (
"405 509 OFFCURVE",
"448 471 OFFCURVE",
"448 410 CURVE SMOOTH",
"448 309 OFFCURVE",
"333 248 OFFCURVE",
"92 234 CURVE",
"104 358 OFFCURVE",
"174 509 OFFCURVE",
"328 509 CURVE SMOOTH"
);
}
);
width = 509;
}
);
leftKerningGroup = uni0262;
note = e;
rightKerningGroup = ae;
unicode = 0065;
},
{
glyphname = E;
lastChange = "2020-09-29 05:55:15 +0000";
layers = (
{
hints = (
{
horizontal = 1;
place = "{-20, 136}";
type = Stem;
},
{
horizontal = 1;
place = "{212, 120}";
type = Stem;
},
{
horizontal = 1;
place = "{422, 132}";
type = Stem;
},
{
place = "{-1, 198}";
type = Stem;
},
{
place = "{55, 191}";
type = Stem;
}
);
layerId = "FE8AE7D2-7E60-458F-B844-21CAF2BBDFF5";
paths = (
{
closed = 1;
nodes = (
"315 -20 OFFCURVE",
"399 5 OFFCURVE",
"452 49 CURVE",
"392 157 LINE",
"341 129 OFFCURVE",
"306 116 OFFCURVE",
"269 116 CURVE SMOOTH",
"219 116 OFFCURVE",
"197 134 OFFCURVE",
"197 160 CURVE SMOOTH",
"197 192 OFFCURVE",
"219 212 OFFCURVE",
"272 212 CURVE SMOOTH",
"330 212 LINE",
"365 332 LINE",
"295 332 LINE SMOOTH",
"260 332 OFFCURVE",
"246 351 OFFCURVE",
"246 372 CURVE SMOOTH",
"246 404 OFFCURVE",
"272 422 OFFCURVE",
"309 422 CURVE SMOOTH",
"347 422 OFFCURVE",
"378 411 OFFCURVE",
"410 389 CURVE",
"496 479 LINE",
"441 534 OFFCURVE",
"364 554 OFFCURVE",
"286 554 CURVE SMOOTH",
"147 554 OFFCURVE",
"55 498 OFFCURVE",
"55 397 CURVE SMOOTH",
"55 338 OFFCURVE",
"94 300 OFFCURVE",
"165 284 CURVE",
"62 278 OFFCURVE",
"-1 227 OFFCURVE",
"-1 142 CURVE SMOOTH",
"-1 33 OFFCURVE",
"95 -20 OFFCURVE",
"225 -20 CURVE SMOOTH"
);
}
);
width = 488;
},
{
hints = (
{
horizontal = 1;
place = "{-10, 21}";
type = Stem;
},
{
horizontal = 1;
place = "{263, 20}";
type = Stem;
},
{
horizontal = 1;
place = "{509, 20}";
type = Stem;
},
{
place = "{48, 23}";
type = Stem;
},
{
place = "{106, 23}";
type = Stem;
}
);
layerId = "E8D61EB5-BB7B-4E1E-8596-56C59CE9CB81";
paths = (
{
closed = 1;
nodes = (
"286 -10 OFFCURVE",
"338 15 OFFCURVE",
"385 51 CURVE",
"373 67 LINE",
"326 32 OFFCURVE",
"284 11 OFFCURVE",
"209 11 CURVE SMOOTH",
"125 11 OFFCURVE",
"71 53 OFFCURVE",
"71 127 CURVE SMOOTH",
"71 190 OFFCURVE",
"107 263 OFFCURVE",
"251 263 CURVE SMOOTH",
"308 263 LINE",
"314 283 LINE",
"256 283 LINE SMOOTH",
"169 283 OFFCURVE",
"129 325 OFFCURVE",
"129 382 CURVE SMOOTH",
"129 439 OFFCURVE",
"172 509 OFFCURVE",
"287 509 CURVE SMOOTH",
"346 509 OFFCURVE",
"386 493 OFFCURVE",
"418 468 CURVE",
"433 483 LINE",
"399 509 OFFCURVE",
"355 529 OFFCURVE",
"287 529 CURVE SMOOTH",
"161 529 OFFCURVE",
"106 448 OFFCURVE",
"106 382 CURVE SMOOTH",
"106 317 OFFCURVE",
"147 285 OFFCURVE",
"205 274 CURVE",
"98 268 OFFCURVE",
"48 200 OFFCURVE",
"48 128 CURVE SMOOTH",
"48 41 OFFCURVE",
"114 -10 OFFCURVE",
"209 -10 CURVE SMOOTH"
);
}
);
width = 450;
}
);
leftKerningGroup = uni025B;
note = uni025B;
rightKerningGroup = uni025B;
unicode = 0045;
},
{
glyphname = A;
lastChange = "2020-10-21 07:33:01 +0000";
layers = (
{
hints = (
{
horizontal = 1;
place = "{0, 21}";
target = up;
type = BottomGhost;
},
{
horizontal = 1;
place = "{534, -20}";
target = down;
type = TopGhost;
},
{
place = "{22, 546}";
type = Stem;
},
{
horizontal = 1;
place = "{0, 143}";
type = Stem;
}
);
layerId = "FE8AE7D2-7E60-458F-B844-21CAF2BBDFF5";
paths = (
{
closed = 1;
nodes = (
"568 534 LINE",
"366 534 LINE",
"245 143 LINE",
"230 534 LINE",
"22 534 LINE",
"108 0 LINE",
"341 0 LINE"
);
},
{
closed = 1;
nodes = (
"353 399 LINE",
"223 399 LINE",
"226 284 LINE",
"315 284 LINE"
);
}
);
width = 514;
},
{
hints = (
{
horizontal = 1;
place = "{0, 19}";
type = Stem;
},
{
horizontal = 1;
place = "{519, -20}";
target = down;
type = TopGhost;
},
{
place = "{60, 401}";
type = Stem;
}
);
layerId = "E8D61EB5-BB7B-4E1E-8596-56C59CE9CB81";
paths = (
{
closed = 1;
nodes = (
"461 519 LINE",
"435 519 LINE",
"193 19 LINE",
"83 519 LINE",
"60 519 LINE",
"177 0 LINE",
"206 0 LINE"
);
},
{
closed = 1;
nodes = (
"373 382 LINE",
"108 382 LINE",
"112 364 LINE",
"364 364 LINE"
);
}
);
width = 447;
}
);
leftKerningGroup = uni028F;
note = v;
rightKerningGroup = uni028F;
unicode = 0041;
},
{
glyphname = Y;
lastChange = "2020-09-29 06:18:30 +0000";
layers = (
{
hints = (
{
horizontal = 1;
place = "{-20, 110}";
type = Stem;
},
{
horizontal = 1;
place = "{417, 137}";
type = Stem;
},
{
place = "{120, 128}";
type = Stem;
},
{
place = "{292, 127}";
type = Stem;
}
);
layerId = "FE8AE7D2-7E60-458F-B844-21CAF2BBDFF5";
paths = (
{
closed = 1;
nodes = (
"425 554 OFFCURVE",
"382 512 OFFCURVE",
"335 423 CURVE SMOOTH",
"301 359 LINE",
"287 413 LINE SMOOTH",
"263 507 OFFCURVE",
"231 554 OFFCURVE",
"145 554 CURVE SMOOTH",
"97 554 OFFCURVE",
"63 542 OFFCURVE",
"27 523 CURVE",
"66 408 LINE",
"79 413 OFFCURVE",
"89 417 OFFCURVE",
"109 417 CURVE SMOOTH",
"130 417 OFFCURVE",
"140 410 OFFCURVE",
"150 383 CURVE SMOOTH",
"199 252 LINE",
"149 196 OFFCURVE",
"120 145 OFFCURVE",
"120 91 CURVE SMOOTH",
"120 29 OFFCURVE",
"165 -20 OFFCURVE",
"254 -20 CURVE SMOOTH",
"370 -20 OFFCURVE",
"419 47 OFFCURVE",
"419 121 CURVE SMOOTH",
"419 167 OFFCURVE",
"403 203 OFFCURVE",
"375 248 CURVE",
"467 381 LINE SMOOTH",
"485 407 OFFCURVE",
"499 417 OFFCURVE",
"521 417 CURVE SMOOTH",
"539 417 OFFCURVE",
"547 413 OFFCURVE",
"560 408 CURVE",
"627 521 LINE",
"597 540 OFFCURVE",
"565 554 OFFCURVE",
"515 554 CURVE SMOOTH"
);
},
{
closed = 1;
nodes = (
"292 100 OFFCURVE",
"282 90 OFFCURVE",
"266 90 CURVE SMOOTH",
"254 90 OFFCURVE",
"248 97 OFFCURVE",
"248 108 CURVE SMOOTH",
"248 126 OFFCURVE",
"262 147 OFFCURVE",
"278 168 CURVE",
"287 150 OFFCURVE",
"292 135 OFFCURVE",
"292 118 CURVE SMOOTH"
);
}
);
width = 582;
},
{
hints = (
{
horizontal = 1;
place = "{-10, 20}";
type = Stem;
},
{
horizontal = 1;
place = "{509, 20}";
type = Stem;
},
{
place = "{159, 22}";
type = Stem;
},
{
place = "{281, 22}";
type = Stem;
}
);
layerId = "E8D61EB5-BB7B-4E1E-8596-56C59CE9CB81";
paths = (
{
closed = 1;
nodes = (
"441 529 OFFCURVE",
"416 507 OFFCURVE",
"387 458 CURVE SMOOTH",
"251 225 LINE",
"180 458 LINE SMOOTH",
"165 507 OFFCURVE",
"146 529 OFFCURVE",
"105 529 CURVE SMOOTH",
"80 529 OFFCURVE",
"59 519 OFFCURVE",
"41 505 CURVE",
"49 489 LINE",
"70 503 OFFCURVE",
"84 509 OFFCURVE",
"105 509 CURVE SMOOTH",
"131 509 OFFCURVE",
"147 496 OFFCURVE",
"159 455 CURVE SMOOTH",
"237 209 LINE",
"191 147 OFFCURVE",
"159 95 OFFCURVE",
"159 54 CURVE SMOOTH",
"159 17 OFFCURVE",
"181 -10 OFFCURVE",
"222 -10 CURVE SMOOTH",
"273 -10 OFFCURVE",
"303 28 OFFCURVE",
"303 76 CURVE SMOOTH",
"303 112 OFFCURVE",
"287 155 OFFCURVE",
"263 208 CURVE",
"409 454 LINE SMOOTH",
"433 495 OFFCURVE",
"452 509 OFFCURVE",
"480 509 CURVE SMOOTH",
"499 509 OFFCURVE",
"512 503 OFFCURVE",
"529 489 CURVE",
"540 504 LINE",
"525 517 OFFCURVE",
"506 529 OFFCURVE",
"480 529 CURVE SMOOTH"
);
},
{
closed = 1;
nodes = (
"281 37 OFFCURVE",
"261 10 OFFCURVE",
"222 10 CURVE SMOOTH",
"193 10 OFFCURVE",
"181 27 OFFCURVE",
"181 53 CURVE SMOOTH",
"181 96 OFFCURVE",
"212 141 OFFCURVE",
"248 192 CURVE",
"269 142 OFFCURVE",
"281 109 OFFCURVE",
"281 76 CURVE SMOOTH"
);
}
);
width = 512;
}
);
leftKerningGroup = uni028F;
note = uni0264;
rightKerningGroup = uni028F;
unicode = 0059;
},
{
glyphname = L;
lastChange = "2020-09-29 06:27:35 +0000";
layers = (
{
hints = (
{
horizontal = 1;
place = "{0, 21}";
target = up;
type = BottomGhost;
},
{
horizontal = 1;
place = "{417, 154}";
type = Stem;
},
{
place = "{412, 199.18}";
type = Stem;
},
{
horizontal = 1;
place = "{-18, 155}";
type = Stem;
},
{
horizontal = 1;
place = "{-18, 21}";
target = up;
type = BottomGhost;
}
);
layerId = "FE8AE7D2-7E60-458F-B844-21CAF2BBDFF5";
paths = (
{
closed = 1;
nodes = (
"43 534 LINE",
"21 380 LINE",
"225 380 LINE",
"195 174 LINE SMOOTH",
"191 147 OFFCURVE",
"182 137 OFFCURVE",
"165 137 CURVE SMOOTH",
"157 137 OFFCURVE",
"151 138 OFFCURVE",
"146 140 CURVE",
"94 1 LINE",
"116 -8 OFFCURVE",
"149 -18 OFFCURVE",
"195 -18 CURVE SMOOTH",
"301 -18 OFFCURVE",
"364 15 OFFCURVE",
"384 155 CURVE SMOOTH",
"416 380 LINE",
"479 380 LINE SMOOTH",
"523 380 OFFCURVE",
"530 359 OFFCURVE",
"524 315 CURVE SMOOTH",
"479 0 LINE",
"673 0 LINE",
"719 330 LINE SMOOTH",
"738 466 OFFCURVE",
"696 534 OFFCURVE",
"557 534 CURVE SMOOTH"
);
}
);
width = 769;
},
{
hints = (
{
horizontal = 1;
place = "{-10, 21}";
type = Stem;
},
{
horizontal = 1;
place = "{539, 20}";
type = Stem;
},
{
place = "{515.68, 21.81}";
type = Stem;
},
{
horizontal = 1;
place = "{0, 21}";
target = up;
type = BottomGhost;
}
);
layerId = "E8D61EB5-BB7B-4E1E-8596-56C59CE9CB81";
paths = (
{
closed = 1;
nodes = (
"53 519 LINE",
"50 499 LINE",
"255 499 LINE",
"195 73 LINE SMOOTH",
"189 27 OFFCURVE",
"167 11 OFFCURVE",
"134 11 CURVE SMOOTH",
"120 11 OFFCURVE",
"107 14 OFFCURVE",
"96 19 CURVE",
"88 0 LINE",
"100 -5 OFFCURVE",
"116 -10 OFFCURVE",
"138 -10 CURVE SMOOTH",
"177 -10 OFFCURVE",
"208 8 OFFCURVE",
"217 69 CURVE SMOOTH",
"277 499 LINE",
"495 499 LINE SMOOTH",
"593 499 OFFCURVE",
"605 459 OFFCURVE",
"591 361 CURVE SMOOTH",
"540 0 LINE",
"562 0 LINE",
"613 361 LINE SMOOTH",
"629 471 OFFCURVE",
"610 519 OFFCURVE",
"496 519 CURVE SMOOTH"
);
}
);
width = 699;
}
);
leftKerningGroup = uni0442;
note = uni05EA;
rightKerningGroup = uni02A9;
unicode = 004C;
},
{
glyphname = six;
lastChange = "2020-09-29 06:39:29 +0000";
layers = (
{
hints = (
{
horizontal = 1;
place = "{-20, 137}";
type = Stem;
},
{
horizontal = 1;
place = "{263, 124}";
type = Stem;
},
{
horizontal = 1;
place = "{463, 128}";
type = Stem;
},
{
place = "{26, 194}";
type = Stem;
},
{
place = "{328, 195}";
type = Stem;
},
{
horizontal = 1;
place = "{548, -20}";
target = down;
type = TopGhost;
}
);
layerId = "FE8AE7D2-7E60-458F-B844-21CAF2BBDFF5";
paths = (
{
closed = 1;
nodes = (
"297 348 OFFCURVE",
"253 344 OFFCURVE",
"227 321 CURVE",
"246 398 OFFCURVE",
"294 408 OFFCURVE",
"337 408 CURVE SMOOTH",
"363 408 OFFCURVE",
"386 400 OFFCURVE",
"395 394 CURVE",
"462 494 LINE",
"447 507 OFFCURVE",
"404 534 OFFCURVE",
"327 534 CURVE SMOOTH",
"134 534 OFFCURVE",
"21 389 OFFCURVE",
"21 207 CURVE SMOOTH",
"21 58 OFFCURVE",
"117 -20 OFFCURVE",
"252 -20 CURVE SMOOTH",
"392 -20 OFFCURVE",
"494 66 OFFCURVE",
"494 184 CURVE SMOOTH",
"494 286 OFFCURVE",
"408 348 OFFCURVE",
"346 348 CURVE SMOOTH"
);
},
{
closed = 1;
nodes = (
"226 117 OFFCURVE",
"212 128 OFFCURVE",
"212 168 CURVE SMOOTH",
"212 177 OFFCURVE",
"212 183 OFFCURVE",
"213 196 CURVE",
"226 212 OFFCURVE",
"246 230 OFFCURVE",
"269 230 CURVE SMOOTH",
"299 230 OFFCURVE",
"302 198 OFFCURVE",
"302 173 CURVE SMOOTH",
"302 136 OFFCURVE",
"290 117 OFFCURVE",
"257 117 CURVE SMOOTH"
);
}
);
width = 523;
},
{
hints = (
{
horizontal = 1;
place = "{-10, 21}";
type = Stem;
},
{
horizontal = 1;
place = "{366, 20}";
type = Stem;
},
{
horizontal = 1;
place = "{551, 20}";
type = Stem;
},
{
place = "{71, 22}";
type = Stem;
},
{
place = "{428, 22}";
type = Stem;
}
);
layerId = "E8D61EB5-BB7B-4E1E-8596-56C59CE9CB81";
paths = (
{
closed = 1;
nodes = (
"198 352 OFFCURVE",
"136 312 OFFCURVE",
"95 261 CURVE",
"119 397 OFFCURVE",
"197 499 OFFCURVE",
"306 499 CURVE SMOOTH",
"347 499 OFFCURVE",
"371 488 OFFCURVE",
"393 470 CURVE",
"406 486 LINE",
"380 506 OFFCURVE",
"352 519 OFFCURVE",
"307 519 CURVE SMOOTH",
"138 519 OFFCURVE",
"66 325 OFFCURVE",
"66 169 CURVE SMOOTH",
"66 68 OFFCURVE",
"115 -10 OFFCURVE",
"222 -10 CURVE SMOOTH",
"365 -10 OFFCURVE",
"413 108 OFFCURVE",
"413 197 CURVE SMOOTH",
"413 299 OFFCURVE",
"354 352 OFFCURVE",
"273 352 CURVE SMOOTH"
);
},
{
closed = 1;
nodes = (
"131 11 OFFCURVE",
"88 76 OFFCURVE",
"88 162 CURVE SMOOTH",
"88 182 OFFCURVE",
"89 203 OFFCURVE",
"91 227 CURVE",
"133 290 OFFCURVE",
"198 331 OFFCURVE",
"271 331 CURVE SMOOTH",
"344 331 OFFCURVE",
"391 285 OFFCURVE",
"391 197 CURVE SMOOTH",
"391 120 OFFCURVE",
"353 11 OFFCURVE",
"223 11 CURVE SMOOTH"
);
}
);
width = 484;
}
);
leftKerningGroup = six.loclIWR;
note = six.loclIWR;
rightKerningGroup = six.loclIWR;
unicode = 0036;
},
{
glyphname = two;
lastChange = "2020-09-29 06:41:26 +0000";
layers = (
{
hints = (
{
horizontal = 1;
place = "{-20, 125}";
type = Stem;
},
{
horizontal = 1;
place = "{414, 140}";
type = Stem;
},
{
place = "{-3, 194}";
type = Stem;
},
{
place = "{336, 194}";
type = Stem;
}
);
layerId = "FE8AE7D2-7E60-458F-B844-21CAF2BBDFF5";
paths = (
{
closed = 1;
nodes = (
"191 554 OFFCURVE",
"115 521 OFFCURVE",
"56 478 CURVE",
"123 365 LINE",
"173 397 OFFCURVE",
"201 414 OFFCURVE",
"245 414 CURVE SMOOTH",
"288 414 OFFCURVE",
"331 397 OFFCURVE",
"336 343 CURVE",
"336 343 LINE",
"180 329 OFFCURVE",
"-3 282 OFFCURVE",
"-3 133 CURVE SMOOTH",
"-3 46 OFFCURVE",
"72 -20 OFFCURVE",
"211 -20 CURVE SMOOTH",
"448 -20 OFFCURVE",
"530 178 OFFCURVE",
"530 323 CURVE SMOOTH",
"530 459 OFFCURVE",
"452 554 OFFCURVE",
"281 554 CURVE SMOOTH"
);
},
{
closed = 1;
nodes = (
"201 105 OFFCURVE",
"191 121 OFFCURVE",
"191 142 CURVE SMOOTH",
"191 166 OFFCURVE",
"207 225 OFFCURVE",
"328 232 CURVE",
"315 167 OFFCURVE",
"287 105 OFFCURVE",
"230 105 CURVE SMOOTH"
);
}
);
width = 542;
},
{
hints = (
{
horizontal = 1;
place = "{-10, 20}";
type = Stem;
},
{
horizontal = 1;
place = "{286, 19}";
type = Stem;
},
{
horizontal = 1;
place = "{508, 21}";
type = Stem;
},
{
place = "{38, 23}";
type = Stem;
},
{
place = "{419, 23}";
type = Stem;
}
);
layerId = "E8D61EB5-BB7B-4E1E-8596-56C59CE9CB81";
paths = (
{
closed = 1;
nodes = (
"200 529 OFFCURVE",
"151 507 OFFCURVE",
"99 468 CURVE",
"110 452 LINE",
"161 488 OFFCURVE",
"203 508 OFFCURVE",
"266 508 CURVE SMOOTH",
"358 508 OFFCURVE",
"419 449 OFFCURVE",
"419 323 CURVE SMOOTH",
"419 305 LINE",
"173 291 OFFCURVE",
"38 226 OFFCURVE",
"38 108 CURVE SMOOTH",
"38 35 OFFCURVE",
"95 -10 OFFCURVE",
"181 -10 CURVE SMOOTH",
"366 -10 OFFCURVE",
"442 185 OFFCURVE",
"442 324 CURVE SMOOTH",
"442 457 OFFCURVE",
"376 529 OFFCURVE",
"266 529 CURVE SMOOTH"
);
},
{
closed = 1;
nodes = (
"105 10 OFFCURVE",
"61 49 OFFCURVE",
"61 109 CURVE SMOOTH",
"61 210 OFFCURVE",
"176 271 OFFCURVE",
"417 286 CURVE",
"405 162 OFFCURVE",
"335 10 OFFCURVE",
"181 10 CURVE SMOOTH"
);
}
);
width = 509;
}
);
leftKerningGroup = uni0262;
note = uni0259;
rightKerningGroup = uni01F6;
unicode = 0032;
},
{
glyphname = b;
lastChange = "2020-09-29 06:42:10 +0000";
layers = (
{
hints = (
{
horizontal = 1;
place = "{-20, 141}";
type = Stem;
},
{
horizontal = 1;
place = "{554, -20}";
target = down;
type = TopGhost;
},
{
horizontal = 1;
place = "{764, -20}";
target = down;
type = TopGhost;
},
{
place = "{372, 199}";
type = Stem;
},
{
horizontal = 1;
place = "{412, 142}";
type = Stem;
}
);
layerId = "FE8AE7D2-7E60-458F-B844-21CAF2BBDFF5";
paths = (
{
closed = 1;
nodes = (
"357 554 OFFCURVE",
"300 530 OFFCURVE",
"265 493 CURVE",
"303 764 LINE",
"107 744 LINE",
"7 30 LINE",
"77 -1 OFFCURVE",
"156 -20 OFFCURVE",
"244 -20 CURVE SMOOTH",
"514 -20 OFFCURVE",
"571 191 OFFCURVE",
"571 347 CURVE SMOOTH",
"571 478 OFFCURVE",
"518 554 OFFCURVE",
"407 554 CURVE SMOOTH"
);
},
{
closed = 1;
nodes = (
"351 412 OFFCURVE",
"372 400 OFFCURVE",
"372 338 CURVE SMOOTH",
"372 249 OFFCURVE",
"345 121 OFFCURVE",
"266 121 CURVE SMOOTH",
"245 121 OFFCURVE",
"228 126 OFFCURVE",
"215 131 CURVE",
"247 359 LINE",
"272 396 OFFCURVE",
"299 412 OFFCURVE",
"326 412 CURVE SMOOTH"
);
}
);
width = 583;
},
{
hints = (
{
horizontal = 1;
place = "{-10, 21}";
type = Stem;
},
{
horizontal = 1;
place = "{509, 20}";
type = Stem;
},
{
horizontal = 1;
place = "{736, -20}";
target = down;
type = TopGhost;
},
{
place = "{476, 22}";
type = Stem;
}
);
layerId = "E8D61EB5-BB7B-4E1E-8596-56C59CE9CB81";
paths = (
{
closed = 1;
nodes = (
"270 529 OFFCURVE",
"212 490 OFFCURVE",
"166 436 CURVE",
"207 736 LINE",
"185 733 LINE",
"85 24 LINE",
"145 0 OFFCURVE",
"186 -10 OFFCURVE",
"245 -10 CURVE SMOOTH",
"436 -10 OFFCURVE",
"498 202 OFFCURVE",
"498 339 CURVE SMOOTH",
"498 463 OFFCURVE",
"444 529 OFFCURVE",
"345 529 CURVE SMOOTH"
);
},
{
closed = 1;
nodes = (
"431 509 OFFCURVE",
"476 450 OFFCURVE",
"476 339 CURVE SMOOTH",
"476 216 OFFCURVE",
"423 11 OFFCURVE",
"244 11 CURVE SMOOTH",
"187 11 OFFCURVE",
"150 22 OFFCURVE",
"110 39 CURVE",
"161 408 LINE",
"214 468 OFFCURVE",
"266 509 OFFCURVE",
"345 509 CURVE SMOOTH"
);
}
);
width = 565;
}
);
leftKerningGroup = b;
note = b;
rightKerningGroup = uni01F6;
unicode = 0062;
},
{
glyphname = p;
lastChange = "2020-09-29 06:42:21 +0000";
layers = (
{
hints = (
{
horizontal = 1;
place = "{-227, 21}";
target = up;
type = BottomGhost;
},
{
horizontal = 1;
place = "{-20, 141}";
type = Stem;
},
{
horizontal = 1;
place = "{554, -20}";
target = down;
type = TopGhost;
},
{
place = "{373, 199}";
type = Stem;
},
{
horizontal = 1;
place = "{-6, 21}";
target = up;
type = BottomGhost;
},
{
horizontal = 1;
place = "{412, 122}";
type = Stem;
}
);
layerId = "FE8AE7D2-7E60-458F-B844-21CAF2BBDFF5";
paths = (
{
closed = 1;
nodes = (
"-28 -227 LINE",
"166 -207 LINE",
"196 -6 LINE",
"211 -12 OFFCURVE",
"239 -20 OFFCURVE",
"289 -20 CURVE SMOOTH",
"503 -20 OFFCURVE",
"572 191 OFFCURVE",
"572 347 CURVE SMOOTH",
"572 478 OFFCURVE",
"519 554 OFFCURVE",
"406 554 CURVE SMOOTH",
"362 554 OFFCURVE",
"305 534 OFFCURVE",
"252 479 CURVE",
"251 534 LINE",
"78 534 LINE"
);
},
{
closed = 1;
nodes = (
"246 121 OFFCURVE",
"229 126 OFFCURVE",
"216 131 CURVE",
"248 360 LINE",
"273 396 OFFCURVE",
"300 412 OFFCURVE",
"327 412 CURVE SMOOTH",
"352 412 OFFCURVE",
"373 400 OFFCURVE",
"373 338 CURVE SMOOTH",
"373 249 OFFCURVE",
"346 121 OFFCURVE",
"267 121 CURVE SMOOTH"
);
}
);
width = 583;
},
{
hints = (
{
horizontal = 1;
place = "{-197, 21}";
target = up;
type = BottomGhost;
},
{
horizontal = 1;
place = "{-10, 21}";
type = Stem;
},
{
horizontal = 1;
place = "{509, 20}";
type = Stem;
},
{
place = "{476, 22}";
type = Stem;
},
{
horizontal = 1;
place = "{519, -20}";
target = down;
type = TopGhost;
}
);
layerId = "E8D61EB5-BB7B-4E1E-8596-56C59CE9CB81";
paths = (
{
closed = 1;
nodes = (
"54 -197 LINE",
"76 -194 LINE",
"106 17 LINE",
"148 0 OFFCURVE",
"191 -10 OFFCURVE",
"244 -10 CURVE SMOOTH",
"436 -10 OFFCURVE",
"498 202 OFFCURVE",
"498 339 CURVE SMOOTH",
"498 462 OFFCURVE",
"444 529 OFFCURVE",
"344 529 CURVE SMOOTH",
"271 529 OFFCURVE",
"213 492 OFFCURVE",
"164 437 CURVE",
"174 519 LINE",
"155 519 LINE"
);
},
{
closed = 1;
nodes = (
"186 11 OFFCURVE",
"145 23 OFFCURVE",
"109 39 CURVE",
"161 408 LINE",
"213 468 OFFCURVE",
"266 509 OFFCURVE",
"344 509 CURVE SMOOTH",
"431 509 OFFCURVE",
"476 451 OFFCURVE",
"476 339 CURVE SMOOTH",
"476 216 OFFCURVE",
"422 11 OFFCURVE",
"243 11 CURVE SMOOTH"
);
}
);
width = 564;
}
);
leftKerningGroup = uni0299;
note = p;
rightKerningGroup = uni01F6;
unicode = 0070;
},
{
glyphname = m;
lastChange = "2020-09-29 06:44:03 +0000";
layers = (
{
hints = (
{
horizontal = 1;
place = "{0, 21}";
target = up;
type = BottomGhost;
},
{
horizontal = 1;
place = "{554, -20}";
target = down;
type = TopGhost;
},
{
place = "{605.01, 200.46}";
type = Stem;
},
{
horizontal = 1;
place = "{534, -20}";
target = down;
type = TopGhost;
},
{
horizontal = 1;
place = "{393, 141}";
type = Stem;
}
);
layerId = "FE8AE7D2-7E60-458F-B844-21CAF2BBDFF5";
paths = (
{
closed = 1;
nodes = (
"628 554 OFFCURVE",
"568 518 OFFCURVE",
"527 463 CURVE",
"527 463 LINE",
"516 521 OFFCURVE",
"474 554 OFFCURVE",
"410 554 CURVE SMOOTH",
"347 554 OFFCURVE",
"287 518 OFFCURVE",
"248 456 CURVE",
"247 534 LINE",
"78 534 LINE",
"4 0 LINE",
"198 0 LINE",
"238 281 LINE",
"261 354 OFFCURVE",
"290 393 OFFCURVE",
"311 393 CURVE SMOOTH",
"324 393 OFFCURVE",
"333 383 OFFCURVE",
"327 341 CURVE SMOOTH",
"279 0 LINE",
"473 0 LINE",
"513 286 LINE",
"539 356 OFFCURVE",
"565 393 OFFCURVE",
"588 393 CURVE SMOOTH",
"601 393 OFFCURVE",
"609 383 OFFCURVE",
"603 341 CURVE SMOOTH",
"554 0 LINE",
"748 0 LINE",
"803 393 LINE SMOOTH",
"817 495 OFFCURVE",
"771 554 OFFCURVE",
"686 554 CURVE SMOOTH"
);
}
);
width = 819;
},
{
hints = (
{
horizontal = 1;
place = "{0, 21}";
target = up;
type = BottomGhost;
},
{
horizontal = 1;
place = "{510, 19}";
type = Stem;
},
{
place = "{432.87, 22.33}";
type = Stem;
},
{
place = "{730.2, 22}";
type = Stem;
},
{
horizontal = 1;
place = "{519, -20}";
target = down;
type = TopGhost;
}
);
layerId = "E8D61EB5-BB7B-4E1E-8596-56C59CE9CB81";
paths = (
{
closed = 1;
nodes = (
"577 529 OFFCURVE",
"508 474 OFFCURVE",
"451 365 CURVE",
"452 369 LINE SMOOTH",
"467 470 OFFCURVE",
"430 529 OFFCURVE",
"352 529 CURVE SMOOTH",
"278 529 OFFCURVE",
"210 472 OFFCURVE",
"153 358 CURVE",
"173 519 LINE",
"155 519 LINE",
"81 0 LINE",
"103 0 LINE",
"148 315 LINE",
"209 439 OFFCURVE",
"275 510 OFFCURVE",
"350 510 CURVE SMOOTH",
"413 510 OFFCURVE",
"443 462 OFFCURVE",
"430 367 CURVE SMOOTH",
"378 0 LINE",
"400 0 LINE",
"445 317 LINE",
"507 441 OFFCURVE",
"572 510 OFFCURVE",
"647 510 CURVE SMOOTH",
"711 510 OFFCURVE",
"741 462 OFFCURVE",
"727 367 CURVE SMOOTH",
"676 0 LINE",
"698 0 LINE",
"749 369 LINE SMOOTH",
"764 470 OFFCURVE",
"727 529 OFFCURVE",
"649 529 CURVE SMOOTH"
);
}
);
width = 847;
}
);
leftKerningGroup = uni0299;
note = m;
rightKerningGroup = uni02A9;
unicode = 006D;
},
{
glyphname = w;
lastChange = "2020-09-29 06:44:21 +0000";
layers = (
{
hints = (
{
horizontal = 1;
place = "{0, 21}";
target = up;
type = BottomGhost;
},
{
horizontal = 1;
place = "{534, -20}";
target = down;
type = TopGhost;
},
{
place = "{396.5, 116.5}";
type = Stem;
},
{
horizontal = 1;
place = "{0, 151}";
type = Stem;
},
{
horizontal = 1;
place = "{358, 176}";
type = Stem;
}
);
layerId = "FE8AE7D2-7E60-458F-B844-21CAF2BBDFF5";
paths = (
{
closed = 1;
nodes = (
"797 534 LINE",
"611 534 LINE",
"514 151 LINE",
"512 534 LINE",
"331 534 LINE",
"209 151 LINE",
"231 534 LINE",
"35 534 LINE",
"66 0 LINE",
"289 0 LINE",
"393 358 LINE",
"400 0 LINE",
"620 0 LINE"
);
}
);
width = 756;
},
{
hints = (
{
horizontal = 1;
place = "{0, 21}";
type = Stem;
},
{
horizontal = 1;
place = "{497, 22}";
type = Stem;
},
{
place = "{70, 614}";
type = Stem;
}
);
layerId = "E8D61EB5-BB7B-4E1E-8596-56C59CE9CB81";
paths = (
{
closed = 1;
nodes = (
"684 519 LINE",
"661 519 LINE",
"463 21 LINE",
"392 519 LINE",
"364 519 LINE",
"153 21 LINE",
"92 519 LINE",
"70 519 LINE",
"135 0 LINE",
"165 0 LINE",
"375 497 LINE",
"446 0 LINE",
"474 0 LINE"
);
}
);
width = 680;
}
);
leftKerningGroup = w;
note = w;
rightKerningGroup = w;
unicode = 0077;
},
{
glyphname = j;
lastChange = "2020-09-29 06:44:48 +0000";
layers = (
{
hints = (
{
horizontal = 1;
place = "{-227, 21}";
target = up;
type = BottomGhost;
},
{
horizontal = 1;
place = "{534, -20}";
target = down;
type = TopGhost;
},
{
horizontal = 1;
place = "{617, 212}";
type = Stem;
},
{
place = "{91, 220}";
type = Stem;
}
);
layerId = "FE8AE7D2-7E60-458F-B844-21CAF2BBDFF5";
paths = (
{
closed = 1;
nodes = (
"257 617 OFFCURVE",
"311 668 OFFCURVE",
"311 736 CURVE SMOOTH",
"311 790 OFFCURVE",
"273 829 OFFCURVE",
"214 829 CURVE SMOOTH",
"145 829 OFFCURVE",
"91 778 OFFCURVE",
"91 710 CURVE SMOOTH",
"91 656 OFFCURVE",
"129 617 OFFCURVE",
"188 617 CURVE SMOOTH"
);
},
{
closed = 1;
nodes = (
"-71 -227 LINE",
"64 -184 OFFCURVE",
"181 -112 OFFCURVE",
"207 76 CURVE SMOOTH",
"271 534 LINE",
"77 534 LINE",
"12 66 LINE SMOOTH",
"0 -21 OFFCURVE",
"-40 -59 OFFCURVE",
"-117 -88 CURVE"
);
}
);
width = 274;
},
{
hints = (
{
horizontal = 1;
place = "{-195, 21}";
target = up;
type = BottomGhost;
},
{
horizontal = 1;
place = "{519, -20}";
target = down;
type = TopGhost;
},
{
horizontal = 1;
place = "{685, 39}";
type = Stem;
},
{
place = "{172, 40}";
type = Stem;
}
);
layerId = "E8D61EB5-BB7B-4E1E-8596-56C59CE9CB81";
paths = (
{
closed = 1;
nodes = (
"203 685 OFFCURVE",
"212 695 OFFCURVE",
"212 706 CURVE SMOOTH",
"212 717 OFFCURVE",
"205 724 OFFCURVE",
"193 724 CURVE SMOOTH",
"180 724 OFFCURVE",
"172 714 OFFCURVE",
"172 702 CURVE SMOOTH",
"172 692 OFFCURVE",
"179 685 OFFCURVE",
"190 685 CURVE SMOOTH"
);
},
{
closed = 1;
nodes = (
"-35 -195 LINE",
"48 -155 OFFCURVE",
"87 -123 OFFCURVE",
"105 5 CURVE SMOOTH",
"177 519 LINE",
"155 519 LINE",
"83 7 LINE SMOOTH",
"67 -110 OFFCURVE",
"32 -142 OFFCURVE",
"-41 -178 CURVE"
);
}
);
width = 258;
}
);
leftKerningGroup = j;
note = j;
rightKerningGroup = uni01C8;
unicode = 006A;
},
{
glyphname = q;
lastChange = "2020-09-29 06:44:51 +0000";
layers = (
{
hints = (
{
horizontal = 1;
place = "{-227, 21}";
target = up;
type = BottomGhost;
},
{
horizontal = 1;
place = "{-20, 21}";
target = up;
type = BottomGhost;
},
{
horizontal = 1;
place = "{418, 136}";
type = Stem;
},
{
place = "{11, 199}";
type = Stem;
},
{
horizontal = 1;
place = "{-20, 142}";
type = Stem;
}
);
layerId = "FE8AE7D2-7E60-458F-B844-21CAF2BBDFF5";
paths = (
{
closed = 1;
nodes = (
"277 -227 LINE",
"472 -207 LINE",
"569 491 LINE",
"495 535 OFFCURVE",
"408 554 OFFCURVE",
"333 554 CURVE SMOOTH",
"97 554 OFFCURVE",
"11 363 OFFCURVE",
"11 197 CURVE SMOOTH",
"11 64 OFFCURVE",
"71 -20 OFFCURVE",
"185 -20 CURVE SMOOTH",
"250 -20 OFFCURVE",
"301 16 OFFCURVE",
"314 36 CURVE"
);
},
{
closed = 1;
nodes = (
"233 122 OFFCURVE",
"210 132 OFFCURVE",
"210 198 CURVE SMOOTH",
"210 292 OFFCURVE",
"240 418 OFFCURVE",
"325 418 CURVE SMOOTH",
"341 418 OFFCURVE",
"352 416 OFFCURVE",
"367 412 CURVE",
"333 182 LINE",
"309 141 OFFCURVE",
"283 122 OFFCURVE",
"256 122 CURVE SMOOTH"
);
}
);
width = 572;
},
{
hints = (
{
horizontal = 1;
place = "{-197, 21}";
target = up;
type = BottomGhost;
},
{
horizontal = 1;
place = "{-10, 21}";
type = Stem;
},
{
horizontal = 1;
place = "{510, 19}";
type = Stem;
},
{
place = "{68, 22}";
type = Stem;
}
);
layerId = "E8D61EB5-BB7B-4E1E-8596-56C59CE9CB81";
paths = (
{
closed = 1;
nodes = (
"357 -197 LINE",
"379 -194 LINE",
"476 488 LINE",
"437 511 OFFCURVE",
"393 529 OFFCURVE",
"328 529 CURVE SMOOTH",
"135 529 OFFCURVE",
"68 330 OFFCURVE",
"68 190 CURVE SMOOTH",
"68 67 OFFCURVE",
"127 -10 OFFCURVE",
"227 -10 CURVE SMOOTH",
"297 -10 OFFCURVE",
"357 31 OFFCURVE",
"398 97 CURVE"
);
},
{
closed = 1;
nodes = (
"140 11 OFFCURVE",
"90 79 OFFCURVE",
"90 191 CURVE SMOOTH",
"90 320 OFFCURVE",
"152 510 OFFCURVE",
"328 510 CURVE SMOOTH",
"378 510 OFFCURVE",
"421 497 OFFCURVE",
"452 477 CURVE",
"403 135 LINE",
"356 53 OFFCURVE",
"297 11 OFFCURVE",
"228 11 CURVE SMOOTH"
);
}
);
width = 556;
}
);
leftKerningGroup = uni0262;
note = q;
rightKerningGroup = g;
unicode = 0071;
},
{
glyphname = x;
lastChange = "2020-09-29 06:44:53 +0000";
layers = (
{
hints = (
{
horizontal = 1;
place = "{0, 21}";
target = up;
type = BottomGhost;
},
{
horizontal = 1;
place = "{534, -20}";
target = down;
type = TopGhost;
},
{
place = "{-57, 602}";
type = Stem;
}
);
layerId = "FE8AE7D2-7E60-458F-B844-21CAF2BBDFF5";
paths = (
{
closed = 1;
nodes = (
"545 534 LINE",
"338 534 LINE",
"270 377 LINE",
"241 534 LINE",
"30 534 LINE",
"141 283 LINE",
"-57 0 LINE",
"155 0 LINE",
"246 178 LINE",
"290 0 LINE",
"499 0 LINE",
"379 282 LINE"
);
}
);
width = 518;
},
{
hints = (
{
horizontal = 1;
place = "{0, 21}";
target = up;
type = BottomGhost;
},
{
horizontal = 1;
place = "{519, -20}";
target = down;
type = TopGhost;
},
{
place = "{-19, 446}";
type = Stem;
}
);
layerId = "E8D61EB5-BB7B-4E1E-8596-56C59CE9CB81";
paths = (
{
closed = 1;
nodes = (
"427 519 LINE",
"400 519 LINE",
"220 293 LINE",
"104 519 LINE",
"80 519 LINE",
"205 279 LINE",
"-19 0 LINE",
"7 0 LINE",
"217 263 LINE",
"354 0 LINE",
"379 0 LINE",
"232 277 LINE"
);
}
);
width = 433;
}
);
leftKerningGroup = uni029E;
note = x;
rightKerningGroup = kgreenlandic;
unicode = 0078;
},
{
glyphname = y;
lastChange = "2020-09-29 06:45:01 +0000";
layers = (
{
hints = (
{
horizontal = 1;
place = "{-228, 135}";
type = Stem;
},
{
horizontal = 1;
place = "{0, 21}";
target = up;
type = BottomGhost;
},
{
horizontal = 1;
place = "{534, -20}";
target = down;
type = TopGhost;
},
{
place = "{-21, 595}";
type = Stem;
}
);
layerId = "FE8AE7D2-7E60-458F-B844-21CAF2BBDFF5";
paths = (
{
closed = 1;
nodes = (
"574 534 LINE",
"371 534 LINE",
"235 122 LINE",
"224 534 LINE",
"22 534 LINE",
"97 0 LINE",
"165 0 LINE",
"127 -60 OFFCURVE",
"81 -83 OFFCURVE",
"-21 -93 CURVE",
"-17 -228 LINE",
"159 -223 OFFCURVE",
"281 -148 OFFCURVE",
"345 0 CURVE SMOOTH"
);
}
);
width = 520;
},
{
hints = (
{
horizontal = 1;
place = "{-195, 21}";
target = up;
type = BottomGhost;
},
{
horizontal = 1;
place = "{0, 21}";
target = up;
type = BottomGhost;
},
{
horizontal = 1;
place = "{519, -20}";
target = down;
type = TopGhost;
},
{
place = "{-6, 464}";
type = Stem;
},
{
horizontal = 1;
place = "{0, 16}";
type = Stem;
}
);
layerId = "E8D61EB5-BB7B-4E1E-8596-56C59CE9CB81";
paths = (
{
closed = 1;
nodes = (
"458 519 LINE",
"433 519 LINE",
"191 16 LINE",
"83 519 LINE",
"60 519 LINE",
"173 0 LINE",
"183 0 LINE",
"130 -103 OFFCURVE",
"102 -146 OFFCURVE",
"-6 -176 CURVE",
"-4 -195 LINE",
"110 -163 OFFCURVE",
"149 -116 OFFCURVE",
"205 -2 CURVE SMOOTH"
);
}
);
width = 444;
}
);
leftKerningGroup = uni028F;
note = y;
rightKerningGroup = uni028F;
unicode = 0079;
},
{
glyphname = n;
lastChange = "2020-09-29 06:45:03 +0000";
layers = (
{
hints = (
{
horizontal = 1;
place = "{0, 21}";
target = up;
type = BottomGhost;
},
{
horizontal = 1;
place = "{554, -20}";
target = down;
type = TopGhost;
},
{
place = "{341, 203.47}";
type = Stem;
},
{
horizontal = 1;
place = "{534, -20}";
target = down;
type = TopGhost;
},
{
place = "{4, 540.47}";
type = Stem;
},
{
horizontal = 1;
place = "{393, 141}";
type = Stem;
}
);
layerId = "FE8AE7D2-7E60-458F-B844-21CAF2BBDFF5";
paths = (
{
closed = 1;
nodes = (
"359 554 OFFCURVE",
"290 511 OFFCURVE",
"248 446 CURVE",
"247 534 LINE",
"78 534 LINE",
"4 0 LINE",
"198 0 LINE",
"238 278 LINE",
"273 353 OFFCURVE",
"301 393 OFFCURVE",
"325 393 CURVE SMOOTH",
"338 393 OFFCURVE",
"347 383 OFFCURVE",
"341 341 CURVE SMOOTH",
"293 0 LINE",
"487 0 LINE",
"542 393 LINE SMOOTH",
"556 495 OFFCURVE",
"510 554 OFFCURVE",
"427 554 CURVE SMOOTH"
);
}
);
width = 558;
},
{
hints = (
{
horizontal = 1;
place = "{0, 21}";
target = up;
type = BottomGhost;
},
{
horizontal = 1;
place = "{510, 19}";
type = Stem;
},
{
place = "{464.76, 22}";
type = Stem;
},
{
horizontal = 1;
place = "{519, -20}";
target = down;
type = TopGhost;
}
);
layerId = "E8D61EB5-BB7B-4E1E-8596-56C59CE9CB81";
paths = (
{
closed = 1;
nodes = (
"286 529 OFFCURVE",
"212 471 OFFCURVE",
"153 358 CURVE",
"173 519 LINE",
"155 519 LINE",
"81 0 LINE",
"103 0 LINE",
"148 315 LINE",
"211 437 OFFCURVE",
"282 510 OFFCURVE",
"368 510 CURVE SMOOTH",
"443 510 OFFCURVE",
"475 462 OFFCURVE",
"462 367 CURVE SMOOTH",
"410 0 LINE",
"432 0 LINE",
"484 369 LINE SMOOTH",
"498 470 OFFCURVE",
"459 529 OFFCURVE",
"369 529 CURVE SMOOTH"
);
}
);
width = 581;
}
);
leftKerningGroup = uni0299;
note = n;
rightKerningGroup = uni02A9;
unicode = 006E;
},
{
glyphname = z;
lastChange = "2020-09-29 06:45:05 +0000";
layers = (
{
hints = (
{
horizontal = 1;
place = "{0, 146}";
type = Stem;
},
{
horizontal = 1;
place = "{390, 144}";
type = Stem;
},
{
place = "{-34, 516}";
type = Stem;
}
);
layerId = "FE8AE7D2-7E60-458F-B844-21CAF2BBDFF5";
paths = (
{
closed = 1;
nodes = (
"482 534 LINE",
"60 534 LINE",
"40 390 LINE",
"222 390 LINE",
"-16 138 LINE",
"-34 0 LINE",
"398 0 LINE",
"435 146 LINE",
"229 146 LINE",
"464 397 LINE"
);
}
);
width = 454;
},
{
hints = (
{
horizontal = 1;
place = "{0, 21}";
type = Stem;
},
{
horizontal = 1;
place = "{499, 20}";
type = Stem;
},
{
place = "{-10, 415}";
type = Stem;
}
);
layerId = "E8D61EB5-BB7B-4E1E-8596-56C59CE9CB81";
paths = (
{
closed = 1;
nodes = (
"405 519 LINE",
"90 519 LINE",
"87 499 LINE",
"374 499 LINE",
"-7 18 LINE",
"-10 0 LINE",
"322 0 LINE",
"327 21 LINE",
"22 21 LINE",
"402 501 LINE"
);
}
);
width = 400;
}
);
leftKerningGroup = z;
note = z;
rightKerningGroup = uni01F2;
unicode = 007A;
},
{
glyphname = D;
lastChange = "2020-10-21 07:19:21 +0000";
layers = (
{
hints = (
{
horizontal = 1;
place = "{546, 403}";
type = Stem;
},
{
horizontal = 1;
place = "{275, 406}";
type = Stem;
},
{
horizontal = 1;
place = "{72, 420}";
type = Stem;
},
{
place = "{206, 333}";
type = Stem;
}
);
layerId = "FE8AE7D2-7E60-458F-B844-21CAF2BBDFF5";
paths = (
{
closed = 1;
nodes = (
"385 149 LINE",
"356 135 OFFCURVE",
"311 117 OFFCURVE",
"266 117 CURVE SMOOTH",
"227 117 OFFCURVE",
"186 130 OFFCURVE",
"186 157 CURVE SMOOTH",
"186 218 OFFCURVE",
"216 251 OFFCURVE",
"268 251 CURVE SMOOTH",
"298 251 LINE",
"476 251 LINE",
"507 454 LINE",
"549 454 LINE",
"581 560 LINE",
"523 560 LINE",
"542 684 LINE",
"348 684 LINE",
"329 560 LINE",
"203 560 LINE",
"191 454 LINE",
"312 454 LINE",
"300 371 LINE",
"284 371 LINE SMOOTH",
"101 371 OFFCURVE",
"-8 286 OFFCURVE",
"-8 142 CURVE SMOOTH",
"-8 63 OFFCURVE",
"41 -20 OFFCURVE",
"207 -20 CURVE SMOOTH",
"292 -20 OFFCURVE",
"354 -10 OFFCURVE",
"449 23 CURVE"
);
}
);
width = 538;
},
{
hints = (
{
horizontal = 1;
place = "{506, 475}";
type = Stem;
},
{
horizontal = 1;
place = "{181, 476}";
type = Stem;
},
{
horizontal = 1;
place = "{15, 476}";
type = Stem;
},
{
place = "{77, 473}";
type = Stem;
}
);
layerId = "E8D61EB5-BB7B-4E1E-8596-56C59CE9CB81";
paths = (
{
closed = 1;
nodes = (
"340 37 LINE",
"295 23 OFFCURVE",
"242 11 OFFCURVE",
"204 11 CURVE SMOOTH",
"92 11 OFFCURVE",
"53 59 OFFCURVE",
"53 131 CURVE SMOOTH",
"53 236 OFFCURVE",
"123 315 OFFCURVE",
"251 315 CURVE SMOOTH",
"372 315 LINE",
"387 315 LINE",
"411 481 LINE",
"486 482 LINE",
"493 501 LINE",
"414 501 LINE",
"433 633 LINE",
"412 630 LINE",
"393 501 LINE",
"248 501 LINE",
"245 481 LINE",
"390 481 LINE",
"369 335 LINE",
"255 335 LINE SMOOTH",
"120 335 OFFCURVE",
"32 254 OFFCURVE",
"32 129 CURVE SMOOTH",
"32 57 OFFCURVE",
"73 -10 OFFCURVE",
"197 -10 CURVE SMOOTH",
"245 -10 OFFCURVE",
"298 1 OFFCURVE",
"350 18 CURVE"
);
}
);
width = 505;
}
);
leftKerningGroup = uni0501.sc;
note = uni0463;
rightKerningGroup = uni0185;
unicode = 0044;
},
{
glyphname = s;
lastChange = "2020-10-21 07:20:35 +0000";
layers = (
{
hints = (
{
horizontal = 1;
place = "{-20, 137}";
type = Stem;
},
{
horizontal = 1;
place = "{417, 137}";
type = Stem;
},
{
place = "{-27, 509}";
type = Stem;
},
{
place = "{35, 192}";
type = Stem;
},
{
place = "{268, 191}";
type = Stem;
}
);
layerId = "FE8AE7D2-7E60-458F-B844-21CAF2BBDFF5";
paths = (
{
closed = 1;
nodes = (
"122 554 OFFCURVE",
"35 473 OFFCURVE",
"35 370 CURVE SMOOTH",
"35 287 OFFCURVE",
"81 240 OFFCURVE",
"167 209 CURVE SMOOTH",
"251 179 OFFCURVE",
"268 173 OFFCURVE",
"268 150 CURVE SMOOTH",
"268 125 OFFCURVE",
"241 117 OFFCURVE",
"209 117 CURVE SMOOTH",
"148 117 OFFCURVE",
"101 143 OFFCURVE",
"67 173 CURVE",
"-27 74 LINE",
"22 18 OFFCURVE",
"113 -20 OFFCURVE",
"209 -20 CURVE SMOOTH",
"405 -20 OFFCURVE",
"459 87 OFFCURVE",
"459 174 CURVE SMOOTH",
"459 258 OFFCURVE",
"411 309 OFFCURVE",
"327 337 CURVE SMOOTH",
"240 366 OFFCURVE",
"227 371 OFFCURVE",
"227 390 CURVE SMOOTH",
"227 406 OFFCURVE",
"240 417 OFFCURVE",
"277 417 CURVE SMOOTH",
"316 417 OFFCURVE",
"362 403 OFFCURVE",
"399 380 CURVE",
"482 484 LINE",
"432 525 OFFCURVE",
"358 554 OFFCURVE",
"275 554 CURVE SMOOTH"
);
}
);
width = 476;
},
{
hints = (
{
horizontal = 1;
place = "{-10, 21}";
type = Stem;
},
{
horizontal = 1;
place = "{509, 20}";
type = Stem;
},
{
place = "{85, 23}";
type = Stem;
},
{
place = "{353, 23}";
type = Stem;
}
);
layerId = "E8D61EB5-BB7B-4E1E-8596-56C59CE9CB81";
paths = (
{
closed = 1;
nodes = (
"158 529 OFFCURVE",
"85 477 OFFCURVE",
"85 398 CURVE SMOOTH",
"85 340 OFFCURVE",
"116 301 OFFCURVE",
"224 267 CURVE SMOOTH",
"325 235 OFFCURVE",
"353 202 OFFCURVE",
"353 142 CURVE SMOOTH",
"353 52 OFFCURVE",
"279 11 OFFCURVE",
"187 11 CURVE SMOOTH",
"114 11 OFFCURVE",
"71 35 OFFCURVE",
"29 70 CURVE",
"16 56 LINE",
"56 19 OFFCURVE",
"106 -10 OFFCURVE",
"189 -10 CURVE SMOOTH",
"315 -10 OFFCURVE",
"376 60 OFFCURVE",
"376 143 CURVE SMOOTH",
"376 213 OFFCURVE",
"338 253 OFFCURVE",
"233 286 CURVE SMOOTH",
"133 317 OFFCURVE",
"108 349 OFFCURVE",
"108 398 CURVE SMOOTH",
"108 467 OFFCURVE",
"169 509 OFFCURVE",
"253 509 CURVE SMOOTH",
"311 509 OFFCURVE",
"349 493 OFFCURVE",
"387 462 CURVE",
"402 476 LINE",
"361 512 OFFCURVE",
"315 529 OFFCURVE",
"253 529 CURVE SMOOTH"
);
}
);
width = 449;
}
);
leftKerningGroup = s;
note = s;
rightKerningGroup = uni02AA;
unicode = 0073;
},
{
glyphname = r;
lastChange = "2020-10-21 07:20:40 +0000";
layers = (
{
hints = (
{
horizontal = 1;
place = "{0, 21}";
target = up;
type = BottomGhost;
},
{
horizontal = 1;
place = "{551, -20}";
target = down;
type = TopGhost;
},
{
place = "{4, 445}";
type = Stem;
},
{
horizontal = 1;
place = "{534, -20}";
target = down;
type = TopGhost;
},
{
horizontal = 1;
place = "{359, 175}";
type = Stem;
},
{
horizontal = 1;
place = "{542, -20}";
target = down;
type = TopGhost;
}
);
layerId = "FE8AE7D2-7E60-458F-B844-21CAF2BBDFF5";
paths = (
{
closed = 1;
nodes = (
"338 551 OFFCURVE",
"283 511 OFFCURVE",
"248 439 CURVE",
"247 534 LINE",
"78 534 LINE",
"4 0 LINE",
"198 0 LINE",
"230 225 LINE",
"254 296 OFFCURVE",
"284 359 OFFCURVE",
"348 359 CURVE SMOOTH",
"364 359 OFFCURVE",
"377 356 OFFCURVE",
"394 351 CURVE",
"449 542 LINE",
"432 548 OFFCURVE",
"418 551 OFFCURVE",
"396 551 CURVE SMOOTH"
);
}
);
width = 399;
},
{
hints = (
{
horizontal = 1;
place = "{0, 21}";
target = up;
type = BottomGhost;
},
{
horizontal = 1;
place = "{509, 20}";
type = Stem;
},
{
place = "{81, 300}";
type = Stem;
},
{
horizontal = 1;
place = "{519, -20}";
target = down;
type = TopGhost;
},
{
horizontal = 1;
place = "{522, -20}";
target = down;
type = TopGhost;
}
);
layerId = "E8D61EB5-BB7B-4E1E-8596-56C59CE9CB81";
paths = (
{
closed = 1;
nodes = (
"249 529 OFFCURVE",
"195 475 OFFCURVE",
"153 371 CURVE",
"174 519 LINE",
"155 519 LINE",
"81 0 LINE",
"103 0 LINE",
"149 324 LINE",
"199 446 OFFCURVE",
"250 509 OFFCURVE",
"333 509 CURVE SMOOTH",
"349 509 OFFCURVE",
"365 506 OFFCURVE",
"375 503 CURVE",
"381 522 LINE",
"370 525 OFFCURVE",
"353 529 OFFCURVE",
"333 529 CURVE SMOOTH"
);
}
);
width = 362;
}
);
leftKerningGroup = uni0299;
note = r;
rightKerningGroup = r;
unicode = 0072;
},
{
glyphname = H;
lastChange = "2020-10-21 07:30:45 +0000";
layers = (
{
hints = (
{
horizontal = 1;
place = "{0, 21}";
target = up;
type = BottomGhost;
},
{
horizontal = 1;
place = "{534, -20}";
target = down;
type = TopGhost;
},
{
place = "{4, 268}";
type = Stem;
}
);
layerId = "FE8AE7D2-7E60-458F-B844-21CAF2BBDFF5";
paths = (
{
closed = 1;
nodes = (
"272 534 LINE",
"78 534 LINE",
"-28 -227 LINE",
"169 -207 LINE"
);
},
{
closed = 1;
nodes = (
"359 0 LINE",
"380 150 LINE",
"218 150 LINE",
"197 0 LINE"
);
}
);
width = 409;
},
{
hints = (
{
horizontal = 1;
place = "{0, 21}";
target = up;
type = BottomGhost;
},
{
horizontal = 1;
place = "{519, -20}";
target = down;
type = TopGhost;
},
{
place = "{81, 96}";
type = Stem;
}
);
layerId = "E8D61EB5-BB7B-4E1E-8596-56C59CE9CB81";
paths = (
{
closed = 1;
nodes = (
"177 519 LINE",
"155 519 LINE",
"52 -197 LINE",
"75 -194 LINE"
);
},
{
closed = 1;
nodes = (
"311 0 LINE",
"314 21 LINE",
"105 21 LINE",
"102 0 LINE"
);
}
);
width = 365;
}
);
leftKerningGroup = uni0299;
note = dotlessi;
rightKerningGroup = L;
unicode = 0048;
},
{
glyphname = i;
lastChange = "2020-10-21 07:34:07 +0000";
layers = (
{
hints = (
{
horizontal = 1;
place = "{0, 21}";
target = up;
type = BottomGhost;
},
{
horizontal = 1;
place = "{534, -20}";
target = down;
type = TopGhost;
},
{
horizontal = 1;
place = "{617, 212}";
type = Stem;
},
{
place = "{92, 220}";
type = Stem;
}
);
layerId = "FE8AE7D2-7E60-458F-B844-21CAF2BBDFF5";
paths = (
{
closed = 1;
nodes = (
"258 617 OFFCURVE",
"312 668 OFFCURVE",
"312 736 CURVE SMOOTH",
"312 790 OFFCURVE",
"274 829 OFFCURVE",
"215 829 CURVE SMOOTH",
"146 829 OFFCURVE",
"92 778 OFFCURVE",
"92 710 CURVE SMOOTH",
"92 656 OFFCURVE",
"130 617 OFFCURVE",
"189 617 CURVE SMOOTH"
);
},
{
closed = 1;
nodes = (
"272 534 LINE",
"78 534 LINE",
"4 0 LINE",
"198 0 LINE"
);
}
);
width = 276;
},
{
hints = (
{
horizontal = 1;
place = "{0, 21}";
target = up;
type = BottomGhost;
},
{
horizontal = 1;
place = "{519, -20}";
target = down;
type = TopGhost;
},
{
horizontal = 1;
place = "{685, 39}";
type = Stem;
},
{
place = "{172, 40}";
type = Stem;
}
);
layerId = "E8D61EB5-BB7B-4E1E-8596-56C59CE9CB81";
paths = (
{
closed = 1;
nodes = (
"203 685 OFFCURVE",
"212 695 OFFCURVE",
"212 706 CURVE SMOOTH",
"212 717 OFFCURVE",
"205 724 OFFCURVE",
"193 724 CURVE SMOOTH",
"180 724 OFFCURVE",
"172 714 OFFCURVE",
"172 702 CURVE SMOOTH",
"172 692 OFFCURVE",
"179 685 OFFCURVE",
"190 685 CURVE SMOOTH"
);
},
{
closed = 1;
nodes = (
"177 519 LINE",
"155 519 LINE",
"81 0 LINE",
"103 0 LINE"
);
}
);
width = 258;
}
);
leftKerningGroup = i;
note = i;
rightKerningGroup = i;
unicode = 0069;
},
{
glyphname = one;
lastChange = "2020-10-21 07:39:23 +0000";
layers = (
{
hints = (
{
horizontal = 1;
place = "{0, 21}";
target = up;
type = BottomGhost;
},
{
horizontal = 1;
place = "{571, -20}";
target = down;
type = TopGhost;
},
{
place = "{16, 432}";
type = Stem;
}
);
layerId = "FE8AE7D2-7E60-458F-B844-21CAF2BBDFF5";
paths = (
{
closed = 1;
nodes = (
"385 534 LINE",
"207 534 LINE",
"16 429 LINE",
"81 293 LINE",
"164 340 LINE",
"117 0 LINE",
"310 0 LINE"
);
}
);
width = 400;
},
{
hints = (
{
horizontal = 1;
place = "{0, 21}";
target = up;
type = BottomGhost;
},
{
horizontal = 1;
place = "{560, -20}";
target = down;
type = TopGhost;
},
{
place = "{73, 234}";
type = Stem;
},
{
horizontal = 1;
place = "{532, 28}";
type = Stem;
}
);
layerId = "E8D61EB5-BB7B-4E1E-8596-56C59CE9CB81";
paths = (
{
closed = 1;
nodes = (
"225 519 LINE",
"208 519 LINE",
"73 446 LINE",
"83 427 LINE",
"198 491 LINE",
"130 0 LINE",
"152 0 LINE"
);
}
);
width = 312;
}
);
leftKerningGroup = one.osf;
note = one.osf;
rightKerningGroup = one.osf;
unicode = 0031;
},
{
glyphname = V;
lastChange = "2020-09-29 06:45:22 +0000";
layers = (
{
hints = (
{
horizontal = 1;
place = "{0, 21}";
target = up;
type = BottomGhost;
},
{
horizontal = 1;
place = "{534, -20}";
target = down;
type = TopGhost;
},
{
horizontal = 1;
place = "{764, -20}";
target = down;
type = TopGhost;
},
{
place = "{-54, 595}";
type = Stem;
}
);
layerId = "FE8AE7D2-7E60-458F-B844-21CAF2BBDFF5";
paths = (
{
closed = 1;
nodes = (
"-54 0 LINE",
"149 0 LINE",
"285 412 LINE",
"296 0 LINE",
"498 0 LINE",
"423 534 LINE",
"354 533 LINE",
"390 595 OFFCURVE",
"440 620 OFFCURVE",
"541 631 CURVE",
"537 764 LINE",
"361 759 OFFCURVE",
"239 684 OFFCURVE",
"175 534 CURVE SMOOTH"
);
}
);
width = 520;
},
{
hints = (
{
horizontal = 1;
place = "{0, 21}";
target = up;
type = BottomGhost;
},
{
horizontal = 1;
place = "{519, -20}";
target = down;
type = TopGhost;
},
{
horizontal = 1;
place = "{736, -20}";
target = down;
type = TopGhost;
},
{
place = "{-14, 484}";
type = Stem;
},
{
horizontal = 1;
place = "{503, 16}";
type = Stem;
}
);
layerId = "E8D61EB5-BB7B-4E1E-8596-56C59CE9CB81";
paths = (
{
closed = 1;
nodes = (
"-14 0 LINE",
"11 0 LINE",
"253 503 LINE",
"361 0 LINE",
"384 0 LINE",
"271 519 LINE",
"260 518 LINE",
"322 644 OFFCURVE",
"362 688 OFFCURVE",
"470 719 CURVE",
"468 736 LINE",
"354 705 OFFCURVE",
"306 660 OFFCURVE",
"239 521 CURVE SMOOTH"
);
}
);
width = 444;
}
);
leftKerningGroup = uni028C;
note = uni028E;
rightKerningGroup = uni028C;
unicode = 0056;
},
{
glyphname = three;
lastChange = "2020-10-21 07:41:46 +0000";
layers = (
{
hints = (
{
horizontal = 1;
place = "{-20, 136}";
type = Stem;
},
{
horizontal = 1;
place = "{212, 120}";
type = Stem;
},
{
horizontal = 1;
place = "{422, 132}";
type = Stem;
},
{
place = "{268, 197}";
type = Stem;
},
{
place = "{255, 199}";
type = Stem;
}
);
layerId = "FE8AE7D2-7E60-458F-B844-21CAF2BBDFF5";
paths = (
{
closed = 1;
nodes = (
"179 554 OFFCURVE",
"106 534 OFFCURVE",
"40 492 CURVE",
"114 389 LINE",
"151 410 OFFCURVE",
"180 422 OFFCURVE",
"221 422 CURVE SMOOTH",
"251 422 OFFCURVE",
"268 411 OFFCURVE",
"268 384 CURVE SMOOTH",
"268 352 OFFCURVE",
"242 332 OFFCURVE",
"203 332 CURVE SMOOTH",
"138 332 LINE",
"110 212 LINE",
"200 212 LINE SMOOTH",
"246 212 OFFCURVE",
"255 191 OFFCURVE",
"255 168 CURVE SMOOTH",
"255 136 OFFCURVE",
"231 116 OFFCURVE",
"184 116 CURVE SMOOTH",
"142 116 OFFCURVE",
"109 125 OFFCURVE",
"65 153 CURVE",
"-26 47 LINE",
"27 5 OFFCURVE",
"97 -20 OFFCURVE",
"190 -20 CURVE SMOOTH",
"382 -20 OFFCURVE",
"454 69 OFFCURVE",
"454 160 CURVE SMOOTH",
"454 226 OFFCURVE",
"412 275 OFFCURVE",
"326 283 CURVE",
"416 299 OFFCURVE",
"465 350 OFFCURVE",
"465 417 CURVE SMOOTH",
"465 503 OFFCURVE",
"383 554 OFFCURVE",
"267 554 CURVE SMOOTH"
);
}
);
width = 486;
},
{
hints = (
{
horizontal = 1;
place = "{-10, 21}";
type = Stem;
},
{
horizontal = 1;
place = "{265, 19}";
type = Stem;
},
{
horizontal = 1;
place = "{509, 20}";
type = Stem;
},
{
place = "{366, 24}";
type = Stem;
},
{
place = "{358, 23}";
type = Stem;
}
);
layerId = "E8D61EB5-BB7B-4E1E-8596-56C59CE9CB81";
paths = (
{
closed = 1;
nodes = (
"183 529 OFFCURVE",
"132 510 OFFCURVE",
"78 477 CURVE",
"89 461 LINE",
"142 491 OFFCURVE",
"183 509 OFFCURVE",
"248 509 CURVE SMOOTH",
"326 509 OFFCURVE",
"366 468 OFFCURVE",
"366 408 CURVE SMOOTH",
"366 340 OFFCURVE",
"316 284 OFFCURVE",
"206 284 CURVE SMOOTH",
"153 284 LINE",
"148 265 LINE",
"205 265 LINE SMOOTH",
"304 265 OFFCURVE",
"358 228 OFFCURVE",
"358 155 CURVE SMOOTH",
"358 87 OFFCURVE",
"314 11 OFFCURVE",
"182 11 CURVE SMOOTH",
"104 11 OFFCURVE",
"58 39 OFFCURVE",
"23 74 CURVE",
"8 60 LINE",
"45 23 OFFCURVE",
"97 -10 OFFCURVE",
"183 -10 CURVE SMOOTH",
"327 -10 OFFCURVE",
"381 78 OFFCURVE",
"381 155 CURVE SMOOTH",
"381 231 OFFCURVE",
"329 269 OFFCURVE",
"254 275 CURVE",
"342 285 OFFCURVE",
"390 337 OFFCURVE",
"390 408 CURVE SMOOTH",
"390 481 OFFCURVE",
"336 529 OFFCURVE",
"248 529 CURVE SMOOTH"
);
}
);
width = 463;
}
);
leftKerningGroup = uni025C;
note = uni025C;
rightKerningGroup = uni0299;
unicode = 0033;
},
{
glyphname = N;
lastChange = "2020-10-21 08:12:01 +0000";
layers = (
{
hints = (
{
horizontal = 1;
place = "{0, 21}";
target = up;
type = BottomGhost;
},
{
horizontal = 1;
place = "{696, -20}";
target = down;
type = TopGhost;
},
{
place = "{6, 650}";
type = Stem;
},
{
horizontal = 1;
place = "{0, 169}";
type = Stem;
},
{
horizontal = 1;
place = "{527, 169}";
type = Stem;
}
);
layerId = "FE8AE7D2-7E60-458F-B844-21CAF2BBDFF5";
paths = (
{
closed = 1;
nodes = (
"574 554 LINE",
"395 534 LINE",
"382 416 LINE SMOOTH",
"378 381 OFFCURVE",
"372 344 OFFCURVE",
"364 245 CURVE",
"308 350 LINE",
"58 350 LINE",
"-26 -227 LINE",
"153 -207 LINE",
"169 -94 LINE SMOOTH",
"189 45 OFFCURVE",
"199 109 OFFCURVE",
"206 196 CURVE",
"259 96 LINE",
"509 96 LINE"
);
}
);
width = 563;
},
{
hints = (
{
horizontal = 1;
place = "{0, 25}";
type = Stem;
},
{
horizontal = 1;
place = "{658, 23}";
type = Stem;
},
{
place = "{86, 511}";
type = Stem;
}
);
layerId = "E8D61EB5-BB7B-4E1E-8596-56C59CE9CB81";
paths = (
{
closed = 1;
nodes = (
"226 523 LINE",
"203 519 LINE",
"178 328 LINE SMOOTH",
"177 323 OFFCURVE",
"176 309 OFFCURVE",
"173 287 CURVE",
"137 304 LINE",
"115 304 LINE",
"44 -197 LINE",
"67 -194 LINE",
"121 197 LINE SMOOTH",
"124 221 OFFCURVE",
"132 277 OFFCURVE",
"133 287 CURVE",
"168 271 LINE",
"190 271 LINE"
);
}
);
width = 298;
}
);
leftKerningGroup = p;
note = N;
rightKerningGroup = i;
unicode = 004E;
},
{
glyphname = l;
lastChange = "2020-10-21 07:45:08 +0000";
layers = (
{
hints = (
{
horizontal = 1;
place = "{-20, 21}";
target = up;
type = BottomGhost;
},
{
horizontal = 1;
place = "{764, -20}";
target = down;
type = TopGhost;
},
{
place = "{14.14, 281.86}";
type = Stem;
}
);
layerId = "FE8AE7D2-7E60-458F-B844-21CAF2BBDFF5";
paths = (
{
closed = 1;
nodes = (
"296 764 LINE",
"100 744 LINE",
"17 152 LINE SMOOTH",
"1 41 OFFCURVE",
"53 -20 OFFCURVE",
"154 -20 CURVE SMOOTH",
"195 -20 OFFCURVE",
"240 -12 OFFCURVE",
"270 1 CURVE",
"252 139 LINE",
"245 137 OFFCURVE",
"238 135 OFFCURVE",
"232 135 CURVE SMOOTH",
"219 135 OFFCURVE",
"209 142 OFFCURVE",
"213 167 CURVE SMOOTH"
);
}
);
width = 286;
},
{
hints = (
{
horizontal = 1;
place = "{-10, 21}";
type = Stem;
},
{
horizontal = 1;
place = "{736, -20}";
target = down;
type = TopGhost;
},
{
place = "{87, 21}";
type = Stem;
},
{
horizontal = 1;
place = "{0, 21}";
target = up;
type = BottomGhost;
}
);
layerId = "E8D61EB5-BB7B-4E1E-8596-56C59CE9CB81";
paths = (
{
closed = 1;
nodes = (
"201 736 LINE",
"179 733 LINE",
"87 75 LINE SMOOTH",
"79 18 OFFCURVE",
"103 -10 OFFCURVE",
"150 -10 CURVE SMOOTH",
"166 -10 OFFCURVE",
"184 -5 OFFCURVE",
"197 0 CURVE",
"192 19 LINE",
"180 15 OFFCURVE",
"165 11 OFFCURVE",
"151 11 CURVE SMOOTH",
"114 11 OFFCURVE",
"103 33 OFFCURVE",
"108 73 CURVE SMOOTH"
);
}
);
width = 276;
}
);
leftKerningGroup = l;
note = l;
rightKerningGroup = uni0269;
unicode = 006C;
},
{
glyphname = d;
lastChange = "2020-10-21 07:45:11 +0000";
layers = (
{
hints = (
{
horizontal = 1;
place = "{-20, 21}";
target = up;
type = BottomGhost;
},
{
horizontal = 1;
place = "{413, 141}";
type = Stem;
},
{
horizontal = 1;
place = "{764, -20}";
target = down;
type = TopGhost;
},
{
place = "{11, 200}";
type = Stem;
},
{
horizontal = 1;
place = "{0, 122}";
type = Stem;
}
);
layerId = "FE8AE7D2-7E60-458F-B844-21CAF2BBDFF5";
paths = (
{
closed = 1;
nodes = (
"419 764 LINE",
"384 511 LINE",
"358 537 OFFCURVE",
"319 554 OFFCURVE",
"271 554 CURVE SMOOTH",
"88 554 OFFCURVE",
"11 347 OFFCURVE",
"11 197 CURVE SMOOTH",
"11 61 OFFCURVE",
"65 -20 OFFCURVE",
"178 -20 CURVE SMOOTH",
"253 -20 OFFCURVE",
"303 25 OFFCURVE",
"335 69 CURVE",
"334 0 LINE",
"507 0 LINE",
"611 744 LINE"
);
},
{
closed = 1;
nodes = (
"336 413 OFFCURVE",
"352 406 OFFCURVE",
"367 391 CURVE",
"341 205 LINE",
"317 166 OFFCURVE",
"284 122 OFFCURVE",
"251 122 CURVE SMOOTH",
"230 122 OFFCURVE",
"211 133 OFFCURVE",
"211 199 CURVE SMOOTH",
"211 278 OFFCURVE",
"233 413 OFFCURVE",
"315 413 CURVE SMOOTH"
);
}
);
width = 585;
},
{
hints = (
{
horizontal = 1;
place = "{-10, 21}";
type = Stem;
},
{
horizontal = 1;
place = "{509, 20}";
type = Stem;
},
{
horizontal = 1;
place = "{736, -20}";
target = down;
type = TopGhost;
},
{
place = "{68, 22}";
type = Stem;
},
{
horizontal = 1;
place = "{0, 21}";
target = up;
type = BottomGhost;
},
{
horizontal = 1;
place = "{733, -20}";
target = down;
type = TopGhost;
}
);
layerId = "E8D61EB5-BB7B-4E1E-8596-56C59CE9CB81";
paths = (
{
closed = 1;
nodes = (
"496 736 LINE",
"455 445 LINE",
"434 485 OFFCURVE",
"392 529 OFFCURVE",
"311 529 CURVE SMOOTH",
"130 529 OFFCURVE",
"68 325 OFFCURVE",
"68 190 CURVE SMOOTH",
"68 64 OFFCURVE",
"128 -10 OFFCURVE",
"222 -10 CURVE SMOOTH",
"314 -10 OFFCURVE",
"371 59 OFFCURVE",
"411 130 CURVE",
"396 0 LINE",
"414 0 LINE",
"518 733 LINE"
);
},
{
closed = 1;
nodes = (
"388 509 OFFCURVE",
"429 465 OFFCURVE",
"451 416 CURVE",
"417 171 LINE",
"366 81 OFFCURVE",
"312 11 OFFCURVE",
"223 11 CURVE SMOOTH",
"141 11 OFFCURVE",
"90 76 OFFCURVE",
"90 191 CURVE SMOOTH",
"90 319 OFFCURVE",
"148 509 OFFCURVE",
"311 509 CURVE SMOOTH"
);
}
);
width = 569;
}
);
leftKerningGroup = uni0262;
note = d;
rightKerningGroup = d;
unicode = 0064;
},
{
glyphname = t;
lastChange = "2020-10-21 08:48:38 +0000";
layers = (
{
hints = (
{
horizontal = 1;
place = "{-20, 155}";
type = Stem;
},
{
horizontal = 1;
place = "{400, 134}";
type = Stem;
},
{
place = "{45.45, 198.55}";
type = Stem;
}
);
layerId = "FE8AE7D2-7E60-458F-B844-21CAF2BBDFF5";
paths = (
{
closed = 1;
nodes = (
"272 400 LINE",
"370 400 LINE",
"410 534 LINE",
"290 534 LINE",
"309 669 LINE",
"137 649 LINE",
"105 534 LINE",
"33 534 LINE",
"15 400 LINE",
"78 400 LINE",
"49 198 LINE SMOOTH",
"30 57 OFFCURVE",
"88 -20 OFFCURVE",
"211 -20 CURVE SMOOTH",
"259 -20 OFFCURVE",
"325 -6 OFFCURVE",
"373 22 CURVE",
"325 148 LINE",
"307 140 OFFCURVE",
"292 135 OFFCURVE",
"274 135 CURVE SMOOTH",
"250 135 OFFCURVE",
"237 148 OFFCURVE",
"244 198 CURVE SMOOTH"
);
}
);
width = 389;
},
{
hints = (
{
horizontal = 1;
place = "{-10, 20}";
type = Stem;
},
{
horizontal = 1;
place = "{499, 20}";
type = Stem;
},
{
place = "{89.84, 22}";
type = Stem;
}
);
layerId = "E8D61EB5-BB7B-4E1E-8596-56C59CE9CB81";
paths = (
{
closed = 1;
nodes = (
"168 499 LINE",
"308 499 LINE",
"314 519 LINE",
"170 519 LINE",
"189 652 LINE",
"172 650 LINE",
"148 519 LINE",
"62 519 LINE",
"60 499 LINE",
"145 499 LINE",
"92 117 LINE SMOOTH",
"80 34 OFFCURVE",
"119 -10 OFFCURVE",
"187 -10 CURVE SMOOTH",
"228 -10 OFFCURVE",
"262 3 OFFCURVE",
"292 20 CURVE",
"284 37 LINE",
"256 22 OFFCURVE",
"225 10 OFFCURVE",
"189 10 CURVE SMOOTH",
"128 10 OFFCURVE",
"104 48 OFFCURVE",
"114 118 CURVE SMOOTH"
);
}
);
width = 324;
}
);
leftKerningGroup = t;
note = t;
rightKerningGroup = t;
unicode = 0074;
},
{
glyphname = g;
lastChange = "2020-10-21 07:45:31 +0000";
layers = (
{
hints = (
{
horizontal = 1;
place = "{-227, 145}";
type = Stem;
},
{
horizontal = 1;
place = "{0, 21}";
target = up;
type = BottomGhost;
},
{
horizontal = 1;
place = "{418, 136}";
type = Stem;
},
{
place = "{12, 199}";
type = Stem;
},
{
horizontal = 1;
place = "{0, 144}";
type = Stem;
}
);
layerId = "FE8AE7D2-7E60-458F-B844-21CAF2BBDFF5";
paths = (
{
closed = 1;
nodes = (
"94 554 OFFCURVE",
"12 352 OFFCURVE",
"12 211 CURVE SMOOTH",
"12 87 OFFCURVE",
"71 0 OFFCURVE",
"189 0 CURVE SMOOTH",
"246 0 OFFCURVE",
"291 26 OFFCURVE",
"324 63 CURVE",
"317 21 LINE SMOOTH",
"304 -67 OFFCURVE",
"257 -82 OFFCURVE",
"206 -82 CURVE SMOOTH",
"166 -82 OFFCURVE",
"120 -72 OFFCURVE",
"60 -40 CURVE",
"-3 -164 LINE",
"59 -203 OFFCURVE",
"140 -227 OFFCURVE",
"207 -227 CURVE SMOOTH",
"401 -227 OFFCURVE",
"482 -139 OFFCURVE",
"510 58 CURVE SMOOTH",
"571 491 LINE",
"497 535 OFFCURVE",
"410 554 OFFCURVE",
"335 554 CURVE SMOOTH"
);
},
{
closed = 1;
nodes = (
"343 418 OFFCURVE",
"354 416 OFFCURVE",
"369 412 CURVE",
"337 202 LINE",
"313 166 OFFCURVE",
"285 144 OFFCURVE",
"257 144 CURVE SMOOTH",
"235 144 OFFCURVE",
"211 155 OFFCURVE",
"211 218 CURVE SMOOTH",
"211 292 OFFCURVE",
"238 418 OFFCURVE",
"328 418 CURVE SMOOTH"
);
}
);
width = 573;
},
{
hints = (
{
horizontal = 1;
place = "{-197, 20}";
type = Stem;
},
{
horizontal = 1;
place = "{0, 21}";
type = Stem;
},
{
horizontal = 1;
place = "{510, 19}";
type = Stem;
},
{
place = "{69, 23}";
type = Stem;
}
);
layerId = "E8D61EB5-BB7B-4E1E-8596-56C59CE9CB81";
paths = (
{
closed = 1;
nodes = (
"137 529 OFFCURVE",
"68 334 OFFCURVE",
"69 200 CURVE SMOOTH",
"70 80 OFFCURVE",
"129 0 OFFCURVE",
"229 0 CURVE SMOOTH",
"297 0 OFFCURVE",
"357 41 OFFCURVE",
"398 108 CURVE",
"381 -7 LINE SMOOTH",
"363 -134 OFFCURVE",
"292 -177 OFFCURVE",
"210 -177 CURVE SMOOTH",
"144 -177 OFFCURVE",
"96 -156 OFFCURVE",
"55 -133 CURVE",
"46 -150 LINE",
"85 -173 OFFCURVE",
"141 -197 OFFCURVE",
"210 -197 CURVE SMOOTH",
"303 -197 OFFCURVE",
"382 -151 OFFCURVE",
"403 -5 CURVE SMOOTH",
"474 488 LINE",
"435 511 OFFCURVE",
"394 529 OFFCURVE",
"326 529 CURVE SMOOTH"
);
},
{
closed = 1;
nodes = (
"379 510 OFFCURVE",
"419 497 OFFCURVE",
"451 477 CURVE",
"403 144 LINE",
"357 64 OFFCURVE",
"299 21 OFFCURVE",
"229 21 CURVE SMOOTH",
"142 21 OFFCURVE",
"92 91 OFFCURVE",
"92 201 CURVE SMOOTH",
"91 325 OFFCURVE",
"153 510 OFFCURVE",
"326 510 CURVE SMOOTH"
);
}
);
width = 555;
}
);
leftKerningGroup = uni0262;
note = g;
rightKerningGroup = g;
unicode = 0067;
},
{
glyphname = k;
lastChange = "2020-10-21 07:44:59 +0000";
layers = (
{
hints = (
{
horizontal = 1;
place = "{0, 21}";
target = up;
type = BottomGhost;
},
{
horizontal = 1;
place = "{554, -20}";
target = down;
type = TopGhost;
},
{
horizontal = 1;
place = "{764, -20}";
target = down;
type = TopGhost;
},
{
place = "{3, 586}";
type = Stem;
},
{
horizontal = 1;
place = "{421, 133}";
type = Stem;
},
{
place = "{393, 196}";
type = Stem;
}
);
layerId = "FE8AE7D2-7E60-458F-B844-21CAF2BBDFF5";
paths = (
{
closed = 1;
nodes = (
"304 764 LINE",
"107 744 LINE",
"3 0 LINE",
"198 0 LINE",
"244 337 LINE",
"287 398 OFFCURVE",
"323 421 OFFCURVE",
"355 421 CURVE SMOOTH",
"379 421 OFFCURVE",
"393 409 OFFCURVE",
"393 385 CURVE SMOOTH",
"393 340 OFFCURVE",
"364 295 OFFCURVE",
"252 256 CURVE",
"330 0 LINE",
"542 0 LINE",
"456 238 LINE",
"546 280 OFFCURVE",
"589 341 OFFCURVE",
"589 423 CURVE SMOOTH",
"589 501 OFFCURVE",
"533 554 OFFCURVE",
"437 554 CURVE SMOOTH",
"374 554 OFFCURVE",
"319 533 OFFCURVE",
"264 478 CURVE"
);
}
);
width = 579;
},
{
hints = (
{
horizontal = 1;
place = "{0, 21}";
target = up;
type = BottomGhost;
},
{
horizontal = 1;
place = "{510, 19}";
type = Stem;
},
{
horizontal = 1;
place = "{736, -20}";
target = down;
type = TopGhost;
},
{
place = "{455, 22}";
type = Stem;
}
);
layerId = "E8D61EB5-BB7B-4E1E-8596-56C59CE9CB81";
paths = (
{
closed = 1;
nodes = (
"207 736 LINE",
"185 733 LINE",
"81 0 LINE",
"103 0 LINE",
"145 298 LINE",
"206 428 OFFCURVE",
"279 510 OFFCURVE",
"366 510 CURVE SMOOTH",
"429 510 OFFCURVE",
"455 474 OFFCURVE",
"455 424 CURVE SMOOTH",
"455 341 OFFCURVE",
"386 284 OFFCURVE",
"267 250 CURVE",
"392 0 LINE",
"416 0 LINE",
"295 240 LINE",
"410 277 OFFCURVE",
"477 337 OFFCURVE",
"477 424 CURVE SMOOTH",
"477 490 OFFCURVE",
"435 529 OFFCURVE",
"367 529 CURVE SMOOTH",
"289 529 OFFCURVE",
"213 473 OFFCURVE",
"152 347 CURVE"
);
}
);
width = 505;
}
);
leftKerningGroup = b;
note = k;
rightKerningGroup = k;
unicode = 006B;
},
{
glyphname = h;
lastChange = "2020-10-21 07:45:36 +0000";
layers = (
{
hints = (
{
horizontal = 1;
place = "{0, 21}";
target = up;
type = BottomGhost;
},
{
horizontal = 1;
place = "{554, -20}";
target = down;
type = TopGhost;
},
{
horizontal = 1;
place = "{764, -20}";
target = down;
type = TopGhost;
},
{
place = "{340, 203.47}";
type = Stem;
}
);
layerId = "FE8AE7D2-7E60-458F-B844-21CAF2BBDFF5";
paths = (
{
closed = 1;
nodes = (
"360 554 OFFCURVE",
"294 512 OFFCURVE",
"260 451 CURVE",
"303 764 LINE",
"107 744 LINE",
"3 0 LINE",
"197 0 LINE",
"236 278 LINE",
"271 353 OFFCURVE",
"300 393 OFFCURVE",
"324 393 CURVE SMOOTH",
"337 393 OFFCURVE",
"346 383 OFFCURVE",
"340 341 CURVE SMOOTH",
"292 0 LINE",
"486 0 LINE",
"541 393 LINE SMOOTH",
"555 495 OFFCURVE",
"509 554 OFFCURVE",
"426 554 CURVE SMOOTH"
);
}
);
width = 557;
},
{
hints = (
{
horizontal = 1;
place = "{0, 21}";
target = up;
type = BottomGhost;
},
{
horizontal = 1;
place = "{510, 19}";
type = Stem;
},
{
horizontal = 1;
place = "{736, -20}";
target = down;
type = TopGhost;
},
{
place = "{464.84, 22}";
type = Stem;
}
);
layerId = "E8D61EB5-BB7B-4E1E-8596-56C59CE9CB81";
paths = (
{
closed = 1;
nodes = (
"287 529 OFFCURVE",
"211 472 OFFCURVE",
"154 359 CURVE",
"207 736 LINE",
"185 733 LINE",
"81 0 LINE",
"103 0 LINE",
"148 315 LINE",
"211 437 OFFCURVE",
"280 510 OFFCURVE",
"366 510 CURVE SMOOTH",
"445 510 OFFCURVE",
"475 462 OFFCURVE",
"462 367 CURVE SMOOTH",
"410 0 LINE",
"432 0 LINE",
"484 369 LINE SMOOTH",
"498 470 OFFCURVE",
"461 529 OFFCURVE",
"369 529 CURVE SMOOTH"
);
}
);
width = 581;
}
);
leftKerningGroup = b;
note = h;
rightKerningGroup = uni02A9;
unicode = 0068;
},
{
glyphname = four;
lastChange = "2020-10-21 08:21:16 +0000";
layers = (
{
hints = (
{
horizontal = 1;
place = "{22, 143}";
type = Stem;
},
{
horizontal = 1;
place = "{587, -20}";
target = down;
type = TopGhost;
},
{
place = "{-26, 565}";
type = Stem;
}
);
layerId = "FE8AE7D2-7E60-458F-B844-21CAF2BBDFF5";
paths = (
{
closed = 1;
nodes = (
"542 143 LINE",
"474 143 LINE",
"495 294 LINE",
"333 294 LINE",
"291 143 LINE",
"198 143 LINE",
"398 505 LINE",
"237 565 LINE",
"-6 126 LINE",
"-23 0 LINE",
"268 0 LINE",
"237 -227 LINE",
"424 -209 LINE",
"454 0 LINE",
"522 0 LINE"
);
}
);
width = 575;
},
{
hints = (
{
horizontal = 1;
place = "{55, 20}";
type = Stem;
},
{
horizontal = 1;
place = "{566, -20}";
target = down;
type = TopGhost;
},
{
place = "{3, 424}";
type = Stem;
}
);
layerId = "E8D61EB5-BB7B-4E1E-8596-56C59CE9CB81";
paths = (
{
closed = 1;
nodes = (
"419 20 LINE",
"326 20 LINE",
"356 231 LINE",
"337 231 LINE",
"305 20 LINE",
"21 20 LINE",
"302 519 LINE",
"282 528 LINE",
"-4 18 LINE",
"-5 0 LINE",
"302 0 LINE",
"274 -197 LINE",
"296 -194 LINE",
"323 0 LINE",
"416 0 LINE"
);
}
);
width = 459;
}
);
leftKerningGroup = four.osf;
note = four.osf;
rightKerningGroup = four.osf;
unicode = 0034;
},
{
glyphname = eight;
lastChange = "2020-10-21 08:27:37 +0000";
layers = (
{
hints = (
{
horizontal = 1;
place = "{-20, 119}";
type = Stem;
},
{
horizontal = 1;
place = "{478, 113}";
type = Stem;
},
{
place = "{73, 180}";
type = Stem;
},
{
place = "{340, 190}";
type = Stem;
},
{
place = "{370, 180}";
type = Stem;
},
{
place = "{0, 190}";
type = Stem;
}
);
layerId = "FE8AE7D2-7E60-458F-B844-21CAF2BBDFF5";
paths = (
{
closed = 1;
nodes = (
"458 298 OFFCURVE",
"512 342 OFFCURVE",
"512 406 CURVE SMOOTH",
"512 483 OFFCURVE",
"439 554 OFFCURVE",
"302 554 CURVE SMOOTH",
"127 554 OFFCURVE",
"64 448 OFFCURVE",
"64 375 CURVE SMOOTH",
"64 329 OFFCURVE",
"91 294 OFFCURVE",
"121 270 CURVE",
"28 235 OFFCURVE",
"-2 178 OFFCURVE",
"-2 124 CURVE SMOOTH",
"-2 35 OFFCURVE",
"77 -19 OFFCURVE",
"233 -19 CURVE SMOOTH",
"420 -19 OFFCURVE",
"494 59 OFFCURVE",
"494 148 CURVE SMOOTH",
"494 212 OFFCURVE",
"455 248 OFFCURVE",
"407 278 CURVE"
);
},
{
closed = 1;
nodes = (
"322 441 OFFCURVE",
"332 413 OFFCURVE",
"332 392 CURVE SMOOTH",
"332 371 OFFCURVE",
"320 355 OFFCURVE",
"285 339 CURVE",
"279 343 LINE SMOOTH",
"250 362 OFFCURVE",
"244 375 OFFCURVE",
"244 386 CURVE SMOOTH",
"244 411 OFFCURVE",
"259 441 OFFCURVE",
"292 441 CURVE SMOOTH"
);
},
{
closed = 1;
nodes = (
"209 99 OFFCURVE",
"188 116 OFFCURVE",
"188 149 CURVE SMOOTH",
"188 176 OFFCURVE",
"205 201 OFFCURVE",
"234 214 CURVE",
"260 201 LINE SMOOTH",
"296 183 OFFCURVE",
"304 172 OFFCURVE",
"304 152 CURVE SMOOTH",
"304 119 OFFCURVE",
"291 99 OFFCURVE",
"248 99 CURVE SMOOTH"
);
}
);
width = 529;
},
{
hints = (
{
horizontal = 1;
place = "{-10, 21}";
type = Stem;
},
{
horizontal = 1;
place = "{551, 20}";
type = Stem;
},
{
place = "{45, 23}";
type = Stem;
},
{
place = "{120, 22}";
type = Stem;
},
{
place = "{421, 23}";
type = Stem;
},
{
place = "{443, 22}";
type = Stem;
}
);
layerId = "E8D61EB5-BB7B-4E1E-8596-56C59CE9CB81";
paths = (
{
closed = 1;
nodes = (
"399 303 OFFCURVE",
"423 347 OFFCURVE",
"423 403 CURVE SMOOTH",
"423 476 OFFCURVE",
"360 531 OFFCURVE",
"276 531 CURVE SMOOTH",
"182 531 OFFCURVE",
"110 462 OFFCURVE",
"110 390 CURVE SMOOTH",
"110 330 OFFCURVE",
"146 301 OFFCURVE",
"206 276 CURVE",
"80 236 OFFCURVE",
"43 177 OFFCURVE",
"43 117 CURVE SMOOTH",
"43 40 OFFCURVE",
"110 -9 OFFCURVE",
"215 -9 CURVE SMOOTH",
"326 -9 OFFCURVE",
"404 48 OFFCURVE",
"404 136 CURVE SMOOTH",
"404 192 OFFCURVE",
"373 227 OFFCURVE",
"288 260 CURVE"
);
},
{
closed = 1;
nodes = (
"351 512 OFFCURVE",
"401 464 OFFCURVE",
"401 405 CURVE SMOOTH",
"401 350 OFFCURVE",
"377 311 OFFCURVE",
"270 269 CURVE",
"230 285 LINE SMOOTH",
"164 311 OFFCURVE",
"132 336 OFFCURVE",
"132 390 CURVE SMOOTH",
"132 452 OFFCURVE",
"194 512 OFFCURVE",
"277 512 CURVE SMOOTH"
);
},
{
closed = 1;
nodes = (
"128 11 OFFCURVE",
"66 45 OFFCURVE",
"66 120 CURVE SMOOTH",
"66 170 OFFCURVE",
"92 224 OFFCURVE",
"226 267 CURVE",
"261 252 LINE SMOOTH",
"353 213 OFFCURVE",
"381 193 OFFCURVE",
"381 136 CURVE SMOOTH",
"381 53 OFFCURVE",
"307 11 OFFCURVE",
"215 11 CURVE SMOOTH"
);
}
);
width = 484;
}
);
leftKerningGroup = eight.loclIWR;
note = eight.loclIWR;
rightKerningGroup = eight.loclIWR;
unicode = 0038;
},
{
glyphname = five;
lastChange = "2020-10-21 08:31:10 +0000";
layers = (
{
hints = (
{
horizontal = 1;
place = "{563, 21}";
target = up;
type = BottomGhost;
},
{
horizontal = 1;
place = "{-133, -20}";
target = down;
type = TopGhost;
},
{
place = "{557, -87}";
type = Stem;
},
{
horizontal = 1;
place = "{563, 394}";
type = Stem;
},
{
horizontal = 1;
place = "{36, 394}";
type = Stem;
}
);
layerId = "FE8AE7D2-7E60-458F-B844-21CAF2BBDFF5";
paths = (
{
closed = 1;
nodes = (
"270 96 LINE",
"352 196 LINE",
"333 105 OFFCURVE",
"324 39 OFFCURVE",
"305 -94 CURVE SMOOTH",
"286 -227 LINE",
"465 -207 LINE",
"544 350 LINE",
"294 350 LINE",
"208 245 LINE",
"229 347 OFFCURVE",
"232 377 OFFCURVE",
"239 416 CURVE SMOOTH",
"260 534 LINE",
"84 534 LINE",
"20 96 LINE"
);
}
);
width = 565;
},
{
hints = (
{
horizontal = 1;
place = "{298, 273}";
type = Stem;
},
{
horizontal = 1;
place = "{-360, 275}";
type = Stem;
},
{
place = "{212, -213}";
type = Stem;
}
);
layerId = "E8D61EB5-BB7B-4E1E-8596-56C59CE9CB81";
paths = (
{
closed = 1;
nodes = (
"133 271 LINE",
"173 287 LINE",
"171 277 OFFCURVE",
"163 224 OFFCURVE",
"159 197 CURVE SMOOTH",
"100 -197 LINE",
"122 -195 LINE",
"196 304 LINE",
"174 304 LINE",
"133 287 LINE",
"136 309 OFFCURVE",
"139 323 OFFCURVE",
"140 328 CURVE SMOOTH",
"170 519 LINE",
"147 519 LINE",
"111 271 LINE"
);
}
);
width = 299;
}
);
leftKerningGroup = i;
note = N;
rightKerningGroup = q;
unicode = 0035;
},
{
glyphname = v;
lastChange = "2020-10-21 07:31:59 +0000";
layers = (
{
hints = (
{
horizontal = 1;
place = "{0, 21}";
target = up;
type = BottomGhost;
},
{
horizontal = 1;
place = "{534, -20}";
target = down;
type = TopGhost;
},
{
place = "{22, 546}";
type = Stem;
},
{
horizontal = 1;
place = "{0, 143}";
type = Stem;
}
);
layerId = "FE8AE7D2-7E60-458F-B844-21CAF2BBDFF5";
paths = (
{
closed = 1;
nodes = (
"568 534 LINE",
"366 534 LINE",
"245 143 LINE",
"230 534 LINE",
"22 534 LINE",
"108 0 LINE",
"341 0 LINE"
);
}
);
width = 514;
},
{
hints = (
{
horizontal = 1;
place = "{0, 19}";
type = Stem;
},
{
horizontal = 1;
place = "{519, -20}";
target = down;
type = TopGhost;
},
{
place = "{60, 401}";
type = Stem;
}
);
layerId = "E8D61EB5-BB7B-4E1E-8596-56C59CE9CB81";
paths = (
{
closed = 1;
nodes = (
"461 519 LINE",
"435 519 LINE",
"193 19 LINE",
"83 519 LINE",
"60 519 LINE",
"177 0 LINE",
"206 0 LINE"
);
}
);
width = 447;
}
);
leftKerningGroup = uni028F;
note = v;
rightKerningGroup = uni028F;
unicode = 0076;
},
{
glyphname = F;
lastChange = "2020-10-21 08:36:45 +0000";
layers = (
{
hints = (
{
horizontal = 1;
origin = "{0, 8}";
target = up;
type = BottomGhost;
},
{
horizontal = 1;
origin = "{0, 5}";
target = "{0, 4}";
type = Stem;
},
{
horizontal = 1;
origin = "{0, 0}";
target = "{0, 1}";
type = Stem;
},
{
horizontal = 1;
origin = "{0, 7}";
target = up;
type = BottomGhost;
},
{
origin = "{0, 7}";
target = "{0, 8}";
type = Stem;
}
);
layerId = "FE8AE7D2-7E60-458F-B844-21CAF2BBDFF5";
paths = (
{
closed = 1;
nodes = (
"56 534 LINE",
"38 402 LINE",
"263 402 LINE",
"237 215 LINE",
"48 215 LINE",
"29 82 LINE",
"218 82 LINE",
"174 -227 LINE",
"375 -207 LINE",
"480 534 LINE"
);
}
);
width = 485;
},
{
hints = (
{
horizontal = 1;
origin = "{0, 8}";
target = up;
type = BottomGhost;
},
{
horizontal = 1;
origin = "{0, 4}";
target = "{0, 5}";
type = Stem;
},
{
horizontal = 1;
origin = "{0, 0}";
target = "{0, 1}";
type = Stem;
},
{
horizontal = 1;
origin = "{0, 7}";
target = up;
type = BottomGhost;
},
{
origin = "{0, 7}";
target = "{0, 8}";
type = Stem;
}
);
layerId = "E8D61EB5-BB7B-4E1E-8596-56C59CE9CB81";
paths = (
{
closed = 1;
nodes = (
"77 519 LINE",
"74 498 LINE",
"366 498 LINE",
"321 179 LINE",
"71 179 LINE",
"68 158 LINE",
"318 158 LINE",
"267 -204 LINE",
"291 -192 LINE",
"392 519 LINE"
);
}
);
width = 468;
}
);
leftKerningGroup = uni018E;
note = F;
rightKerningGroup = q;
unicode = 0046;
},
{
glyphname = seven;
lastChange = "2020-10-21 08:43:39 +0000";
layers = (
{
hints = (
{
horizontal = 1;
place = "{605, 605}";
type = Stem;
},
{
horizontal = 1;
place = "{605, -20}";
target = down;
type = TopGhost;
},
{
place = "{605, 605}";
type = Stem;
}
);
layerId = "FE8AE7D2-7E60-458F-B844-21CAF2BBDFF5";
paths = (
{
closed = 1;
nodes = (
"196 -227 LINE",
"401 -207 LINE",
"505 534 LINE",
"57 534 LINE",
"33 376 LINE",
"281 376 LINE"
);
}
);
width = 511;
},
{
hints = (
{
horizontal = 1;
place = "{567, 567}";
type = Stem;
},
{
horizontal = 1;
place = "{567, -20}";
target = down;
type = TopGhost;
},
{
place = "{567, 567}";
type = Stem;
}
);
layerId = "E8D61EB5-BB7B-4E1E-8596-56C59CE9CB81";
paths = (
{
closed = 1;
nodes = (
"262 -197 LINE",
"285 -194 LINE",
"386 519 LINE",
"77 519 LINE",
"74 497 LINE",
"360 497 LINE"
);
}
);
width = 462;
}
);
leftKerningGroup = uni0442;
note = L;
rightKerningGroup = q;
unicode = 0037;
},
{
glyphname = B;
lastChange = "2020-10-21 08:47:15 +0000";
layers = (
{
hints = (
{
horizontal = 1;
place = "{0, 145}";
type = Stem;
},
{
horizontal = 1;
place = "{297, 130}";
type = Stem;
},
{
horizontal = 1;
place = "{555, 141}";
type = Stem;
},
{
place = "{382, 207}";
type = Stem;
},
{
place = "{395, 209}";
type = Stem;
}
);
layerId = "FE8AE7D2-7E60-458F-B844-21CAF2BBDFF5";
paths = (
{
closed = 1;
nodes = (
"501 203 OFFCURVE",
"578 249 OFFCURVE",
"578 351 CURVE SMOOTH",
"578 473 OFFCURVE",
"468 534 OFFCURVE",
"291 534 CURVE SMOOTH",
"80 534 LINE",
"-23 -207 LINE",
"217 -207 LINE SMOOTH",
"476 -207 OFFCURVE",
"560 -107 OFFCURVE",
"560 14 CURVE SMOOTH",
"560 114 OFFCURVE",
"497 170 OFFCURVE",
"427 184 CURVE"
);
},
{
closed = 1;
nodes = (
"261 393 LINE",
"292 393 LINE SMOOTH",
"351 393 OFFCURVE",
"369 356 OFFCURVE",
"369 325 CURVE SMOOTH",
"369 290 OFFCURVE",
"360 243 OFFCURVE",
"275 243 CURVE SMOOTH",
"240 243 LINE"
);
},
{
closed = 1;
nodes = (
"198 -62 LINE",
"222 113 LINE",
"271 113 LINE SMOOTH",
"326 113 OFFCURVE",
"353 72 OFFCURVE",
"353 32 CURVE SMOOTH",
"353 -21 OFFCURVE",
"333 -62 OFFCURVE",
"237 -62 CURVE SMOOTH"
);
}
);
width = 610;
},
{
hints = (
{
horizontal = 1;
place = "{0, 21}";
type = Stem;
},
{
horizontal = 1;
place = "{350, 20}";
type = Stem;
},
{
horizontal = 1;
place = "{660, 21}";
type = Stem;
},
{
place = "{494, 23}";
type = Stem;
},
{
place = "{505, 22}";
type = Stem;
}
);
layerId = "E8D61EB5-BB7B-4E1E-8596-56C59CE9CB81";
paths = (
{
closed = 1;
nodes = (
"439 195 OFFCURVE",
"502 262 OFFCURVE",
"502 358 CURVE SMOOTH",
"502 455 OFFCURVE",
"431 519 OFFCURVE",
"306 519 CURVE SMOOTH",
"159 519 LINE",
"59 -192 LINE",
"236 -192 LINE SMOOTH",
"432 -192 OFFCURVE",
"490 -77 OFFCURVE",
"490 23 CURVE SMOOTH",
"490 117 OFFCURVE",
"428 176 OFFCURVE",
"346 183 CURVE"
);
},
{
closed = 1;
nodes = (
"179 498 LINE",
"308 498 LINE SMOOTH",
"418 498 OFFCURVE",
"480 442 OFFCURVE",
"480 357 CURVE SMOOTH",
"480 265 OFFCURVE",
"412 192 OFFCURVE",
"302 192 CURVE SMOOTH",
"136 192 LINE"
);
},
{
closed = 1;
nodes = (
"85 -171 LINE",
"133 172 LINE",
"306 172 LINE SMOOTH",
"404 172 OFFCURVE",
"467 113 OFFCURVE",
"467 24 CURVE SMOOTH",
"467 -69 OFFCURVE",
"416 -171 OFFCURVE",
"239 -171 CURVE SMOOTH"
);
}
);
width = 587;
}
);
leftKerningGroup = p;
note = B;
rightKerningGroup = B;
unicode = 0042;
},
{
glyphname = c;
lastChange = "2020-10-21 07:17:05 +0000";
layers = (
{
hints = (
{
horizontal = 1;
place = "{-20, 153}";
type = Stem;
},
{
horizontal = 1;
place = "{405, 149}";
type = Stem;
},
{
place = "{12, 203}";
type = Stem;
}
);
layerId = "FE8AE7D2-7E60-458F-B844-21CAF2BBDFF5";
paths = (
{
closed = 1;
nodes = (
"99 554 OFFCURVE",
"12 355 OFFCURVE",
"12 217 CURVE SMOOTH",
"12 74 OFFCURVE",
"101 -20 OFFCURVE",
"256 -20 CURVE SMOOTH",
"334 -20 OFFCURVE",
"395 5 OFFCURVE",
"449 44 CURVE",
"379 168 LINE",
"342 145 OFFCURVE",
"317 133 OFFCURVE",
"284 133 CURVE SMOOTH",
"244 133 OFFCURVE",
"215 148 OFFCURVE",
"215 212 CURVE SMOOTH",
"215 291 OFFCURVE",
"235 405 OFFCURVE",
"328 405 CURVE SMOOTH",
"358 405 OFFCURVE",
"386 395 OFFCURVE",
"414 369 CURVE",
"507 480 LINE",
"462 527 OFFCURVE",
"400 554 OFFCURVE",
"327 554 CURVE SMOOTH"
);
}
);
width = 469;
},
{
hints = (
{
horizontal = 1;
place = "{-10, 21}";
type = Stem;
},
{
horizontal = 1;
place = "{509, 20}";
type = Stem;
},
{
place = "{69, 23}";
type = Stem;
}
);
layerId = "E8D61EB5-BB7B-4E1E-8596-56C59CE9CB81";
paths = (
{
closed = 1;
nodes = (
"141 529 OFFCURVE",
"69 341 OFFCURVE",
"69 197 CURVE SMOOTH",
"69 63 OFFCURVE",
"140 -10 OFFCURVE",
"246 -10 CURVE SMOOTH",
"305 -10 OFFCURVE",
"353 11 OFFCURVE",
"394 43 CURVE",
"382 59 LINE",
"344 30 OFFCURVE",
"301 11 OFFCURVE",
"247 11 CURVE SMOOTH",
"153 11 OFFCURVE",
"92 73 OFFCURVE",
"92 197 CURVE SMOOTH",
"92 332 OFFCURVE",
"156 509 OFFCURVE",
"319 509 CURVE SMOOTH",
"370 509 OFFCURVE",
"406 493 OFFCURVE",
"435 465 CURVE",
"449 479 LINE",
"415 513 OFFCURVE",
"374 529 OFFCURVE",
"320 529 CURVE SMOOTH"
);
}
);
width = 464;
}
);
leftKerningGroup = uni0262;
note = c;
rightKerningGroup = c;
unicode = 0063;
},
{
glyphname = f;
lastChange = "2020-10-21 07:45:56 +0000";
layers = (
{
hints = (
{
horizontal = 1;
place = "{-227, 21}";
target = up;
type = BottomGhost;
},
{
horizontal = 1;
place = "{400, 134}";
type = Stem;
},
{
horizontal = 1;
place = "{622, 142}";
type = Stem;
},
{
place = "{-91, 541}";
type = Stem;
},
{
horizontal = 1;
place = "{748, -20}";
target = down;
type = TopGhost;
}
);
layerId = "FE8AE7D2-7E60-458F-B844-21CAF2BBDFF5";
paths = (
{
closed = 1;
nodes = (
"379 622 OFFCURVE",
"391 621 OFFCURVE",
"403 618 CURVE",
"450 748 LINE",
"421 758 OFFCURVE",
"388 764 OFFCURVE",
"350 764 CURVE SMOOTH",
"205 764 OFFCURVE",
"123 677 OFFCURVE",
"108 566 CURVE SMOOTH",
"104 534 LINE",
"33 534 LINE",
"15 400 LINE",
"85 400 LINE",
"39 66 LINE SMOOTH",
"27 -21 OFFCURVE",
"-13 -59 OFFCURVE",
"-91 -86 CURVE",
"-44 -227 LINE",
"91 -184 OFFCURVE",
"208 -112 OFFCURVE",
"234 76 CURVE SMOOTH",
"279 400 LINE",
"336 400 LINE",
"376 534 LINE",
"298 534 LINE",
"301 554 LINE SMOOTH",
"308 604 OFFCURVE",
"331 622 OFFCURVE",
"369 622 CURVE SMOOTH"
);
}
);
width = 357;
},
{
hints = (
{
horizontal = 1;
place = "{-195, 21}";
target = up;
type = BottomGhost;
},
{
horizontal = 1;
place = "{499, 20}";
type = Stem;
},
{
horizontal = 1;
place = "{717, 20}";
type = Stem;
},
{
place = "{-39, 424}";
type = Stem;
}
);
layerId = "E8D61EB5-BB7B-4E1E-8596-56C59CE9CB81";
paths = (
{
closed = 1;
nodes = (
"337 717 OFFCURVE",
"357 712 OFFCURVE",
"378 704 CURVE",
"385 722 LINE",
"362 732 OFFCURVE",
"338 737 OFFCURVE",
"309 737 CURVE SMOOTH",
"237 737 OFFCURVE",
"182 695 OFFCURVE",
"171 617 CURVE SMOOTH",
"157 519 LINE",
"67 519 LINE",
"65 499 LINE",
"155 499 LINE",
"86 7 LINE SMOOTH",
"69 -110 OFFCURVE",
"35 -141 OFFCURVE",
"-39 -177 CURVE",
"-32 -195 LINE",
"51 -155 OFFCURVE",
"90 -123 OFFCURVE",
"107 5 CURVE SMOOTH",
"176 499 LINE",
"313 499 LINE",
"319 519 LINE",
"179 519 LINE",
"192 614 LINE SMOOTH",
"202 686 OFFCURVE",
"249 717 OFFCURVE",
"309 717 CURVE SMOOTH"
);
}
);
width = 307;
}
);
leftKerningGroup = f;
note = f_short;
rightKerningGroup = f;
unicode = 0066;
},
{
glyphname = u;
lastChange = "2020-10-21 07:46:04 +0000";
layers = (
{
hints = (
{
horizontal = 1;
place = "{-20, 21}";
target = up;
type = BottomGhost;
},
{
horizontal = 1;
place = "{534, -20}";
target = down;
type = TopGhost;
},
{
place = "{14.2, 202.8}";
type = Stem;
},
{
horizontal = 1;
place = "{0, 21}";
target = up;
type = BottomGhost;
},
{
place = "{14.2, 533.8}";
type = Stem;
},
{
horizontal = 1;
place = "{0, 138}";
type = Stem;
}
);
layerId = "FE8AE7D2-7E60-458F-B844-21CAF2BBDFF5";
paths = (
{
closed = 1;
nodes = (
"206 -20 OFFCURVE",
"263 15 OFFCURVE",
"307 67 CURVE",
"305 0 LINE",
"474 0 LINE",
"548 534 LINE",
"354 534 LINE",
"307 197 LINE",
"285 163 OFFCURVE",
"260 138 OFFCURVE",
"240 138 CURVE SMOOTH",
"223 138 OFFCURVE",
"211 147 OFFCURVE",
"217 189 CURVE SMOOTH",
"265 534 LINE",
"71 534 LINE",
"17 151 LINE SMOOTH",
"3 49 OFFCURVE",
"41 -20 OFFCURVE",
"142 -20 CURVE SMOOTH"
);
}
);
width = 552;
},
{
hints = (
{
horizontal = 1;
place = "{-10, 21}";
type = Stem;
},
{
horizontal = 1;
place = "{519, -20}";
target = down;
type = TopGhost;
},
{
place = "{95.47, 21.71}";
type = Stem;
},
{
horizontal = 1;
place = "{0, 21}";
target = up;
type = BottomGhost;
}
);
layerId = "E8D61EB5-BB7B-4E1E-8596-56C59CE9CB81";
paths = (
{
closed = 1;
nodes = (
"306 -10 OFFCURVE",
"381 61 OFFCURVE",
"426 164 CURVE",
"405 0 LINE",
"422 0 LINE",
"495 519 LINE",
"473 519 LINE",
"429 204 LINE",
"378 89 OFFCURVE",
"306 11 OFFCURVE",
"217 11 CURVE SMOOTH",
"145 11 OFFCURVE",
"106 56 OFFCURVE",
"120 150 CURVE SMOOTH",
"171 519 LINE",
"149 519 LINE",
"98 150 LINE SMOOTH",
"84 47 OFFCURVE",
"129 -10 OFFCURVE",
"215 -10 CURVE SMOOTH"
);
}
);
width = 576;
}
);
leftKerningGroup = uni0250;
note = u;
rightKerningGroup = uni029C;
unicode = 0075;
},
{
glyphname = T;
lastChange = "2020-10-21 08:32:31 +0000";
layers = (
{
hints = (
{
horizontal = 1;
place = "{-20, 137}";
type = Stem;
},
{
horizontal = 1;
place = "{221, 100}";
type = Stem;
},
{
horizontal = 1;
place = "{417, 137}";
type = Stem;
},
{
place = "{13, 188}";
type = Stem;
},
{
place = "{370, 188}";
type = Stem;
}
);
layerId = "FE8AE7D2-7E60-458F-B844-21CAF2BBDFF5";
paths = (
{
closed = 1;
nodes = (
"89 554 OFFCURVE",
"13 370 OFFCURVE",
"13 211 CURVE SMOOTH",
"13 66 OFFCURVE",
"100 -20 OFFCURVE",
"247 -20 CURVE SMOOTH",
"481 -20 OFFCURVE",
"557 165 OFFCURVE",
"558 323 CURVE SMOOTH",
"559 465 OFFCURVE",
"471 554 OFFCURVE",
"323 554 CURVE SMOOTH"
);
},
{
closed = 1;
nodes = (
"352 417 OFFCURVE",
"371 392 OFFCURVE",
"370 330 CURVE SMOOTH",
"370 327 OFFCURVE",
"370 324 OFFCURVE",
"370 321 CURVE",
"214 321 LINE",
"227 373 OFFCURVE",
"255 417 OFFCURVE",
"310 417 CURVE SMOOTH"
);
},
{
closed = 1;
nodes = (
"219 117 OFFCURVE",
"201 142 OFFCURVE",
"201 204 CURVE SMOOTH",
"201 210 OFFCURVE",
"201 215 OFFCURVE",
"201 221 CURVE",
"359 221 LINE",
"346 166 OFFCURVE",
"318 117 OFFCURVE",
"260 117 CURVE SMOOTH"
);
}
);
width = 572;
},
{
hints = (
{
horizontal = 1;
place = "{-10, 21}";
type = Stem;
},
{
horizontal = 1;
place = "{253, 20}";
type = Stem;
},
{
horizontal = 1;
place = "{509, 20}";
type = Stem;
},
{
place = "{69, 22}";
type = Stem;
},
{
place = "{471, 22}";
type = Stem;
}
);
layerId = "E8D61EB5-BB7B-4E1E-8596-56C59CE9CB81";
paths = (
{
closed = 1;
nodes = (
"131 529 OFFCURVE",
"69 329 OFFCURVE",
"69 196 CURVE SMOOTH",
"69 66 OFFCURVE",
"133 -10 OFFCURVE",
"244 -10 CURVE SMOOTH",
"434 -10 OFFCURVE",
"493 197 OFFCURVE",
"493 327 CURVE SMOOTH",
"493 458 OFFCURVE",
"428 529 OFFCURVE",
"318 529 CURVE SMOOTH"
);
},
{
closed = 1;
nodes = (
"416 509 OFFCURVE",
"471 445 OFFCURVE",
"471 327 CURVE SMOOTH",
"471 310 OFFCURVE",
"470 292 OFFCURVE",
"468 273 CURVE",
"98 273 LINE",
"117 384 OFFCURVE",
"179 509 OFFCURVE",
"318 509 CURVE SMOOTH"
);
},
{
closed = 1;
nodes = (
"147 11 OFFCURVE",
"91 77 OFFCURVE",
"91 195 CURVE SMOOTH",
"91 213 OFFCURVE",
"92 233 OFFCURVE",
"95 253 CURVE",
"465 253 LINE",
"447 139 OFFCURVE",
"384 11 OFFCURVE",
"244 11 CURVE SMOOTH"
);
}
);
width = 561;
}
);
leftKerningGroup = uni0262;
note = uni0275;
rightKerningGroup = uni01F6;
unicode = 0054;
},
{
glyphname = period;
lastChange = "2020-10-21 08:49:18 +0000";
layers = (
{
hints = (
{
horizontal = 1;
place = "{-20, 21}";
target = up;
type = BottomGhost;
},
{
place = "{-8, 204}";
type = Stem;
},
{
horizontal = 1;
place = "{-20, 206}";
type = Stem;
}
);
layerId = "FE8AE7D2-7E60-458F-B844-21CAF2BBDFF5";
paths = (
{
closed = 1;
nodes = (
"146 -20 OFFCURVE",
"196 33 OFFCURVE",
"196 95 CURVE SMOOTH",
"196 149 OFFCURVE",
"158 186 OFFCURVE",
"107 186 CURVE SMOOTH",
"42 186 OFFCURVE",
"-8 133 OFFCURVE",
"-8 73 CURVE SMOOTH",
"-8 18 OFFCURVE",
"29 -20 OFFCURVE",
"82 -20 CURVE SMOOTH"
);
}
);
width = 240;
},
{
hints = (
{
horizontal = 1;
place = "{-8, 46}";
type = Stem;
},
{
place = "{23, 47}";
type = Stem;
}
);
layerId = "E8D61EB5-BB7B-4E1E-8596-56C59CE9CB81";
paths = (
{
closed = 1;
nodes = (
"60 -8 OFFCURVE",
"70 2 OFFCURVE",
"70 16 CURVE SMOOTH",
"70 28 OFFCURVE",
"62 38 OFFCURVE",
"48 38 CURVE SMOOTH",
"34 38 OFFCURVE",
"23 28 OFFCURVE",
"23 13 CURVE SMOOTH",
"23 1 OFFCURVE",
"32 -8 OFFCURVE",
"45 -8 CURVE SMOOTH"
);
}
);
width = 163;
}
);
leftKerningGroup = period;
note = period;
rightKerningGroup = period;
unicode = 002E;
},
{
glyphname = comma;
lastChange = "2020-10-21 08:49:18 +0000";
layers = (
{
hints = (
{
horizontal = 1;
place = "{0, 21}";
target = up;
type = BottomGhost;
},
{
place = "{-7, 203}";
type = Stem;
}
);
layerId = "FE8AE7D2-7E60-458F-B844-21CAF2BBDFF5";
paths = (
{
closed = 1;
nodes = (
"43 186 OFFCURVE",
"-7 134 OFFCURVE",
"-7 69 CURVE SMOOTH",
"-7 40 OFFCURVE",
"5 16 OFFCURVE",
"28 0 CURVE",
"-43 -184 LINE",
"58 -184 LINE",
"139 -45 LINE SMOOTH",
"179 27 OFFCURVE",
"196 57 OFFCURVE",
"196 97 CURVE SMOOTH",
"196 149 OFFCURVE",
"159 186 OFFCURVE",
"107 186 CURVE SMOOTH"
);
}
);
width = 240;
},
{
hints = (
{
horizontal = 1;
place = "{-6, 21}";
target = up;
type = BottomGhost;
},
{
place = "{22, 47}";
type = Stem;
}
);
layerId = "E8D61EB5-BB7B-4E1E-8596-56C59CE9CB81";
paths = (
{
closed = 1;
nodes = (
"33 38 OFFCURVE",
"22 27 OFFCURVE",
"22 14 CURVE SMOOTH",
"22 4 OFFCURVE",
"26 -3 OFFCURVE",
"34 -6 CURVE",
"-22 -130 LINE",
"-4 -130 LINE",
"56 -18 LINE SMOOTH",
"64 -3 OFFCURVE",
"69 6 OFFCURVE",
"69 16 CURVE SMOOTH",
"69 28 OFFCURVE",
"61 38 OFFCURVE",
"47 38 CURVE SMOOTH"
);
}
);
width = 161;
}
);
leftKerningGroup = period;
note = comma;
rightKerningGroup = period;
unicode = 002C;
},
{
glyphname = colon;
lastChange = "2020-10-21 08:49:18 +0000";
layers = (
{
hints = (
{
horizontal = 1;
place = "{-20, 21}";
target = up;
type = BottomGhost;
},
{
horizontal = 1;
place = "{312, 206}";
type = Stem;
},
{
place = "{38, 204}";
type = Stem;
},
{
place = "{-8, 204}";
type = Stem;
},
{
horizontal = 1;
place = "{-20, 206}";
type = Stem;
}
);
layerId = "FE8AE7D2-7E60-458F-B844-21CAF2BBDFF5";
paths = (
{
closed = 1;
nodes = (
"192 312 OFFCURVE",
"242 365 OFFCURVE",
"242 427 CURVE SMOOTH",
"242 481 OFFCURVE",
"204 518 OFFCURVE",
"153 518 CURVE SMOOTH",
"88 518 OFFCURVE",
"38 465 OFFCURVE",
"38 405 CURVE SMOOTH",
"38 350 OFFCURVE",
"75 312 OFFCURVE",
"128 312 CURVE SMOOTH"
);
},
{
closed = 1;
nodes = (
"146 -20 OFFCURVE",
"196 33 OFFCURVE",
"196 95 CURVE SMOOTH",
"196 149 OFFCURVE",
"158 186 OFFCURVE",
"107 186 CURVE SMOOTH",
"42 186 OFFCURVE",
"-8 133 OFFCURVE",
"-8 73 CURVE SMOOTH",
"-8 18 OFFCURVE",
"29 -20 OFFCURVE",
"82 -20 CURVE SMOOTH"
);
}
);
width = 240;
},
{
hints = (
{
horizontal = 1;
place = "{-8, 46}";
type = Stem;
},
{
horizontal = 1;
place = "{406, 47}";
type = Stem;
},
{
place = "{23, 47}";
type = Stem;
},
{
place = "{82, 47}";
type = Stem;
}
);
layerId = "E8D61EB5-BB7B-4E1E-8596-56C59CE9CB81";
paths = (
{
closed = 1;
nodes = (
"119 406 OFFCURVE",
"129 417 OFFCURVE",
"129 431 CURVE SMOOTH",
"129 443 OFFCURVE",
"121 453 OFFCURVE",
"107 453 CURVE SMOOTH",
"93 453 OFFCURVE",
"82 442 OFFCURVE",
"82 428 CURVE SMOOTH",
"82 416 OFFCURVE",
"91 406 OFFCURVE",
"104 406 CURVE SMOOTH"
);
},
{
closed = 1;
nodes = (
"60 -8 OFFCURVE",
"70 2 OFFCURVE",
"70 16 CURVE SMOOTH",
"70 28 OFFCURVE",
"62 38 OFFCURVE",
"48 38 CURVE SMOOTH",
"34 38 OFFCURVE",
"23 28 OFFCURVE",
"23 13 CURVE SMOOTH",
"23 1 OFFCURVE",
"32 -8 OFFCURVE",
"45 -8 CURVE SMOOTH"
);
}
);
width = 163;
}
);
leftKerningGroup = colon;
note = colon;
unicode = 003A;
},
{
glyphname = semicolon;
lastChange = "2020-10-21 08:49:18 +0000";
layers = (
{
hints = (
{
horizontal = 1;
place = "{0, 21}";
target = up;
type = BottomGhost;
},
{
horizontal = 1;
place = "{312, 206}";
type = Stem;
},
{
place = "{40, 204}";
type = Stem;
},
{
place = "{-5, 203}";
type = Stem;
}
);
layerId = "FE8AE7D2-7E60-458F-B844-21CAF2BBDFF5";
paths = (
{
closed = 1;
nodes = (
"194 312 OFFCURVE",
"244 365 OFFCURVE",
"244 427 CURVE SMOOTH",
"244 481 OFFCURVE",
"206 518 OFFCURVE",
"155 518 CURVE SMOOTH",
"90 518 OFFCURVE",
"40 465 OFFCURVE",
"40 405 CURVE SMOOTH",
"40 350 OFFCURVE",
"77 312 OFFCURVE",
"130 312 CURVE SMOOTH"
);
},
{
closed = 1;
nodes = (
"45 186 OFFCURVE",
"-5 134 OFFCURVE",
"-5 69 CURVE SMOOTH",
"-5 40 OFFCURVE",
"7 16 OFFCURVE",
"30 0 CURVE",
"-41 -184 LINE",
"60 -184 LINE",
"141 -45 LINE SMOOTH",
"181 27 OFFCURVE",
"198 57 OFFCURVE",
"198 97 CURVE SMOOTH",
"198 149 OFFCURVE",
"161 186 OFFCURVE",
"109 186 CURVE SMOOTH"
);
}
);
width = 242;
},
{
hints = (
{
horizontal = 1;
place = "{-6, 21}";
target = up;
type = BottomGhost;
},
{
horizontal = 1;
place = "{406, 47}";
type = Stem;
},
{
place = "{82, 47}";
type = Stem;
},
{
place = "{22, 47}";
type = Stem;
}
);
layerId = "E8D61EB5-BB7B-4E1E-8596-56C59CE9CB81";
paths = (
{
closed = 1;
nodes = (
"119 406 OFFCURVE",
"129 417 OFFCURVE",
"129 431 CURVE SMOOTH",
"129 443 OFFCURVE",
"121 453 OFFCURVE",
"107 453 CURVE SMOOTH",
"93 453 OFFCURVE",
"82 442 OFFCURVE",
"82 428 CURVE SMOOTH",
"82 416 OFFCURVE",
"91 406 OFFCURVE",
"104 406 CURVE SMOOTH"
);
},
{
closed = 1;
nodes = (
"33 38 OFFCURVE",
"22 27 OFFCURVE",
"22 14 CURVE SMOOTH",
"22 4 OFFCURVE",
"26 -3 OFFCURVE",
"34 -6 CURVE",
"-22 -130 LINE",
"-4 -130 LINE",
"56 -18 LINE SMOOTH",
"64 -3 OFFCURVE",
"69 6 OFFCURVE",
"69 16 CURVE SMOOTH",
"69 28 OFFCURVE",
"61 38 OFFCURVE",
"47 38 CURVE SMOOTH"
);
}
);
width = 163;
}
);
leftKerningGroup = colon;
note = semicolon;
unicode = 003B;
},
{
glyphname = ellipsis;
lastChange = "2020-10-21 08:49:18 +0000";
layers = (
{
hints = (
{
horizontal = 1;
place = "{-20, 206}";
type = Stem;
},
{
place = "{-8, 204}";
type = Stem;
},
{
place = "{232, 204}";
type = Stem;
},
{
place = "{472, 204}";
type = Stem;
}
);
layerId = "FE8AE7D2-7E60-458F-B844-21CAF2BBDFF5";
paths = (
{
closed = 1;
nodes = (
"146 -20 OFFCURVE",
"196 33 OFFCURVE",
"196 95 CURVE SMOOTH",
"196 149 OFFCURVE",
"158 186 OFFCURVE",
"107 186 CURVE SMOOTH",
"42 186 OFFCURVE",
"-8 133 OFFCURVE",
"-8 73 CURVE SMOOTH",
"-8 18 OFFCURVE",
"29 -20 OFFCURVE",
"82 -20 CURVE SMOOTH"
);
},
{
closed = 1;
nodes = (
"386 -20 OFFCURVE",
"436 33 OFFCURVE",
"436 95 CURVE SMOOTH",
"436 149 OFFCURVE",
"398 186 OFFCURVE",
"347 186 CURVE SMOOTH",
"282 186 OFFCURVE",
"232 133 OFFCURVE",
"232 73 CURVE SMOOTH",
"232 18 OFFCURVE",
"269 -20 OFFCURVE",
"322 -20 CURVE SMOOTH"
);
},
{
closed = 1;
nodes = (
"626 -20 OFFCURVE",
"676 33 OFFCURVE",
"676 95 CURVE SMOOTH",
"676 149 OFFCURVE",
"638 186 OFFCURVE",
"587 186 CURVE SMOOTH",
"522 186 OFFCURVE",
"472 133 OFFCURVE",
"472 73 CURVE SMOOTH",
"472 18 OFFCURVE",
"509 -20 OFFCURVE",
"562 -20 CURVE SMOOTH"
);
}
);
width = 720;
},
{
hints = (
{
horizontal = 1;
place = "{-8, 46}";
type = Stem;
},
{
place = "{23, 47}";
type = Stem;
},
{
place = "{186, 47}";
type = Stem;
},
{
place = "{349, 47}";
type = Stem;
}
);
layerId = "E8D61EB5-BB7B-4E1E-8596-56C59CE9CB81";
paths = (
{
closed = 1;
nodes = (
"60 -8 OFFCURVE",
"70 2 OFFCURVE",
"70 16 CURVE SMOOTH",
"70 28 OFFCURVE",
"62 38 OFFCURVE",
"48 38 CURVE SMOOTH",
"34 38 OFFCURVE",
"23 28 OFFCURVE",
"23 13 CURVE SMOOTH",
"23 1 OFFCURVE",
"32 -8 OFFCURVE",
"45 -8 CURVE SMOOTH"
);
},
{
closed = 1;
nodes = (
"223 -8 OFFCURVE",
"233 2 OFFCURVE",
"233 16 CURVE SMOOTH",
"233 28 OFFCURVE",
"225 38 OFFCURVE",
"211 38 CURVE SMOOTH",
"197 38 OFFCURVE",
"186 28 OFFCURVE",
"186 13 CURVE SMOOTH",
"186 1 OFFCURVE",
"195 -8 OFFCURVE",
"208 -8 CURVE SMOOTH"
);
},
{
closed = 1;
nodes = (
"386 -8 OFFCURVE",
"396 2 OFFCURVE",
"396 16 CURVE SMOOTH",
"396 28 OFFCURVE",
"388 38 OFFCURVE",
"374 38 CURVE SMOOTH",
"360 38 OFFCURVE",
"349 28 OFFCURVE",
"349 13 CURVE SMOOTH",
"349 1 OFFCURVE",
"358 -8 OFFCURVE",
"371 -8 CURVE SMOOTH"
);
}
);
width = 489;
}
);
leftKerningGroup = period;
note = ellipsis;
rightKerningGroup = period;
unicode = 2026;
},
{
glyphname = exclam;
lastChange = "2020-10-21 08:49:18 +0000";
layers = (
{
hints = (
{
horizontal = 1;
place = "{-20, 21}";
target = up;
type = BottomGhost;
},
{
horizontal = 1;
place = "{696, -20}";
target = down;
type = TopGhost;
},
{
place = "{-8, 284}";
type = Stem;
},
{
place = "{-8, 204}";
type = Stem;
},
{
horizontal = 1;
place = "{-20, 206}";
type = Stem;
}
);
layerId = "FE8AE7D2-7E60-458F-B844-21CAF2BBDFF5";
paths = (
{
closed = 1;
nodes = (
"38 270 LINE",
"190 270 LINE",
"276 696 LINE",
"72 696 LINE"
);
},
{
closed = 1;
nodes = (
"146 -20 OFFCURVE",
"196 33 OFFCURVE",
"196 95 CURVE SMOOTH",
"196 149 OFFCURVE",
"158 186 OFFCURVE",
"107 186 CURVE SMOOTH",
"42 186 OFFCURVE",
"-8 133 OFFCURVE",
"-8 73 CURVE SMOOTH",
"-8 18 OFFCURVE",
"29 -20 OFFCURVE",
"82 -20 CURVE SMOOTH"
);
}
);
width = 228;
},
{
hints = (
{
horizontal = 1;
place = "{-8, 46}";
type = Stem;
},
{
horizontal = 1;
place = "{681, -20}";
target = down;
type = TopGhost;
},
{
place = "{65, 47}";
type = Stem;
}
);
layerId = "E8D61EB5-BB7B-4E1E-8596-56C59CE9CB81";
paths = (
{
closed = 1;
nodes = (
"101 202 LINE",
"122 202 LINE",
"188 681 LINE",
"167 681 LINE"
);
},
{
closed = 1;
nodes = (
"102 -8 OFFCURVE",
"112 2 OFFCURVE",
"112 16 CURVE SMOOTH",
"112 28 OFFCURVE",
"104 38 OFFCURVE",
"90 38 CURVE SMOOTH",
"76 38 OFFCURVE",
"65 28 OFFCURVE",
"65 13 CURVE SMOOTH",
"65 1 OFFCURVE",
"74 -8 OFFCURVE",
"87 -8 CURVE SMOOTH"
);
}
);
width = 238;
}
);
leftKerningGroup = exclam;
note = exclam;
rightKerningGroup = exclam;
unicode = 0021;
},
{
glyphname = exclamdown;
lastChange = "2020-10-21 08:49:18 +0000";
layers = (
{
hints = (
{
horizontal = 1;
place = "{-207, 21}";
target = up;
type = BottomGhost;
},
{
horizontal = 1;
place = "{312, 206}";
type = Stem;
},
{
place = "{35, 204}";
type = Stem;
}
);
layerId = "FE8AE7D2-7E60-458F-B844-21CAF2BBDFF5";
paths = (
{
closed = 1;
nodes = (
"189 312 OFFCURVE",
"239 365 OFFCURVE",
"239 427 CURVE SMOOTH",
"239 481 OFFCURVE",
"201 518 OFFCURVE",
"150 518 CURVE SMOOTH",
"85 518 OFFCURVE",
"35 465 OFFCURVE",
"35 405 CURVE SMOOTH",
"35 350 OFFCURVE",
"72 312 OFFCURVE",
"125 312 CURVE SMOOTH"
);
},
{
closed = 1;
nodes = (
"185 228 LINE",
"33 228 LINE",
"-55 -207 LINE",
"149 -207 LINE"
);
}
);
width = 225;
},
{
hints = (
{
horizontal = 1;
place = "{-192, 21}";
target = up;
type = BottomGhost;
},
{
horizontal = 1;
place = "{406, 46}";
type = Stem;
},
{
place = "{123, 47}";
type = Stem;
}
);
layerId = "E8D61EB5-BB7B-4E1E-8596-56C59CE9CB81";
paths = (
{
closed = 1;
nodes = (
"160 406 OFFCURVE",
"170 416 OFFCURVE",
"170 430 CURVE SMOOTH",
"170 443 OFFCURVE",
"162 452 OFFCURVE",
"148 452 CURVE SMOOTH",
"134 452 OFFCURVE",
"123 442 OFFCURVE",
"123 427 CURVE SMOOTH",
"123 416 OFFCURVE",
"132 406 OFFCURVE",
"145 406 CURVE SMOOTH"
);
},
{
closed = 1;
nodes = (
"132 252 LINE",
"111 252 LINE",
"48 -192 LINE",
"69 -192 LINE"
);
}
);
width = 238;
}
);
leftKerningGroup = exclamdown;
note = exclamdown;
rightKerningGroup = exclamdown;
unicode = 00A1;
},
{
glyphname = question;
lastChange = "2020-10-21 08:49:18 +0000";
layers = (
{
hints = (
{
horizontal = 1;
place = "{-20, 21}";
target = up;
type = BottomGhost;
},
{
horizontal = 1;
place = "{562, 154}";
type = Stem;
},
{
place = "{312, 207}";
type = Stem;
},
{
place = "{124, 175}";
type = Stem;
},
{
place = "{107, 204}";
type = Stem;
},
{
horizontal = 1;
place = "{-20, 206}";
type = Stem;
}
);
layerId = "FE8AE7D2-7E60-458F-B844-21CAF2BBDFF5";
paths = (
{
closed = 1;
nodes = (
"197 716 OFFCURVE",
"115 671 OFFCURVE",
"51 605 CURVE",
"158 507 LINE",
"197 542 OFFCURVE",
"234 562 OFFCURVE",
"271 562 CURVE SMOOTH",
"298 562 OFFCURVE",
"312 551 OFFCURVE",
"312 530 CURVE SMOOTH",
"312 448 OFFCURVE",
"124 461 OFFCURVE",
"124 289 CURVE SMOOTH",
"124 273 OFFCURVE",
"126 257 OFFCURVE",
"130 241 CURVE",
"301 266 LINE",
"300 271 OFFCURVE",
"299 279 OFFCURVE",
"299 284 CURVE SMOOTH",
"300 384 OFFCURVE",
"519 366 OFFCURVE",
"519 555 CURVE SMOOTH",
"519 643 OFFCURVE",
"451 716 OFFCURVE",
"309 716 CURVE SMOOTH"
);
},
{
closed = 1;
nodes = (
"261 -20 OFFCURVE",
"311 33 OFFCURVE",
"311 95 CURVE SMOOTH",
"311 149 OFFCURVE",
"273 186 OFFCURVE",
"222 186 CURVE SMOOTH",
"157 186 OFFCURVE",
"107 133 OFFCURVE",
"107 73 CURVE SMOOTH",
"107 18 OFFCURVE",
"144 -20 OFFCURVE",
"197 -20 CURVE SMOOTH"
);
}
);
width = 483;
},
{
hints = (
{
horizontal = 1;
place = "{-9, 46}";
type = Stem;
},
{
horizontal = 1;
place = "{672, 19}";
type = Stem;
},
{
place = "{179, 22}";
type = Stem;
},
{
place = "{403, 23}";
type = Stem;
},
{
place = "{163, 47}";
type = Stem;
}
);
layerId = "E8D61EB5-BB7B-4E1E-8596-56C59CE9CB81";
paths = (
{
closed = 1;
nodes = (
"218 691 OFFCURVE",
"164 665 OFFCURVE",
"106 608 CURVE",
"121 594 LINE",
"176 646 OFFCURVE",
"222 672 OFFCURVE",
"292 672 CURVE SMOOTH",
"363 672 OFFCURVE",
"403 630 OFFCURVE",
"403 575 CURVE SMOOTH",
"403 416 OFFCURVE",
"178 420 OFFCURVE",
"179 271 CURVE SMOOTH",
"179 252 OFFCURVE",
"183 232 OFFCURVE",
"189 213 CURVE",
"208 218 LINE",
"205 232 OFFCURVE",
"201 249 OFFCURVE",
"201 271 CURVE SMOOTH",
"200 407 OFFCURVE",
"426 403 OFFCURVE",
"426 576 CURVE SMOOTH",
"426 640 OFFCURVE",
"379 691 OFFCURVE",
"292 691 CURVE SMOOTH"
);
},
{
closed = 1;
nodes = (
"200 -9 OFFCURVE",
"210 1 OFFCURVE",
"210 15 CURVE SMOOTH",
"210 27 OFFCURVE",
"202 37 OFFCURVE",
"188 37 CURVE SMOOTH",
"174 37 OFFCURVE",
"163 27 OFFCURVE",
"163 12 CURVE SMOOTH",
"163 0 OFFCURVE",
"172 -9 OFFCURVE",
"185 -9 CURVE SMOOTH"
);
}
);
width = 441;
}
);
leftKerningGroup = question;
note = question;
rightKerningGroup = question;
unicode = 003F;
},
{
glyphname = questiondown;
lastChange = "2020-10-21 08:49:18 +0000";
layers = (
{
hints = (
{
horizontal = 1;
place = "{-227, 154}";
type = Stem;
},
{
horizontal = 1;
place = "{303, 206}";
type = Stem;
},
{
place = "{165, 204}";
type = Stem;
},
{
place = "{-43, 207}";
type = Stem;
},
{
place = "{177, 175}";
type = Stem;
}
);
layerId = "FE8AE7D2-7E60-458F-B844-21CAF2BBDFF5";
paths = (
{
closed = 1;
nodes = (
"215 509 OFFCURVE",
"165 456 OFFCURVE",
"165 394 CURVE SMOOTH",
"165 340 OFFCURVE",
"203 303 OFFCURVE",
"254 303 CURVE SMOOTH",
"319 303 OFFCURVE",
"369 356 OFFCURVE",
"369 416 CURVE SMOOTH",
"369 471 OFFCURVE",
"332 509 OFFCURVE",
"279 509 CURVE SMOOTH"
);
},
{
closed = 1;
nodes = (
"279 -227 OFFCURVE",
"361 -182 OFFCURVE",
"425 -116 CURVE",
"318 -18 LINE",
"279 -53 OFFCURVE",
"242 -73 OFFCURVE",
"207 -73 CURVE SMOOTH",
"178 -73 OFFCURVE",
"164 -62 OFFCURVE",
"164 -43 CURVE SMOOTH",
"164 41 OFFCURVE",
"352 33 OFFCURVE",
"352 200 CURVE SMOOTH",
"352 216 OFFCURVE",
"350 232 OFFCURVE",
"346 248 CURVE",
"175 223 LINE",
"176 218 OFFCURVE",
"177 210 OFFCURVE",
"177 205 CURVE SMOOTH",
"176 95 OFFCURVE",
"-43 123 OFFCURVE",
"-43 -75 CURVE SMOOTH",
"-43 -159 OFFCURVE",
"25 -227 OFFCURVE",
"167 -227 CURVE SMOOTH"
);
}
);
width = 481;
},
{
hints = (
{
horizontal = 1;
place = "{-198, 20}";
type = Stem;
},
{
horizontal = 1;
place = "{457, 46}";
type = Stem;
},
{
place = "{11, 22}";
type = Stem;
},
{
place = "{227, 47}";
type = Stem;
},
{
place = "{236, 22}";
type = Stem;
}
);
layerId = "E8D61EB5-BB7B-4E1E-8596-56C59CE9CB81";
paths = (
{
closed = 1;
nodes = (
"237 503 OFFCURVE",
"227 493 OFFCURVE",
"227 479 CURVE SMOOTH",
"227 466 OFFCURVE",
"235 457 OFFCURVE",
"249 457 CURVE SMOOTH",
"263 457 OFFCURVE",
"274 467 OFFCURVE",
"274 482 CURVE SMOOTH",
"274 494 OFFCURVE",
"265 503 OFFCURVE",
"252 503 CURVE SMOOTH"
);
},
{
closed = 1;
nodes = (
"218 -198 OFFCURVE",
"272 -171 OFFCURVE",
"331 -114 CURVE",
"316 -100 LINE",
"261 -152 OFFCURVE",
"215 -178 OFFCURVE",
"145 -178 CURVE SMOOTH",
"74 -178 OFFCURVE",
"33 -136 OFFCURVE",
"33 -81 CURVE SMOOTH",
"33 78 OFFCURVE",
"259 74 OFFCURVE",
"258 223 CURVE SMOOTH",
"258 242 OFFCURVE",
"254 262 OFFCURVE",
"248 281 CURVE",
"228 276 LINE",
"232 262 OFFCURVE",
"236 244 OFFCURVE",
"236 223 CURVE SMOOTH",
"237 86 OFFCURVE",
"11 91 OFFCURVE",
"11 -82 CURVE SMOOTH",
"11 -146 OFFCURVE",
"58 -198 OFFCURVE",
"145 -198 CURVE SMOOTH"
);
}
);
width = 440;
}
);
leftKerningGroup = questiondown;
note = questiondown;
rightKerningGroup = questiondown;
unicode = 00BF;
},
{
glyphname = periodcentered;
lastChange = "2020-10-21 08:49:18 +0000";
layers = (
{
hints = (
{
horizontal = 1;
place = "{203, 206}";
type = Stem;
},
{
place = "{23, 204}";
type = Stem;
}
);
layerId = "FE8AE7D2-7E60-458F-B844-21CAF2BBDFF5";
paths = (
{
closed = 1;
nodes = (
"177 203 OFFCURVE",
"227 256 OFFCURVE",
"227 318 CURVE SMOOTH",
"227 372 OFFCURVE",
"189 409 OFFCURVE",
"138 409 CURVE SMOOTH",
"73 409 OFFCURVE",
"23 356 OFFCURVE",
"23 296 CURVE SMOOTH",
"23 241 OFFCURVE",
"60 203 OFFCURVE",
"113 203 CURVE SMOOTH"
);
}
);
width = 240;
},
{
hints = (
{
horizontal = 1;
place = "{303, 47}";
type = Stem;
},
{
place = "{67, 47}";
type = Stem;
}
);
layerId = "E8D61EB5-BB7B-4E1E-8596-56C59CE9CB81";
paths = (
{
closed = 1;
nodes = (
"104 303 OFFCURVE",
"114 314 OFFCURVE",
"114 328 CURVE SMOOTH",
"114 340 OFFCURVE",
"106 350 OFFCURVE",
"92 350 CURVE SMOOTH",
"78 350 OFFCURVE",
"67 339 OFFCURVE",
"67 325 CURVE SMOOTH",
"67 313 OFFCURVE",
"76 303 OFFCURVE",
"89 303 CURVE SMOOTH"
);
}
);
width = 163;
}
);
leftKerningGroup = periodcentered;
note = periodcentered;
rightKerningGroup = periodcentered;
unicode = 00B7;
},
{
glyphname = bullet;
lastChange = "2020-10-21 08:49:18 +0000";
layers = (
{
hints = (
{
horizontal = 1;
place = "{188, 307}";
type = Stem;
},
{
place = "{32, 305}";
type = Stem;
}
);
layerId = "FE8AE7D2-7E60-458F-B844-21CAF2BBDFF5";
paths = (
{
closed = 1;
nodes = (
"112 495 OFFCURVE",
"32 419 OFFCURVE",
"32 321 CURVE SMOOTH",
"32 244 OFFCURVE",
"86 188 OFFCURVE",
"165 188 CURVE SMOOTH",
"258 188 OFFCURVE",
"337 265 OFFCURVE",
"337 363 CURVE SMOOTH",
"337 440 OFFCURVE",
"283 495 OFFCURVE",
"204 495 CURVE SMOOTH"
);
}
);
width = 348;
},
{
hints = (
{
horizontal = 1;
place = "{318, 65}";
type = Stem;
},
{
place = "{103, 66}";
type = Stem;
}
);
layerId = "E8D61EB5-BB7B-4E1E-8596-56C59CE9CB81";
paths = (
{
closed = 1;
nodes = (
"118 383 OFFCURVE",
"103 366 OFFCURVE",
"103 347 CURVE SMOOTH",
"103 330 OFFCURVE",
"115 318 OFFCURVE",
"134 318 CURVE SMOOTH",
"155 318 OFFCURVE",
"169 335 OFFCURVE",
"169 354 CURVE SMOOTH",
"169 371 OFFCURVE",
"158 383 OFFCURVE",
"139 383 CURVE SMOOTH"
);
}
);
width = 247;
}
);
leftKerningGroup = bullet;
note = bullet;
rightKerningGroup = bullet;
unicode = 2022;
},
{
glyphname = asterisk;
lastChange = "2020-10-21 08:49:18 +0000";
layers = (
{
hints = (
{
horizontal = 1;
place = "{744, -20}";
target = down;
type = TopGhost;
},
{
place = "{33, 447}";
type = Stem;
}
);
layerId = "FE8AE7D2-7E60-458F-B844-21CAF2BBDFF5";
paths = (
{
closed = 1;
nodes = (
"480 520 LINE",
"451 673 LINE",
"328 609 LINE",
"374 744 LINE",
"204 744 LINE",
"213 608 LINE",
"102 670 LINE",
"33 519 LINE",
"163 502 LINE",
"55 408 LINE",
"172 311 LINE",
"245 434 LINE",
"287 312 LINE",
"430 409 LINE",
"345 502 LINE"
);
}
);
width = 443;
},
{
hints = (
{
horizontal = 1;
place = "{732, -20}";
target = down;
type = TopGhost;
},
{
place = "{98, 333}";
type = Stem;
}
);
layerId = "E8D61EB5-BB7B-4E1E-8596-56C59CE9CB81";
paths = (
{
closed = 1;
nodes = (
"431 603 LINE",
"426 624 LINE",
"270 572 LINE",
"294 732 LINE",
"272 732 LINE",
"250 572 LINE",
"106 622 LINE",
"98 603 LINE",
"243 556 LINE",
"129 429 LINE",
"147 416 LINE",
"257 546 LINE",
"330 416 LINE",
"349 429 LINE",
"272 557 LINE"
);
}
);
width = 432;
}
);
leftKerningGroup = asterisk;
note = asterisk;
rightKerningGroup = asterisk;
unicode = 002A;
},
{
glyphname = numbersign;
lastChange = "2020-10-21 08:49:18 +0000";
layers = (
{
hints = (
{
horizontal = 1;
place = "{0, 257}";
type = Stem;
},
{
horizontal = 1;
place = "{436, 126}";
type = Stem;
},
{
place = "{-5, 600}";
type = Stem;
},
{
horizontal = 1;
place = "{131, 126}";
type = Stem;
}
);
layerId = "FE8AE7D2-7E60-458F-B844-21CAF2BBDFF5";
paths = (
{
closed = 1;
nodes = (
"578 436 LINE",
"595 562 LINE",
"547 562 LINE",
"579 680 LINE",
"418 680 LINE",
"386 562 LINE",
"321 562 LINE",
"353 680 LINE",
"192 680 LINE",
"160 562 LINE",
"92 562 LINE",
"75 436 LINE",
"127 436 LINE",
"79 257 LINE",
"13 257 LINE",
"-5 131 LINE",
"45 131 LINE",
"10 0 LINE",
"170 0 LINE",
"205 131 LINE",
"271 131 LINE",
"236 0 LINE",
"396 0 LINE",
"431 131 LINE",
"498 131 LINE",
"516 257 LINE",
"465 257 LINE",
"513 436 LINE"
);
},
{
closed = 1;
nodes = (
"239 257 LINE",
"287 436 LINE",
"353 436 LINE",
"305 257 LINE"
);
}
);
width = 568;
},
{
hints = (
{
horizontal = 1;
place = "{0, 21}";
target = up;
type = BottomGhost;
},
{
horizontal = 1;
place = "{200, 20}";
type = Stem;
},
{
horizontal = 1;
place = "{459, 20}";
type = Stem;
},
{
place = "{7, 496}";
type = Stem;
}
);
layerId = "E8D61EB5-BB7B-4E1E-8596-56C59CE9CB81";
paths = (
{
closed = 1;
nodes = (
"501 459 LINE",
"503 479 LINE",
"423 479 LINE",
"473 662 LINE",
"448 662 LINE",
"398 479 LINE",
"189 479 LINE",
"239 662 LINE",
"215 662 LINE",
"165 479 LINE",
"82 479 LINE",
"80 459 LINE",
"160 459 LINE",
"95 220 LINE",
"10 220 LINE",
"7 200 LINE",
"89 200 LINE",
"35 0 LINE",
"59 0 LINE",
"113 200 LINE",
"322 200 LINE",
"268 0 LINE",
"293 0 LINE",
"347 200 LINE",
"427 200 LINE",
"431 220 LINE",
"353 220 LINE",
"418 459 LINE"
);
},
{
closed = 1;
nodes = (
"119 220 LINE",
"184 459 LINE",
"393 459 LINE",
"328 220 LINE"
);
}
);
width = 488;
}
);
leftKerningGroup = numbersign;
note = numbersign;
rightKerningGroup = numbersign;
unicode = 0023;
},
{
glyphname = slash;
lastChange = "2020-10-21 08:49:18 +0000";
layers = (
{
hints = (
{
horizontal = 1;
place = "{-117, 939}";
type = Stem;
},
{
place = "{4, 524}";
type = Stem;
}
);
layerId = "FE8AE7D2-7E60-458F-B844-21CAF2BBDFF5";
paths = (
{
closed = 1;
nodes = (
"362 822 LINE",
"4 -77 LINE",
"171 -117 LINE",
"528 782 LINE"
);
}
);
width = 508;
},
{
hints = (
{
horizontal = 1;
place = "{-95, 893}";
type = Stem;
},
{
place = "{85, 376}";
type = Stem;
}
);
layerId = "E8D61EB5-BB7B-4E1E-8596-56C59CE9CB81";
paths = (
{
closed = 1;
nodes = (
"441 798 LINE",
"85 -90 LINE",
"104 -95 LINE",
"461 792 LINE"
);
}
);
width = 520;
}
);
leftKerningGroup = slash;
note = slash;
rightKerningGroup = slash;
unicode = 002F;
},
{
glyphname = backslash;
lastChange = "2020-10-21 08:49:18 +0000";
layers = (
{
hints = (
{
horizontal = 1;
place = "{-117, 939}";
type = Stem;
},
{
place = "{124, 284}";
type = Stem;
}
);
layerId = "FE8AE7D2-7E60-458F-B844-21CAF2BBDFF5";
paths = (
{
closed = 1;
nodes = (
"300 822 LINE",
"124 782 LINE",
"231 -117 LINE",
"408 -77 LINE"
);
}
);
width = 508;
},
{
hints = (
{
horizontal = 1;
place = "{-95, 893}";
type = Stem;
},
{
place = "{209, 128}";
type = Stem;
}
);
layerId = "E8D61EB5-BB7B-4E1E-8596-56C59CE9CB81";
paths = (
{
closed = 1;
nodes = (
"229 798 LINE",
"209 792 LINE",
"316 -95 LINE",
"337 -90 LINE"
);
}
);
width = 520;
}
);
leftKerningGroup = backslash;
note = backslash;
rightKerningGroup = backslash;
unicode = 005C;
},
{
glyphname = uni2016;
lastChange = "2020-10-21 08:49:18 +0000";
layers = (
{
hints = (
{
horizontal = 1;
place = "{-107, 919}";
type = Stem;
},
{
place = "{31, 555}";
type = Stem;
}
);
layerId = "FE8AE7D2-7E60-458F-B844-21CAF2BBDFF5";
paths = (
{
closed = 1;
nodes = (
"341 812 LINE",
"159 812 LINE",
"31 -107 LINE",
"213 -107 LINE"
);
},
{
closed = 1;
nodes = (
"586 812 LINE",
"404 812 LINE",
"276 -107 LINE",
"458 -107 LINE"
);
}
);
width = 593;
},
{
hints = (
{
horizontal = 1;
place = "{-98, 899}";
type = Stem;
},
{
place = "{146, 293}";
type = Stem;
}
);
layerId = "E8D61EB5-BB7B-4E1E-8596-56C59CE9CB81";
paths = (
{
closed = 1;
nodes = (
"293 801 LINE",
"271 801 LINE",
"146 -98 LINE",
"168 -98 LINE"
);
},
{
closed = 1;
nodes = (
"439 801 LINE",
"417 801 LINE",
"292 -98 LINE",
"314 -98 LINE"
);
}
);
width = 559;
}
);
leftKerningGroup = uni2016;
note = uni2016;
rightKerningGroup = uni2016;
unicode = 2016;
},
{
glyphname = uni203F;
lastChange = "2020-10-21 08:49:18 +0000";
layers = (
{
hints = (
{
horizontal = 1;
place = "{-232, 143}";
type = Stem;
},
{
place = "{-53, 676}";
type = Stem;
}
);
layerId = "FE8AE7D2-7E60-458F-B844-21CAF2BBDFF5";
paths = (
{
closed = 1;
nodes = (
"577 -26 LINE",
"507 -55 OFFCURVE",
"406 -89 OFFCURVE",
"286 -89 CURVE SMOOTH",
"167 -89 OFFCURVE",
"74 -57 OFFCURVE",
"12 -28 CURVE",
"-53 -108 LINE",
"19 -170 OFFCURVE",
"112 -232 OFFCURVE",
"270 -232 CURVE SMOOTH",
"426 -232 OFFCURVE",
"535 -172 OFFCURVE",
"623 -110 CURVE"
);
}
);
width = 676;
},
{
hints = (
{
horizontal = 1;
place = "{-198, 22}";
type = Stem;
},
{
place = "{-46, 647}";
type = Stem;
}
);
layerId = "E8D61EB5-BB7B-4E1E-8596-56C59CE9CB81";
paths = (
{
closed = 1;
nodes = (
"593 -53 LINE",
"524 -100 OFFCURVE",
"415 -176 OFFCURVE",
"261 -176 CURVE SMOOTH",
"107 -176 OFFCURVE",
"20 -100 OFFCURVE",
"-36 -53 CURVE",
"-46 -65 LINE",
"15 -119 OFFCURVE",
"101 -198 OFFCURVE",
"260 -198 CURVE SMOOTH",
"417 -198 OFFCURVE",
"526 -121 OFFCURVE",
"601 -66 CURVE"
);
}
);
width = 647;
}
);
leftKerningGroup = uni203F;
note = uni203F;
rightKerningGroup = uni203F;
unicode = 203F;
},
{
glyphname = uni204A;
lastChange = "2020-10-21 08:49:18 +0000";
layers = (
{
hints = (
{
horizontal = 1;
place = "{-216, 21}";
target = up;
type = BottomGhost;
},
{
horizontal = 1;
place = "{383, 151}";
type = Stem;
},
{
place = "{21, 523}";
type = Stem;
}
);
layerId = "FE8AE7D2-7E60-458F-B844-21CAF2BBDFF5";
paths = (
{
closed = 1;
nodes = (
"544 534 LINE",
"67 534 LINE",
"46 383 LINE",
"315 383 LINE",
"21 -156 LINE",
"193 -216 LINE",
"526 399 LINE"
);
}
);
width = 557;
},
{
hints = (
{
horizontal = 1;
place = "{-195, 21}";
target = up;
type = BottomGhost;
},
{
horizontal = 1;
place = "{498, 21}";
type = Stem;
},
{
place = "{77, 394}";
type = Stem;
}
);
layerId = "E8D61EB5-BB7B-4E1E-8596-56C59CE9CB81";
paths = (
{
closed = 1;
nodes = (
"471 519 LINE",
"100 519 LINE",
"96 498 LINE",
"443 498 LINE",
"77 -188 LINE",
"98 -195 LINE",
"468 500 LINE"
);
}
);
width = 517;
}
);
leftKerningGroup = seven.osf;
note = uni204A;
rightKerningGroup = seven.osf;
unicode = 204A;
},
{
glyphname = exclamdown.case;
lastChange = "2020-10-21 08:49:18 +0000";
layers = (
{
hints = (
{
horizontal = 1;
place = "{0, 21}";
target = up;
type = BottomGhost;
},
{
horizontal = 1;
place = "{716, -20}";
target = down;
type = TopGhost;
},
{
place = "{60, 204}";
type = Stem;
},
{
horizontal = 1;
place = "{510, 206}";
type = Stem;
},
{
place = "{-20, 284}";
type = Stem;
}
);
layerId = "FE8AE7D2-7E60-458F-B844-21CAF2BBDFF5";
paths = (
{
closed = 1;
nodes = (
"110 716 OFFCURVE",
"60 663 OFFCURVE",
"60 601 CURVE SMOOTH",
"60 547 OFFCURVE",
"98 510 OFFCURVE",
"149 510 CURVE SMOOTH",
"214 510 OFFCURVE",
"264 563 OFFCURVE",
"264 623 CURVE SMOOTH",
"264 678 OFFCURVE",
"227 716 OFFCURVE",
"174 716 CURVE SMOOTH"
);
},
{
closed = 1;
nodes = (
"218 426 LINE",
"66 426 LINE",
"-20 0 LINE",
"184 0 LINE"
);
}
);
width = 229;
},
{
hints = (
{
horizontal = 1;
place = "{0, 21}";
target = up;
type = BottomGhost;
},
{
horizontal = 1;
place = "{644, 46}";
type = Stem;
},
{
place = "{157, 47}";
type = Stem;
}
);
layerId = "E8D61EB5-BB7B-4E1E-8596-56C59CE9CB81";
paths = (
{
closed = 1;
nodes = (
"167 690 OFFCURVE",
"157 680 OFFCURVE",
"157 666 CURVE SMOOTH",
"157 653 OFFCURVE",
"165 644 OFFCURVE",
"179 644 CURVE SMOOTH",
"193 644 OFFCURVE",
"204 654 OFFCURVE",
"204 668 CURVE SMOOTH",
"204 680 OFFCURVE",
"195 690 OFFCURVE",
"182 690 CURVE SMOOTH"
);
},
{
closed = 1;
nodes = (
"168 479 LINE",
"147 479 LINE",
"80 0 LINE",
"102 0 LINE"
);
}
);
width = 238;
}
);
leftKerningGroup = exclamdown.case;
note = exclamdown.case;
rightKerningGroup = exclamdown.case;
},
{
glyphname = questiondown.case;
lastChange = "2020-10-21 08:49:18 +0000";
layers = (
{
hints = (
{
horizontal = 1;
place = "{-20, 154}";
type = Stem;
},
{
horizontal = 1;
place = "{716, -20}";
target = down;
type = TopGhost;
},
{
place = "{196, 204}";
type = Stem;
},
{
horizontal = 1;
place = "{510, 206}";
type = Stem;
},
{
place = "{-12, 207}";
type = Stem;
},
{
place = "{208, 175}";
type = Stem;
}
);
layerId = "FE8AE7D2-7E60-458F-B844-21CAF2BBDFF5";
paths = (
{
closed = 1;
nodes = (
"246 716 OFFCURVE",
"196 663 OFFCURVE",
"196 601 CURVE SMOOTH",
"196 547 OFFCURVE",
"234 510 OFFCURVE",
"285 510 CURVE SMOOTH",
"350 510 OFFCURVE",
"400 563 OFFCURVE",
"400 623 CURVE SMOOTH",
"400 678 OFFCURVE",
"363 716 OFFCURVE",
"310 716 CURVE SMOOTH"
);
},
{
closed = 1;
nodes = (
"310 -20 OFFCURVE",
"392 25 OFFCURVE",
"456 91 CURVE",
"349 189 LINE",
"310 154 OFFCURVE",
"273 134 OFFCURVE",
"236 134 CURVE SMOOTH",
"209 134 OFFCURVE",
"195 145 OFFCURVE",
"195 166 CURVE SMOOTH",
"195 248 OFFCURVE",
"383 235 OFFCURVE",
"383 407 CURVE SMOOTH",
"383 423 OFFCURVE",
"381 439 OFFCURVE",
"377 455 CURVE",
"206 430 LINE",
"207 425 OFFCURVE",
"208 417 OFFCURVE",
"208 412 CURVE SMOOTH",
"207 312 OFFCURVE",
"-12 330 OFFCURVE",
"-12 141 CURVE SMOOTH",
"-12 53 OFFCURVE",
"56 -20 OFFCURVE",
"198 -20 CURVE SMOOTH"
);
}
);
width = 483;
},
{
hints = (
{
horizontal = 1;
place = "{-10, 20}";
type = Stem;
},
{
horizontal = 1;
place = "{645, 46}";
type = Stem;
},
{
place = "{37, 22}";
type = Stem;
},
{
place = "{253, 47}";
type = Stem;
},
{
place = "{262, 22}";
type = Stem;
}
);
layerId = "E8D61EB5-BB7B-4E1E-8596-56C59CE9CB81";
paths = (
{
closed = 1;
nodes = (
"263 691 OFFCURVE",
"253 681 OFFCURVE",
"253 667 CURVE SMOOTH",
"253 654 OFFCURVE",
"261 645 OFFCURVE",
"275 645 CURVE SMOOTH",
"289 645 OFFCURVE",
"300 655 OFFCURVE",
"300 670 CURVE SMOOTH",
"300 682 OFFCURVE",
"291 691 OFFCURVE",
"278 691 CURVE SMOOTH"
);
},
{
closed = 1;
nodes = (
"244 -10 OFFCURVE",
"298 17 OFFCURVE",
"357 74 CURVE",
"342 88 LINE",
"287 36 OFFCURVE",
"241 10 OFFCURVE",
"171 10 CURVE SMOOTH",
"100 10 OFFCURVE",
"59 51 OFFCURVE",
"59 106 CURVE SMOOTH",
"59 266 OFFCURVE",
"285 262 OFFCURVE",
"284 411 CURVE SMOOTH",
"284 430 OFFCURVE",
"280 450 OFFCURVE",
"274 469 CURVE",
"254 464 LINE",
"258 449 OFFCURVE",
"262 432 OFFCURVE",
"262 411 CURVE SMOOTH",
"263 274 OFFCURVE",
"37 278 OFFCURVE",
"37 106 CURVE SMOOTH",
"37 41 OFFCURVE",
"84 -10 OFFCURVE",
"171 -10 CURVE SMOOTH"
);
}
);
width = 440;
}
);
leftKerningGroup = questiondown.case;
note = questiondown.case;
rightKerningGroup = questiondown.case;
},
{
glyphname = uni208D;
lastChange = "2020-10-21 08:49:18 +0000";
layers = (
{
hints = (
{
horizontal = 1;
place = "{-346, 668}";
type = Stem;
},
{
place = "{48, 128}";
type = Stem;
}
);
layerId = "FE8AE7D2-7E60-458F-B844-21CAF2BBDFF5";
paths = (
{
closed = 1;
nodes = (
"221 322 LINE",
"115 198 OFFCURVE",
"48 82 OFFCURVE",
"48 -84 CURVE SMOOTH",
"48 -195 OFFCURVE",
"88 -274 OFFCURVE",
"129 -346 CURVE",
"214 -298 LINE",
"190 -246 OFFCURVE",
"176 -186 OFFCURVE",
"176 -102 CURVE SMOOTH",
"176 22 OFFCURVE",
"213 152 OFFCURVE",
"296 264 CURVE"
);
}
);
width = 388;
},
{
hints = (
{
horizontal = 1;
place = "{-318, 612}";
type = Stem;
},
{
place = "{94, 24}";
type = Stem;
}
);
layerId = "E8D61EB5-BB7B-4E1E-8596-56C59CE9CB81";
paths = (
{
closed = 1;
nodes = (
"253 294 LINE",
"154 175 OFFCURVE",
"94 74 OFFCURVE",
"94 -83 CURVE SMOOTH",
"94 -189 OFFCURVE",
"130 -252 OFFCURVE",
"167 -318 CURVE",
"184 -309 LINE",
"149 -245 OFFCURVE",
"118 -182 OFFCURVE",
"118 -83 CURVE SMOOTH",
"118 66 OFFCURVE",
"172 164 OFFCURVE",
"267 282 CURVE"
);
}
);
width = 400;
}
);
leftKerningGroup = uni2080;
note = uni208D;
rightKerningGroup = uni2080;
unicode = 208D;
},
{
glyphname = uni208E;
lastChange = "2020-10-21 08:49:18 +0000";
layers = (
{
hints = (
{
horizontal = 1;
place = "{-346, 668}";
type = Stem;
},
{
place = "{134, 128}";
type = Stem;
}
);
layerId = "FE8AE7D2-7E60-458F-B844-21CAF2BBDFF5";
paths = (
{
closed = 1;
nodes = (
"89 -346 LINE",
"195 -222 OFFCURVE",
"262 -106 OFFCURVE",
"262 60 CURVE SMOOTH",
"262 171 OFFCURVE",
"222 250 OFFCURVE",
"181 322 CURVE",
"96 274 LINE",
"120 222 OFFCURVE",
"134 162 OFFCURVE",
"134 78 CURVE SMOOTH",
"134 -46 OFFCURVE",
"97 -176 OFFCURVE",
"14 -288 CURVE"
);
}
);
width = 389;
},
{
hints = (
{
horizontal = 1;
place = "{-318, 612}";
type = Stem;
},
{
place = "{206, 24}";
type = Stem;
}
);
layerId = "E8D61EB5-BB7B-4E1E-8596-56C59CE9CB81";
paths = (
{
closed = 1;
nodes = (
"71 -318 LINE",
"170 -199 OFFCURVE",
"230 -98 OFFCURVE",
"230 58 CURVE SMOOTH",
"230 165 OFFCURVE",
"194 227 OFFCURVE",
"157 294 CURVE",
"140 285 LINE",
"175 221 OFFCURVE",
"206 158 OFFCURVE",
"206 58 CURVE SMOOTH",
"206 -90 OFFCURVE",
"152 -189 OFFCURVE",
"57 -307 CURVE"
);
}
);
width = 400;
}
);
leftKerningGroup = uni2080;
note = uni208E;
rightKerningGroup = uni2080;
unicode = 208E;
},
{
glyphname = parenleft;
lastChange = "2020-10-21 08:49:18 +0000";
layers = (
{
hints = (
{
horizontal = 1;
place = "{-166, 1034}";
type = Stem;
},
{
place = "{6, 191}";
type = Stem;
}
);
layerId = "FE8AE7D2-7E60-458F-B844-21CAF2BBDFF5";
paths = (
{
closed = 1;
nodes = (
"276 868 LINE",
"107 671 OFFCURVE",
"6 502 OFFCURVE",
"6 238 CURVE SMOOTH",
"6 64 OFFCURVE",
"69 -51 OFFCURVE",
"136 -166 CURVE",
"271 -88 LINE",
"219 5 OFFCURVE",
"197 101 OFFCURVE",
"197 217 CURVE SMOOTH",
"197 418 OFFCURVE",
"258 619 OFFCURVE",
"394 781 CURVE"
);
}
);
width = 313;
},
{
hints = (
{
horizontal = 1;
place = "{-129, 959}";
type = Stem;
},
{
place = "{73, 22}";
type = Stem;
}
);
layerId = "E8D61EB5-BB7B-4E1E-8596-56C59CE9CB81";
paths = (
{
closed = 1;
nodes = (
"321 830 LINE",
"161 639 OFFCURVE",
"73 488 OFFCURVE",
"73 234 CURVE SMOOTH",
"73 78 OFFCURVE",
"125 -19 OFFCURVE",
"187 -129 CURVE",
"203 -121 LINE",
"145 -14 OFFCURVE",
"95 83 OFFCURVE",
"95 234 CURVE SMOOTH",
"95 481 OFFCURVE",
"180 631 OFFCURVE",
"334 820 CURVE"
);
}
);
width = 325;
}
);
leftKerningGroup = parenleft;
note = parenleft;
rightKerningGroup = parenleft;
unicode = 0028;
},
{
glyphname = parenright;
lastChange = "2020-10-21 08:49:18 +0000";
layers = (
{
hints = (
{
horizontal = 1;
place = "{-168, 1034}";
type = Stem;
},
{
place = "{138, 192}";
type = Stem;
}
);
layerId = "FE8AE7D2-7E60-458F-B844-21CAF2BBDFF5";
paths = (
{
closed = 1;
nodes = (
"64 788 LINE",
"117 694 OFFCURVE",
"138 598 OFFCURVE",
"138 480 CURVE SMOOTH",
"138 279 OFFCURVE",
"78 82 OFFCURVE",
"-58 -81 CURVE",
"59 -168 LINE",
"227 25 OFFCURVE",
"330 199 OFFCURVE",
"330 459 CURVE SMOOTH",
"330 635 OFFCURVE",
"267 751 OFFCURVE",
"200 866 CURVE"
);
}
);
width = 313;
},
{
hints = (
{
horizontal = 1;
place = "{-130, 959}";
type = Stem;
},
{
place = "{255, 22}";
type = Stem;
}
);
layerId = "E8D61EB5-BB7B-4E1E-8596-56C59CE9CB81";
paths = (
{
closed = 1;
nodes = (
"148 821 LINE",
"205 716 OFFCURVE",
"255 617 OFFCURVE",
"255 467 CURVE SMOOTH",
"255 219 OFFCURVE",
"171 70 OFFCURVE",
"16 -120 CURVE",
"30 -130 LINE",
"190 61 OFFCURVE",
"277 212 OFFCURVE",
"277 467 CURVE SMOOTH",
"277 622 OFFCURVE",
"224 720 OFFCURVE",
"164 829 CURVE"
);
}
);
width = 325;
}
);
leftKerningGroup = parenright;
note = parenright;
unicode = 0029;
},
{
glyphname = braceleft;
lastChange = "2020-10-21 08:49:18 +0000";
layers = (
{
hints = (
{
horizontal = 1;
place = "{-142, 134}";
type = Stem;
},
{
horizontal = 1;
place = "{708, 134}";
type = Stem;
},
{
place = "{49.29, 183.63}";
type = Stem;
},
{
place = "{22.63, 185.37}";
type = Stem;
}
);
layerId = "FE8AE7D2-7E60-458F-B844-21CAF2BBDFF5";
paths = (
{
closed = 1;
nodes = (
"381 842 LINE",
"177 842 OFFCURVE",
"130 780 OFFCURVE",
"114 669 CURVE SMOOTH",
"93 516 LINE SMOOTH",
"85 456 OFFCURVE",
"69 431 OFFCURVE",
"19 431 CURVE",
"-4 269 LINE",
"48 269 OFFCURVE",
"55 246 OFFCURVE",
"46 186 CURVE SMOOTH",
"25 33 LINE SMOOTH",
"10 -77 OFFCURVE",
"62 -142 OFFCURVE",
"245 -142 CURVE",
"261 -8 LINE",
"208 -8 OFFCURVE",
"203 6 OFFCURVE",
"208 45 CURVE SMOOTH",
"230 199 LINE SMOOTH",
"245 305 OFFCURVE",
"201 336 OFFCURVE",
"132 348 CURVE",
"209 366 OFFCURVE",
"257 400 OFFCURVE",
"271 499 CURVE SMOOTH",
"292 653 LINE SMOOTH",
"298 692 OFFCURVE",
"309 708 OFFCURVE",
"363 708 CURVE"
);
}
);
width = 313;
},
{
hints = (
{
horizontal = 1;
place = "{-120, 17}";
type = Stem;
},
{
horizontal = 1;
place = "{339, 20}";
type = Stem;
},
{
horizontal = 1;
place = "{801, 17}";
type = Stem;
},
{
place = "{105, 17.95}";
type = Stem;
},
{
place = "{76, 25}";
type = Stem;
},
{
place = "{145, 18}";
type = Stem;
}
);
layerId = "E8D61EB5-BB7B-4E1E-8596-56C59CE9CB81";
paths = (
{
closed = 1;
nodes = (
"322 818 LINE",
"257 818 OFFCURVE",
"218 788 OFFCURVE",
"208 716 CURVE SMOOTH",
"169 433 LINE SMOOTH",
"161 380 OFFCURVE",
"124 359 OFFCURVE",
"77 359 CURVE",
"75 339 LINE",
"123 339 OFFCURVE",
"152 319 OFFCURVE",
"145 267 CURVE SMOOTH",
"105 -17 LINE SMOOTH",
"95 -89 OFFCURVE",
"129 -120 OFFCURVE",
"191 -120 CURVE",
"192 -103 LINE",
"135 -103 OFFCURVE",
"116 -76 OFFCURVE",
"125 -14 CURVE SMOOTH",
"163 257 LINE SMOOTH",
"172 319 OFFCURVE",
"149 342 OFFCURVE",
"101 349 CURVE",
"153 356 OFFCURVE",
"181 379 OFFCURVE",
"189 440 CURVE SMOOTH",
"227 711 LINE SMOOTH",
"236 772 OFFCURVE",
"264 801 OFFCURVE",
"321 801 CURVE"
);
}
);
width = 328;
}
);
leftKerningGroup = braceleft;
note = braceleft;
rightKerningGroup = braceleft;
unicode = 007B;
},
{
glyphname = braceright;
lastChange = "2020-10-21 08:49:18 +0000";
layers = (
{
hints = (
{
horizontal = 1;
place = "{-142, 134}";
type = Stem;
},
{
horizontal = 1;
place = "{708, 134}";
type = Stem;
},
{
place = "{104.06, 183.64}";
type = Stem;
},
{
place = "{129, 185.35}";
type = Stem;
}
);
layerId = "FE8AE7D2-7E60-458F-B844-21CAF2BBDFF5";
paths = (
{
closed = 1;
nodes = (
"-44 -142 LINE",
"160 -142 OFFCURVE",
"207 -80 OFFCURVE",
"223 31 CURVE SMOOTH",
"244 184 LINE SMOOTH",
"252 244 OFFCURVE",
"268 269 OFFCURVE",
"318 269 CURVE",
"341 431 LINE",
"289 431 OFFCURVE",
"282 454 OFFCURVE",
"291 514 CURVE SMOOTH",
"312 667 LINE SMOOTH",
"327 777 OFFCURVE",
"275 842 OFFCURVE",
"92 842 CURVE",
"76 708 LINE",
"129 708 OFFCURVE",
"134 694 OFFCURVE",
"129 655 CURVE SMOOTH",
"107 501 LINE SMOOTH",
"92 395 OFFCURVE",
"136 364 OFFCURVE",
"205 352 CURVE",
"128 334 OFFCURVE",
"80 300 OFFCURVE",
"66 201 CURVE SMOOTH",
"45 47 LINE SMOOTH",
"39 8 OFFCURVE",
"28 -8 OFFCURVE",
"-26 -8 CURVE"
);
}
);
width = 314;
},
{
hints = (
{
horizontal = 1;
place = "{-120, 17}";
type = Stem;
},
{
horizontal = 1;
place = "{339, 20}";
type = Stem;
},
{
horizontal = 1;
place = "{801, 17}";
type = Stem;
},
{
place = "{230.04, 17.96}";
type = Stem;
},
{
place = "{190, 18}";
type = Stem;
},
{
place = "{252, 25}";
type = Stem;
}
);
layerId = "E8D61EB5-BB7B-4E1E-8596-56C59CE9CB81";
paths = (
{
closed = 1;
nodes = (
"32 -120 LINE",
"93 -120 OFFCURVE",
"135 -90 OFFCURVE",
"145 -18 CURVE SMOOTH",
"185 265 LINE SMOOTH",
"193 318 OFFCURVE",
"229 339 OFFCURVE",
"276 339 CURVE",
"278 359 LINE",
"230 359 OFFCURVE",
"201 379 OFFCURVE",
"208 431 CURVE SMOOTH",
"248 715 LINE SMOOTH",
"258 787 OFFCURVE",
"220 818 OFFCURVE",
"162 818 CURVE",
"161 801 LINE",
"218 801 OFFCURVE",
"237 774 OFFCURVE",
"228 712 CURVE SMOOTH",
"190 441 LINE SMOOTH",
"181 379 OFFCURVE",
"204 356 OFFCURVE",
"252 349 CURVE",
"200 342 OFFCURVE",
"172 319 OFFCURVE",
"164 258 CURVE SMOOTH",
"126 -13 LINE SMOOTH",
"117 -74 OFFCURVE",
"89 -103 OFFCURVE",
"32 -103 CURVE"
);
}
);
width = 328;
}
);
leftKerningGroup = braceright;
note = braceright;
unicode = 007D;
},
{
glyphname = bracketleft;
lastChange = "2020-10-21 08:49:18 +0000";
layers = (
{
hints = (
{
horizontal = 1;
place = "{-127, 142}";
type = Stem;
},
{
horizontal = 1;
place = "{684, 143}";
type = Stem;
},
{
place = "{-44, 429}";
type = Stem;
}
);
layerId = "FE8AE7D2-7E60-458F-B844-21CAF2BBDFF5";
paths = (
{
closed = 1;
nodes = (
"385 827 LINE",
"91 827 LINE",
"-44 -127 LINE",
"251 -127 LINE",
"271 15 LINE",
"161 15 LINE",
"255 684 LINE",
"365 684 LINE"
);
}
);
width = 313;
},
{
hints = (
{
horizontal = 1;
place = "{-106, 17}";
type = Stem;
},
{
horizontal = 1;
place = "{779, 17}";
type = Stem;
},
{
place = "{51, 254}";
type = Stem;
}
);
layerId = "E8D61EB5-BB7B-4E1E-8596-56C59CE9CB81";
paths = (
{
closed = 1;
nodes = (
"305 796 LINE",
"179 796 LINE",
"51 -106 LINE",
"178 -106 LINE",
"180 -89 LINE",
"73 -89 LINE",
"196 779 LINE",
"303 779 LINE"
);
}
);
width = 312;
}
);
leftKerningGroup = bracketleft;
note = bracketleft;
rightKerningGroup = bracketleft;
unicode = 005B;
},
{
glyphname = bracketright;
lastChange = "2020-10-21 08:49:18 +0000";
layers = (
{
hints = (
{
horizontal = 1;
place = "{-127, 143}";
type = Stem;
},
{
horizontal = 1;
place = "{685, 142}";
type = Stem;
},
{
place = "{-48, 429}";
type = Stem;
}
);
layerId = "FE8AE7D2-7E60-458F-B844-21CAF2BBDFF5";
paths = (
{
closed = 1;
nodes = (
"381 827 LINE",
"87 827 LINE",
"67 685 LINE",
"177 685 LINE",
"83 16 LINE",
"-27 16 LINE",
"-48 -127 LINE",
"247 -127 LINE"
);
}
);
width = 313;
},
{
hints = (
{
horizontal = 1;
place = "{-106, 17}";
type = Stem;
},
{
horizontal = 1;
place = "{779, 17}";
type = Stem;
},
{
place = "{31, 254}";
type = Stem;
}
);
layerId = "E8D61EB5-BB7B-4E1E-8596-56C59CE9CB81";
paths = (
{
closed = 1;
nodes = (
"285 796 LINE",
"158 796 LINE",
"156 779 LINE",
"263 779 LINE",
"140 -89 LINE",
"33 -89 LINE",
"31 -106 LINE",
"158 -106 LINE"
);
}
);
width = 312;
}
);
leftKerningGroup = bracketright;
note = bracketright;
unicode = 005D;
},
{
glyphname = uni207D;
lastChange = "2020-10-21 08:49:18 +0000";
layers = (
{
hints = (
{
horizontal = 1;
place = "{748, -20}";
target = down;
type = TopGhost;
},
{
place = "{116, 128}";
type = Stem;
}
);
layerId = "FE8AE7D2-7E60-458F-B844-21CAF2BBDFF5";
paths = (
{
closed = 1;
nodes = (
"289 806 LINE",
"183 682 OFFCURVE",
"116 566 OFFCURVE",
"116 400 CURVE SMOOTH",
"116 289 OFFCURVE",
"156 210 OFFCURVE",
"197 138 CURVE",
"282 186 LINE",
"258 238 OFFCURVE",
"244 298 OFFCURVE",
"244 382 CURVE SMOOTH",
"244 506 OFFCURVE",
"281 636 OFFCURVE",
"364 748 CURVE"
);
}
);
width = 388;
},
{
hints = (
{
horizontal = 1;
place = "{166, 612}";
type = Stem;
},
{
place = "{162, 24}";
type = Stem;
}
);
layerId = "E8D61EB5-BB7B-4E1E-8596-56C59CE9CB81";
paths = (
{
closed = 1;
nodes = (
"321 778 LINE",
"222 659 OFFCURVE",
"162 558 OFFCURVE",
"162 401 CURVE SMOOTH",
"162 295 OFFCURVE",
"198 232 OFFCURVE",
"235 166 CURVE",
"252 175 LINE",
"217 239 OFFCURVE",
"186 302 OFFCURVE",
"186 401 CURVE SMOOTH",
"186 550 OFFCURVE",
"240 648 OFFCURVE",
"335 766 CURVE"
);
}
);
width = 400;
}
);
leftKerningGroup = zero.numr;
note = uni207D;
rightKerningGroup = zero.numr;
unicode = 207D;
},
{
glyphname = uni207E;
lastChange = "2020-10-21 08:49:18 +0000";
layers = (
{
hints = (
{
horizontal = 1;
place = "{138, 668}";
type = Stem;
},
{
place = "{202, 128}";
type = Stem;
}
);
layerId = "FE8AE7D2-7E60-458F-B844-21CAF2BBDFF5";
paths = (
{
closed = 1;
nodes = (
"157 138 LINE",
"263 262 OFFCURVE",
"330 378 OFFCURVE",
"330 544 CURVE SMOOTH",
"330 655 OFFCURVE",
"290 734 OFFCURVE",
"249 806 CURVE",
"164 758 LINE",
"188 706 OFFCURVE",
"202 646 OFFCURVE",
"202 562 CURVE SMOOTH",
"202 438 OFFCURVE",
"165 308 OFFCURVE",
"82 196 CURVE"
);
}
);
width = 389;
},
{
hints = (
{
horizontal = 1;
place = "{166, 612}";
type = Stem;
},
{
place = "{274, 24}";
type = Stem;
}
);
layerId = "E8D61EB5-BB7B-4E1E-8596-56C59CE9CB81";
paths = (
{
closed = 1;
nodes = (
"139 166 LINE",
"238 285 OFFCURVE",
"298 386 OFFCURVE",
"298 542 CURVE SMOOTH",
"298 649 OFFCURVE",
"262 711 OFFCURVE",
"225 778 CURVE",
"208 769 LINE",
"243 705 OFFCURVE",
"274 642 OFFCURVE",
"274 542 CURVE SMOOTH",
"274 394 OFFCURVE",
"220 295 OFFCURVE",
"125 177 CURVE"
);
}
);
width = 400;
}
);
leftKerningGroup = zero.numr;
note = uni207E;
rightKerningGroup = zero.numr;
unicode = 207E;
},
{
glyphname = parenleft.case;
lastChange = "2020-10-21 08:49:18 +0000";
layers = (
{
hints = (
{
horizontal = 1;
place = "{-176, 1034}";
type = Stem;
},
{
place = "{5, 191}";
type = Stem;
}
);
layerId = "FE8AE7D2-7E60-458F-B844-21CAF2BBDFF5";
paths = (
{
closed = 1;
nodes = (
"275 858 LINE",
"106 661 OFFCURVE",
"5 492 OFFCURVE",
"5 228 CURVE SMOOTH",
"5 54 OFFCURVE",
"68 -61 OFFCURVE",
"135 -176 CURVE",
"270 -98 LINE",
"218 -5 OFFCURVE",
"196 91 OFFCURVE",
"196 207 CURVE SMOOTH",
"196 408 OFFCURVE",
"257 609 OFFCURVE",
"393 771 CURVE"
);
}
);
width = 313;
},
{
hints = (
{
horizontal = 1;
place = "{-139, 959}";
type = Stem;
},
{
place = "{72, 22}";
type = Stem;
}
);
layerId = "E8D61EB5-BB7B-4E1E-8596-56C59CE9CB81";
paths = (
{
closed = 1;
nodes = (
"320 820 LINE",
"160 629 OFFCURVE",
"72 478 OFFCURVE",
"72 224 CURVE SMOOTH",
"72 68 OFFCURVE",
"124 -29 OFFCURVE",
"186 -139 CURVE",
"202 -131 LINE",
"144 -24 OFFCURVE",
"94 73 OFFCURVE",
"94 224 CURVE SMOOTH",
"94 471 OFFCURVE",
"179 621 OFFCURVE",
"333 810 CURVE"
);
}
);
width = 326;
}
);
leftKerningGroup = parenleft;
note = parenleft.case;
rightKerningGroup = parenleft;
},
{
glyphname = parenright.case;
lastChange = "2020-10-21 08:49:18 +0000";
layers = (
{
hints = (
{
horizontal = 1;
place = "{-178, 1034}";
type = Stem;
},
{
place = "{137, 192}";
type = Stem;
}
);
layerId = "FE8AE7D2-7E60-458F-B844-21CAF2BBDFF5";
paths = (
{
closed = 1;
nodes = (
"63 778 LINE",
"116 684 OFFCURVE",
"137 588 OFFCURVE",
"137 470 CURVE SMOOTH",
"137 269 OFFCURVE",
"77 72 OFFCURVE",
"-59 -91 CURVE",
"58 -178 LINE",
"226 15 OFFCURVE",
"329 189 OFFCURVE",
"329 449 CURVE SMOOTH",
"329 625 OFFCURVE",
"266 741 OFFCURVE",
"199 856 CURVE"
);
}
);
width = 313;
},
{
hints = (
{
horizontal = 1;
place = "{-140, 959}";
type = Stem;
},
{
place = "{253, 22}";
type = Stem;
}
);
layerId = "E8D61EB5-BB7B-4E1E-8596-56C59CE9CB81";
paths = (
{
closed = 1;
nodes = (
"146 811 LINE",
"204 706 OFFCURVE",
"253 607 OFFCURVE",
"253 457 CURVE SMOOTH",
"253 209 OFFCURVE",
"169 60 OFFCURVE",
"14 -130 CURVE",
"28 -140 LINE",
"189 51 OFFCURVE",
"275 202 OFFCURVE",
"275 457 CURVE SMOOTH",
"275 612 OFFCURVE",
"223 710 OFFCURVE",
"162 819 CURVE"
);
}
);
width = 324;
}
);
leftKerningGroup = parenright;
note = parenright.case;
},
{
glyphname = braceleft.case;
lastChange = "2020-10-21 08:49:18 +0000";
layers = (
{
hints = (
{
horizontal = 1;
place = "{-152, 134}";
type = Stem;
},
{
horizontal = 1;
place = "{698, 134}";
type = Stem;
},
{
place = "{48.29, 183.63}";
type = Stem;
},
{
place = "{21.63, 185.37}";
type = Stem;
}
);
layerId = "FE8AE7D2-7E60-458F-B844-21CAF2BBDFF5";
paths = (
{
closed = 1;
nodes = (
"380 832 LINE",
"176 832 OFFCURVE",
"129 770 OFFCURVE",
"113 659 CURVE SMOOTH",
"92 506 LINE SMOOTH",
"84 446 OFFCURVE",
"68 421 OFFCURVE",
"18 421 CURVE",
"-5 259 LINE",
"47 259 OFFCURVE",
"54 236 OFFCURVE",
"45 176 CURVE SMOOTH",
"24 23 LINE SMOOTH",
"9 -87 OFFCURVE",
"61 -152 OFFCURVE",
"244 -152 CURVE",
"260 -18 LINE",
"207 -18 OFFCURVE",
"202 -4 OFFCURVE",
"207 35 CURVE SMOOTH",
"229 189 LINE SMOOTH",
"244 295 OFFCURVE",
"200 326 OFFCURVE",
"131 338 CURVE",
"208 356 OFFCURVE",
"256 390 OFFCURVE",
"270 489 CURVE SMOOTH",
"291 643 LINE SMOOTH",
"297 682 OFFCURVE",
"308 698 OFFCURVE",
"362 698 CURVE"
);
}
);
width = 314;
},
{
hints = (
{
horizontal = 1;
place = "{-130, 17}";
type = Stem;
},
{
horizontal = 1;
place = "{329, 20}";
type = Stem;
},
{
horizontal = 1;
place = "{791, 17}";
type = Stem;
},
{
place = "{75, 25}";
type = Stem;
},
{
place = "{144, 18}";
type = Stem;
},
{
place = "{104, 19}";
type = Stem;
}
);
layerId = "E8D61EB5-BB7B-4E1E-8596-56C59CE9CB81";
paths = (
{
closed = 1;
nodes = (
"320 808 LINE",
"256 808 OFFCURVE",
"217 778 OFFCURVE",
"207 706 CURVE SMOOTH",
"167 423 LINE SMOOTH",
"159 370 OFFCURVE",
"122 349 OFFCURVE",
"76 349 CURVE",
"74 329 LINE",
"121 329 OFFCURVE",
"151 309 OFFCURVE",
"144 257 CURVE SMOOTH",
"104 -27 LINE SMOOTH",
"94 -99 OFFCURVE",
"127 -130 OFFCURVE",
"190 -130 CURVE",
"191 -113 LINE",
"134 -113 OFFCURVE",
"115 -86 OFFCURVE",
"123 -24 CURVE SMOOTH",
"162 247 LINE SMOOTH",
"171 309 OFFCURVE",
"148 332 OFFCURVE",
"100 339 CURVE",
"152 346 OFFCURVE",
"179 369 OFFCURVE",
"188 430 CURVE SMOOTH",
"226 701 LINE SMOOTH",
"235 762 OFFCURVE",
"263 791 OFFCURVE",
"320 791 CURVE"
);
}
);
width = 329;
}
);
leftKerningGroup = braceleft;
note = braceleft.case;
rightKerningGroup = braceleft;
},
{
glyphname = braceright.case;
lastChange = "2020-10-21 08:49:18 +0000";
layers = (
{
hints = (
{
horizontal = 1;
place = "{-152, 134}";
type = Stem;
},
{
horizontal = 1;
place = "{698, 134}";
type = Stem;
},
{
place = "{102.06, 183.64}";
type = Stem;
},
{
place = "{127, 185.35}";
type = Stem;
}
);
layerId = "FE8AE7D2-7E60-458F-B844-21CAF2BBDFF5";
paths = (
{
closed = 1;
nodes = (
"-46 -152 LINE",
"158 -152 OFFCURVE",
"205 -90 OFFCURVE",
"221 21 CURVE SMOOTH",
"242 174 LINE SMOOTH",
"250 234 OFFCURVE",
"266 259 OFFCURVE",
"316 259 CURVE",
"339 421 LINE",
"287 421 OFFCURVE",
"280 444 OFFCURVE",
"289 504 CURVE SMOOTH",
"310 657 LINE SMOOTH",
"325 767 OFFCURVE",
"273 832 OFFCURVE",
"90 832 CURVE",
"74 698 LINE",
"127 698 OFFCURVE",
"132 684 OFFCURVE",
"127 645 CURVE SMOOTH",
"105 491 LINE SMOOTH",
"90 385 OFFCURVE",
"134 354 OFFCURVE",
"203 342 CURVE",
"126 324 OFFCURVE",
"78 290 OFFCURVE",
"64 191 CURVE SMOOTH",
"43 37 LINE SMOOTH",
"37 -2 OFFCURVE",
"26 -18 OFFCURVE",
"-28 -18 CURVE"
);
}
);
width = 313;
},
{
hints = (
{
horizontal = 1;
place = "{-130, 17}";
type = Stem;
},
{
horizontal = 1;
place = "{329, 20}";
type = Stem;
},
{
horizontal = 1;
place = "{791, 17}";
type = Stem;
},
{
place = "{229.04, 17.96}";
type = Stem;
},
{
place = "{189, 18}";
type = Stem;
},
{
place = "{251, 25}";
type = Stem;
}
);
layerId = "E8D61EB5-BB7B-4E1E-8596-56C59CE9CB81";
paths = (
{
closed = 1;
nodes = (
"31 -130 LINE",
"92 -130 OFFCURVE",
"134 -100 OFFCURVE",
"144 -28 CURVE SMOOTH",
"184 255 LINE SMOOTH",
"192 308 OFFCURVE",
"228 329 OFFCURVE",
"275 329 CURVE",
"277 349 LINE",
"229 349 OFFCURVE",
"200 369 OFFCURVE",
"207 421 CURVE SMOOTH",
"247 705 LINE SMOOTH",
"257 777 OFFCURVE",
"219 808 OFFCURVE",
"161 808 CURVE",
"160 791 LINE",
"217 791 OFFCURVE",
"236 764 OFFCURVE",
"227 702 CURVE SMOOTH",
"189 431 LINE SMOOTH",
"180 369 OFFCURVE",
"203 346 OFFCURVE",
"251 339 CURVE",
"199 332 OFFCURVE",
"171 309 OFFCURVE",
"163 248 CURVE SMOOTH",
"125 -23 LINE SMOOTH",
"116 -84 OFFCURVE",
"88 -113 OFFCURVE",
"31 -113 CURVE"
);
}
);
width = 329;
}
);
leftKerningGroup = braceright;
note = braceright.case;
},
{
glyphname = bracketleft.case;
lastChange = "2020-10-21 08:49:18 +0000";
layers = (
{
hints = (
{
horizontal = 1;
place = "{-137, 142}";
type = Stem;
},
{
horizontal = 1;
place = "{674, 143}";
type = Stem;
},
{
place = "{-46, 429}";
type = Stem;
}
);
layerId = "FE8AE7D2-7E60-458F-B844-21CAF2BBDFF5";
paths = (
{
closed = 1;
nodes = (
"383 817 LINE",
"89 817 LINE",
"-46 -137 LINE",
"249 -137 LINE",
"269 5 LINE",
"159 5 LINE",
"253 674 LINE",
"363 674 LINE"
);
}
);
width = 313;
},
{
hints = (
{
horizontal = 1;
place = "{-116, 17}";
type = Stem;
},
{
horizontal = 1;
place = "{769, 17}";
type = Stem;
},
{
place = "{50, 254}";
type = Stem;
}
);
layerId = "E8D61EB5-BB7B-4E1E-8596-56C59CE9CB81";
paths = (
{
closed = 1;
nodes = (
"304 786 LINE",
"177 786 LINE",
"50 -116 LINE",
"176 -116 LINE",
"178 -99 LINE",
"72 -99 LINE",
"195 769 LINE",
"302 769 LINE"
);
}
);
width = 313;
}
);
leftKerningGroup = bracketleft;
note = bracketleft.case;
rightKerningGroup = bracketleft;
},
{
glyphname = bracketright.case;
lastChange = "2020-10-21 08:49:18 +0000";
layers = (
{
hints = (
{
horizontal = 1;
place = "{-137, 143}";
type = Stem;
},
{
horizontal = 1;
place = "{675, 142}";
type = Stem;
},
{
place = "{-50, 429}";
type = Stem;
}
);
layerId = "FE8AE7D2-7E60-458F-B844-21CAF2BBDFF5";
paths = (
{
closed = 1;
nodes = (
"379 817 LINE",
"85 817 LINE",
"65 675 LINE",
"175 675 LINE",
"81 6 LINE",
"-29 6 LINE",
"-50 -137 LINE",
"245 -137 LINE"
);
}
);
width = 313;
},
{
hints = (
{
horizontal = 1;
place = "{-116, 17}";
type = Stem;
},
{
horizontal = 1;
place = "{769, 17}";
type = Stem;
},
{
place = "{30, 254}";
type = Stem;
}
);
layerId = "E8D61EB5-BB7B-4E1E-8596-56C59CE9CB81";
paths = (
{
closed = 1;
nodes = (
"284 786 LINE",
"157 786 LINE",
"155 769 LINE",
"261 769 LINE",
"139 -99 LINE",
"32 -99 LINE",
"30 -116 LINE",
"157 -116 LINE"
);
}
);
width = 313;
}
);
leftKerningGroup = bracketright;
note = bracketright.case;
},
{
glyphname = hyphen;
lastChange = "2020-10-21 08:49:18 +0000";
layers = (
{
hints = (
{
horizontal = 1;
place = "{238, 150}";
type = Stem;
},
{
place = "{29, 354}";
type = Stem;
}
);
layerId = "FE8AE7D2-7E60-458F-B844-21CAF2BBDFF5";
paths = (
{
closed = 1;
nodes = (
"29 238 LINE",
"363 238 LINE",
"383 388 LINE",
"49 388 LINE"
);
}
);
width = 399;
},
{
hints = (
{
horizontal = 1;
place = "{302, 21}";
type = Stem;
},
{
place = "{84, 246}";
type = Stem;
}
);
layerId = "E8D61EB5-BB7B-4E1E-8596-56C59CE9CB81";
paths = (
{
closed = 1;
nodes = (
"84 302 LINE",
"327 302 LINE",
"330 323 LINE",
"87 323 LINE"
);
}
);
width = 399;
}
);
leftKerningGroup = periodcentered;
note = hyphen;
rightKerningGroup = periodcentered;
unicode = 002D;
},
{
glyphname = uni00AD;
lastChange = "2020-10-21 08:49:18 +0000";
layers = (
{
hints = (
{
horizontal = 1;
place = "{238, 150}";
type = Stem;
},
{
place = "{29, 354}";
type = Stem;
}
);
layerId = "FE8AE7D2-7E60-458F-B844-21CAF2BBDFF5";
paths = (
{
closed = 1;
nodes = (
"29 238 LINE",
"363 238 LINE",
"383 388 LINE",
"49 388 LINE"
);
}
);
width = 399;
},
{
hints = (
{
horizontal = 1;
place = "{302, 21}";
type = Stem;
},
{
place = "{84, 246}";
type = Stem;
}
);
layerId = "E8D61EB5-BB7B-4E1E-8596-56C59CE9CB81";
paths = (
{
closed = 1;
nodes = (
"84 302 LINE",
"327 302 LINE",
"330 323 LINE",
"87 323 LINE"
);
}
);
width = 399;
}
);
leftKerningGroup = periodcentered;
note = uni00AD;
rightKerningGroup = periodcentered;
unicode = 00AD;
},
{
glyphname = endash;
lastChange = "2020-10-21 08:49:18 +0000";
layers = (
{
hints = (
{
horizontal = 1;
place = "{238, 150}";
type = Stem;
},
{
place = "{10, 501}";
type = Stem;
}
);
layerId = "FE8AE7D2-7E60-458F-B844-21CAF2BBDFF5";
paths = (
{
closed = 1;
nodes = (
"10 238 LINE",
"490 238 LINE",
"511 388 LINE",
"31 388 LINE"
);
}
);
width = 508;
},
{
hints = (
{
horizontal = 1;
place = "{302, 21}";
type = Stem;
},
{
place = "{55, 425}";
type = Stem;
}
);
layerId = "E8D61EB5-BB7B-4E1E-8596-56C59CE9CB81";
paths = (
{
closed = 1;
nodes = (
"55 302 LINE",
"477 302 LINE",
"480 323 LINE",
"58 323 LINE"
);
}
);
width = 520;
}
);
leftKerningGroup = periodcentered;
note = endash;
rightKerningGroup = periodcentered;
unicode = 2013;
},
{
glyphname = emdash;
lastChange = "2020-10-21 08:49:18 +0000";
layers = (
{
hints = (
{
horizontal = 1;
place = "{238, 150}";
type = Stem;
},
{
place = "{10, 775}";
type = Stem;
}
);
layerId = "FE8AE7D2-7E60-458F-B844-21CAF2BBDFF5";
paths = (
{
closed = 1;
nodes = (
"10 238 LINE",
"764 238 LINE",
"785 388 LINE",
"31 388 LINE"
);
}
);
width = 782;
},
{
hints = (
{
horizontal = 1;
place = "{303, 20}";
type = Stem;
},
{
place = "{55, 680}";
type = Stem;
}
);
layerId = "E8D61EB5-BB7B-4E1E-8596-56C59CE9CB81";
paths = (
{
closed = 1;
nodes = (
"55 303 LINE",
"733 303 LINE",
"735 323 LINE",
"58 323 LINE"
);
}
);
width = 775;
}
);
leftKerningGroup = periodcentered;
note = emdash;
rightKerningGroup = periodcentered;
unicode = 2014;
},
{
glyphname = figuredash;
lastChange = "2020-10-21 08:49:18 +0000";
layers = (
{
hints = (
{
horizontal = 1;
place = "{258, 150}";
type = Stem;
},
{
place = "{8, 551}";
type = Stem;
}
);
layerId = "FE8AE7D2-7E60-458F-B844-21CAF2BBDFF5";
paths = (
{
closed = 1;
nodes = (
"8 258 LINE",
"538 258 LINE",
"559 408 LINE",
"29 408 LINE"
);
}
);
width = 548;
},
{
hints = (
{
horizontal = 1;
place = "{323, 20}";
type = Stem;
},
{
place = "{54, 473}";
type = Stem;
}
);
layerId = "E8D61EB5-BB7B-4E1E-8596-56C59CE9CB81";
paths = (
{
closed = 1;
nodes = (
"54 323 LINE",
"524 323 LINE",
"527 343 LINE",
"57 343 LINE"
);
}
);
width = 560;
}
);
leftKerningGroup = periodcentered;
note = figuredash;
rightKerningGroup = periodcentered;
unicode = 2012;
},
{
glyphname = underscore;
lastChange = "2020-10-21 08:49:18 +0000";
layers = (
{
hints = (
{
horizontal = 1;
place = "{-188, 150}";
type = Stem;
},
{
place = "{-60, 521}";
type = Stem;
}
);
layerId = "FE8AE7D2-7E60-458F-B844-21CAF2BBDFF5";
paths = (
{
closed = 1;
nodes = (
"-60 -188 LINE",
"440 -188 LINE",
"461 -38 LINE",
"-39 -38 LINE"
);
}
);
width = 508;
},
{
hints = (
{
horizontal = 1;
place = "{-100, 21}";
type = Stem;
},
{
place = "{-8, 439}";
type = Stem;
}
);
layerId = "E8D61EB5-BB7B-4E1E-8596-56C59CE9CB81";
paths = (
{
closed = 1;
nodes = (
"-8 -100 LINE",
"428 -100 LINE",
"431 -79 LINE",
"-5 -79 LINE"
);
}
);
width = 520;
}
);
leftKerningGroup = uni203F;
note = underscore;
rightKerningGroup = uni203F;
unicode = 005F;
},
{
glyphname = uni2010;
lastChange = "2020-10-21 08:49:18 +0000";
layers = (
{
hints = (
{
horizontal = 1;
place = "{238, 150}";
type = Stem;
},
{
place = "{29, 354}";
type = Stem;
}
);
layerId = "FE8AE7D2-7E60-458F-B844-21CAF2BBDFF5";
paths = (
{
closed = 1;
nodes = (
"29 238 LINE",
"363 238 LINE",
"383 388 LINE",
"49 388 LINE"
);
}
);
width = 399;
},
{
hints = (
{
horizontal = 1;
place = "{302, 21}";
type = Stem;
},
{
place = "{84, 246}";
type = Stem;
}
);
layerId = "E8D61EB5-BB7B-4E1E-8596-56C59CE9CB81";
paths = (
{
closed = 1;
nodes = (
"84 302 LINE",
"327 302 LINE",
"330 323 LINE",
"87 323 LINE"
);
}
);
width = 380;
}
);
leftKerningGroup = periodcentered;
note = uni2010;
rightKerningGroup = periodcentered;
unicode = 2010;
},
{
glyphname = uni2011;
lastChange = "2020-10-21 08:49:18 +0000";
layers = (
{
hints = (
{
horizontal = 1;
place = "{238, 150}";
type = Stem;
},
{
place = "{29, 354}";
type = Stem;
}
);
layerId = "FE8AE7D2-7E60-458F-B844-21CAF2BBDFF5";
paths = (
{
closed = 1;
nodes = (
"29 238 LINE",
"363 238 LINE",
"383 388 LINE",
"49 388 LINE"
);
}
);
width = 399;
},
{
hints = (
{
horizontal = 1;
place = "{302, 21}";
type = Stem;
},
{
place = "{84, 246}";
type = Stem;
}
);
layerId = "E8D61EB5-BB7B-4E1E-8596-56C59CE9CB81";
paths = (
{
closed = 1;
nodes = (
"84 302 LINE",
"327 302 LINE",
"330 323 LINE",
"87 323 LINE"
);
}
);
width = 380;
}
);
leftKerningGroup = periodcentered;
note = uni2011;
rightKerningGroup = periodcentered;
unicode = 2011;
},
{
glyphname = uni2015;
lastChange = "2020-10-21 08:49:18 +0000";
layers = (
{
hints = (
{
horizontal = 1;
place = "{238, 150}";
type = Stem;
},
{
place = "{10, 501}";
type = Stem;
}
);
layerId = "FE8AE7D2-7E60-458F-B844-21CAF2BBDFF5";
paths = (
{
closed = 1;
nodes = (
"10 238 LINE",
"490 238 LINE",
"511 388 LINE",
"31 388 LINE"
);
}
);
width = 508;
},
{
hints = (
{
horizontal = 1;
place = "{302, 21}";
type = Stem;
},
{
place = "{55, 425}";
type = Stem;
}
);
layerId = "E8D61EB5-BB7B-4E1E-8596-56C59CE9CB81";
paths = (
{
closed = 1;
nodes = (
"55 302 LINE",
"477 302 LINE",
"480 323 LINE",
"58 323 LINE"
);
}
);
width = 520;
}
);
leftKerningGroup = periodcentered;
note = uni2015;
rightKerningGroup = periodcentered;
unicode = 2015;
},
{
glyphname = hyphen.case;
lastChange = "2020-10-21 08:49:18 +0000";
layers = (
{
hints = (
{
horizontal = 1;
place = "{283, 150}";
type = Stem;
},
{
place = "{35, 354}";
type = Stem;
}
);
layerId = "FE8AE7D2-7E60-458F-B844-21CAF2BBDFF5";
paths = (
{
closed = 1;
nodes = (
"35 283 LINE",
"369 283 LINE",
"389 433 LINE",
"55 433 LINE"
);
}
);
width = 399;
},
{
hints = (
{
horizontal = 1;
place = "{347, 21}";
type = Stem;
},
{
place = "{90, 247}";
type = Stem;
}
);
layerId = "E8D61EB5-BB7B-4E1E-8596-56C59CE9CB81";
paths = (
{
closed = 1;
nodes = (
"90 347 LINE",
"334 347 LINE",
"337 368 LINE",
"93 368 LINE"
);
}
);
width = 399;
}
);
leftKerningGroup = periodcentered;
note = hyphen.case;
rightKerningGroup = periodcentered;
},
{
glyphname = uni00AD.case;
lastChange = "2020-10-21 08:49:18 +0000";
layers = (
{
hints = (
{
horizontal = 1;
place = "{283, 150}";
type = Stem;
},
{
place = "{35, 354}";
type = Stem;
}
);
layerId = "FE8AE7D2-7E60-458F-B844-21CAF2BBDFF5";
paths = (
{
closed = 1;
nodes = (
"35 283 LINE",
"369 283 LINE",
"389 433 LINE",
"55 433 LINE"
);
}
);
width = 399;
},
{
hints = (
{
horizontal = 1;
place = "{347, 21}";
type = Stem;
},
{
place = "{90, 247}";
type = Stem;
}
);
layerId = "E8D61EB5-BB7B-4E1E-8596-56C59CE9CB81";
paths = (
{
closed = 1;
nodes = (
"90 347 LINE",
"334 347 LINE",
"337 368 LINE",
"93 368 LINE"
);
}
);
width = 399;
}
);
leftKerningGroup = periodcentered;
note = uni00AD.case;
rightKerningGroup = periodcentered;
},
{
glyphname = endash.case;
lastChange = "2020-10-21 08:49:18 +0000";
layers = (
{
hints = (
{
horizontal = 1;
place = "{283, 150}";
type = Stem;
},
{
place = "{16, 501}";
type = Stem;
}
);
layerId = "FE8AE7D2-7E60-458F-B844-21CAF2BBDFF5";
paths = (
{
closed = 1;
nodes = (
"16 283 LINE",
"496 283 LINE",
"517 433 LINE",
"37 433 LINE"
);
}
);
width = 508;
},
{
hints = (
{
horizontal = 1;
place = "{347, 21}";
type = Stem;
},
{
place = "{61, 426}";
type = Stem;
}
);
layerId = "E8D61EB5-BB7B-4E1E-8596-56C59CE9CB81";
paths = (
{
closed = 1;
nodes = (
"61 347 LINE",
"484 347 LINE",
"487 368 LINE",
"64 368 LINE"
);
}
);
width = 520;
}
);
leftKerningGroup = periodcentered;
note = endash.case;
rightKerningGroup = periodcentered;
},
{
glyphname = emdash.case;
lastChange = "2020-10-21 08:49:18 +0000";
layers = (
{
hints = (
{
horizontal = 1;
place = "{283, 150}";
type = Stem;
},
{
place = "{16, 775}";
type = Stem;
}
);
layerId = "FE8AE7D2-7E60-458F-B844-21CAF2BBDFF5";
paths = (
{
closed = 1;
nodes = (
"16 283 LINE",
"770 283 LINE",
"791 433 LINE",
"37 433 LINE"
);
}
);
width = 782;
},
{
hints = (
{
horizontal = 1;
place = "{348, 20}";
type = Stem;
},
{
place = "{62, 680}";
type = Stem;
}
);
layerId = "E8D61EB5-BB7B-4E1E-8596-56C59CE9CB81";
paths = (
{
closed = 1;
nodes = (
"62 348 LINE",
"740 348 LINE",
"742 368 LINE",
"64 368 LINE"
);
}
);
width = 776;
}
);
leftKerningGroup = periodcentered;
note = emdash.case;
rightKerningGroup = periodcentered;
},
{
glyphname = quotesinglbase;
lastChange = "2020-10-21 08:49:18 +0000";
layers = (
{
hints = (
{
horizontal = 1;
place = "{-6, 21}";
target = up;
type = BottomGhost;
},
{
place = "{-3, 191}";
type = Stem;
}
);
layerId = "FE8AE7D2-7E60-458F-B844-21CAF2BBDFF5";
paths = (
{
closed = 1;
nodes = (
"44 164 OFFCURVE",
"-3 119 OFFCURVE",
"-3 63 CURVE SMOOTH",
"-3 31 OFFCURVE",
"11 10 OFFCURVE",
"30 -6 CURVE",
"-34 -168 LINE",
"59 -168 LINE",
"149 -23 LINE SMOOTH",
"174 18 OFFCURVE",
"188 46 OFFCURVE",
"188 83 CURVE SMOOTH",
"188 131 OFFCURVE",
"152 164 OFFCURVE",
"102 164 CURVE SMOOTH"
);
}
);
width = 250;
},
{
hints = (
{
horizontal = 1;
place = "{-4, 21}";
target = up;
type = BottomGhost;
},
{
place = "{53, 45}";
type = Stem;
}
);
layerId = "E8D61EB5-BB7B-4E1E-8596-56C59CE9CB81";
paths = (
{
closed = 1;
nodes = (
"61 37 OFFCURVE",
"53 26 OFFCURVE",
"53 14 CURVE SMOOTH",
"53 6 OFFCURVE",
"57 -1 OFFCURVE",
"65 -4 CURVE",
"6 -125 LINE",
"22 -125 LINE",
"84 -17 LINE SMOOTH",
"96 4 OFFCURVE",
"98 9 OFFCURVE",
"98 17 CURVE SMOOTH",
"98 27 OFFCURVE",
"91 37 OFFCURVE",
"76 37 CURVE SMOOTH"
);
}
);
width = 214;
}
);
leftKerningGroup = period;
note = quotesinglbase;
rightKerningGroup = period;
unicode = 201A;
},
{
glyphname = quotedblbase;
lastChange = "2020-10-21 08:49:18 +0000";
layers = (
{
hints = (
{
horizontal = 1;
place = "{-6, 21}";
target = up;
type = BottomGhost;
},
{
place = "{-3, 191}";
type = Stem;
},
{
place = "{219, 191}";
type = Stem;
}
);
layerId = "FE8AE7D2-7E60-458F-B844-21CAF2BBDFF5";
paths = (
{
closed = 1;
nodes = (
"44 164 OFFCURVE",
"-3 119 OFFCURVE",
"-3 63 CURVE SMOOTH",
"-3 31 OFFCURVE",
"11 10 OFFCURVE",
"30 -6 CURVE",
"-34 -168 LINE",
"59 -168 LINE",
"149 -23 LINE SMOOTH",
"174 18 OFFCURVE",
"188 46 OFFCURVE",
"188 83 CURVE SMOOTH",
"188 131 OFFCURVE",
"152 164 OFFCURVE",
"102 164 CURVE SMOOTH"
);
},
{
closed = 1;
nodes = (
"266 164 OFFCURVE",
"219 119 OFFCURVE",
"219 63 CURVE SMOOTH",
"219 31 OFFCURVE",
"233 10 OFFCURVE",
"252 -6 CURVE",
"188 -168 LINE",
"281 -168 LINE",
"371 -23 LINE SMOOTH",
"396 18 OFFCURVE",
"410 46 OFFCURVE",
"410 83 CURVE SMOOTH",
"410 131 OFFCURVE",
"374 164 OFFCURVE",
"324 164 CURVE SMOOTH"
);
}
);
width = 472;
},
{
hints = (
{
horizontal = 1;
place = "{-4, 41}";
type = Stem;
},
{
place = "{53, 45}";
type = Stem;
},
{
place = "{165, 45}";
type = Stem;
}
);
layerId = "E8D61EB5-BB7B-4E1E-8596-56C59CE9CB81";
paths = (
{
closed = 1;
nodes = (
"61 37 OFFCURVE",
"53 26 OFFCURVE",
"53 14 CURVE SMOOTH",
"53 6 OFFCURVE",
"57 -1 OFFCURVE",
"65 -4 CURVE",
"6 -125 LINE",
"22 -125 LINE",
"84 -17 LINE SMOOTH",
"96 4 OFFCURVE",
"98 9 OFFCURVE",
"98 17 CURVE SMOOTH",
"98 27 OFFCURVE",
"91 37 OFFCURVE",
"76 37 CURVE SMOOTH"
);
},
{
closed = 1;
nodes = (
"173 37 OFFCURVE",
"165 26 OFFCURVE",
"165 14 CURVE SMOOTH",
"165 6 OFFCURVE",
"169 -1 OFFCURVE",
"177 -4 CURVE",
"118 -125 LINE",
"134 -125 LINE",
"196 -17 LINE SMOOTH",
"208 4 OFFCURVE",
"210 9 OFFCURVE",
"210 17 CURVE SMOOTH",
"210 27 OFFCURVE",
"203 37 OFFCURVE",
"188 37 CURVE SMOOTH"
);
}
);
width = 326;
}
);
leftKerningGroup = period;
note = quotedblbase;
rightKerningGroup = period;
unicode = 201E;
},
{
glyphname = quotedblleft;
lastChange = "2020-10-21 08:49:18 +0000";
layers = (
{
hints = (
{
horizontal = 1;
place = "{443, 332}";
type = Stem;
},
{
place = "{72, 191}";
type = Stem;
},
{
place = "{294, 191}";
type = Stem;
}
);
layerId = "FE8AE7D2-7E60-458F-B844-21CAF2BBDFF5";
paths = (
{
closed = 1;
nodes = (
"216 443 OFFCURVE",
"263 488 OFFCURVE",
"263 544 CURVE SMOOTH",
"263 576 OFFCURVE",
"249 597 OFFCURVE",
"230 613 CURVE",
"294 775 LINE",
"201 775 LINE",
"111 630 LINE SMOOTH",
"86 589 OFFCURVE",
"72 561 OFFCURVE",
"72 524 CURVE SMOOTH",
"72 476 OFFCURVE",
"108 443 OFFCURVE",
"158 443 CURVE SMOOTH"
);
},
{
closed = 1;
nodes = (
"438 443 OFFCURVE",
"485 488 OFFCURVE",
"485 544 CURVE SMOOTH",
"485 576 OFFCURVE",
"471 597 OFFCURVE",
"452 613 CURVE",
"516 775 LINE",
"423 775 LINE",
"333 630 LINE SMOOTH",
"308 589 OFFCURVE",
"294 561 OFFCURVE",
"294 524 CURVE SMOOTH",
"294 476 OFFCURVE",
"330 443 OFFCURVE",
"380 443 CURVE SMOOTH"
);
}
);
width = 472;
},
{
hints = (
{
horizontal = 1;
place = "{584, 162}";
type = Stem;
},
{
place = "{131, 45}";
type = Stem;
},
{
place = "{243, 45}";
type = Stem;
}
);
layerId = "E8D61EB5-BB7B-4E1E-8596-56C59CE9CB81";
paths = (
{
closed = 1;
nodes = (
"167 584 OFFCURVE",
"176 595 OFFCURVE",
"176 607 CURVE SMOOTH",
"176 616 OFFCURVE",
"172 623 OFFCURVE",
"164 625 CURVE",
"222 746 LINE",
"206 746 LINE",
"144 638 LINE SMOOTH",
"132 618 OFFCURVE",
"131 613 OFFCURVE",
"131 604 CURVE SMOOTH",
"131 595 OFFCURVE",
"137 584 OFFCURVE",
"152 584 CURVE SMOOTH"
);
},
{
closed = 1;
nodes = (
"279 584 OFFCURVE",
"288 595 OFFCURVE",
"288 607 CURVE SMOOTH",
"288 616 OFFCURVE",
"283 623 OFFCURVE",
"275 625 CURVE",
"334 746 LINE",
"318 746 LINE",
"256 638 LINE SMOOTH",
"244 618 OFFCURVE",
"243 613 OFFCURVE",
"243 604 CURVE SMOOTH",
"243 595 OFFCURVE",
"249 584 OFFCURVE",
"264 584 CURVE SMOOTH"
);
}
);
width = 326;
}
);
leftKerningGroup = uniA78B;
note = quotedblleft;
rightKerningGroup = uniA78B;
unicode = 201C;
},
{
glyphname = quotedblright;
lastChange = "2020-10-21 08:49:18 +0000";
layers = (
{
hints = (
{
horizontal = 1;
place = "{442, 332}";
type = Stem;
},
{
place = "{83, 191}";
type = Stem;
},
{
place = "{305, 191}";
type = Stem;
}
);
layerId = "FE8AE7D2-7E60-458F-B844-21CAF2BBDFF5";
paths = (
{
closed = 1;
nodes = (
"130 774 OFFCURVE",
"83 729 OFFCURVE",
"83 673 CURVE SMOOTH",
"83 641 OFFCURVE",
"97 620 OFFCURVE",
"116 604 CURVE",
"52 442 LINE",
"145 442 LINE",
"235 587 LINE SMOOTH",
"260 628 OFFCURVE",
"274 656 OFFCURVE",
"274 693 CURVE SMOOTH",
"274 741 OFFCURVE",
"238 774 OFFCURVE",
"188 774 CURVE SMOOTH"
);
},
{
closed = 1;
nodes = (
"352 774 OFFCURVE",
"305 729 OFFCURVE",
"305 673 CURVE SMOOTH",
"305 641 OFFCURVE",
"319 620 OFFCURVE",
"338 604 CURVE",
"274 442 LINE",
"367 442 LINE",
"457 587 LINE SMOOTH",
"482 628 OFFCURVE",
"496 656 OFFCURVE",
"496 693 CURVE SMOOTH",
"496 741 OFFCURVE",
"460 774 OFFCURVE",
"410 774 CURVE SMOOTH"
);
}
);
width = 472;
},
{
hints = (
{
horizontal = 1;
place = "{562, 162}";
type = Stem;
},
{
place = "{149, 45}";
type = Stem;
},
{
place = "{261, 45}";
type = Stem;
}
);
layerId = "E8D61EB5-BB7B-4E1E-8596-56C59CE9CB81";
paths = (
{
closed = 1;
nodes = (
"158 724 OFFCURVE",
"149 713 OFFCURVE",
"149 701 CURVE SMOOTH",
"149 692 OFFCURVE",
"153 685 OFFCURVE",
"161 683 CURVE",
"103 562 LINE",
"119 562 LINE",
"181 670 LINE SMOOTH",
"193 690 OFFCURVE",
"194 695 OFFCURVE",
"194 704 CURVE SMOOTH",
"194 713 OFFCURVE",
"188 724 OFFCURVE",
"173 724 CURVE SMOOTH"
);
},
{
closed = 1;
nodes = (
"270 724 OFFCURVE",
"261 713 OFFCURVE",
"261 701 CURVE SMOOTH",
"261 692 OFFCURVE",
"265 685 OFFCURVE",
"273 683 CURVE",
"215 562 LINE",
"231 562 LINE",
"293 670 LINE SMOOTH",
"305 690 OFFCURVE",
"306 695 OFFCURVE",
"306 704 CURVE SMOOTH",
"306 713 OFFCURVE",
"300 724 OFFCURVE",
"285 724 CURVE SMOOTH"
);
}
);
width = 326;
}
);
leftKerningGroup = uniA78B;
note = quotedblright;
rightKerningGroup = uniA78B;
unicode = 201D;
},
{
glyphname = quoteleft;
lastChange = "2020-10-21 08:49:18 +0000";
layers = (
{
hints = (
{
horizontal = 1;
place = "{443, 332}";
type = Stem;
},
{
place = "{72, 191}";
type = Stem;
}
);
layerId = "FE8AE7D2-7E60-458F-B844-21CAF2BBDFF5";
paths = (
{
closed = 1;
nodes = (
"216 443 OFFCURVE",
"263 488 OFFCURVE",
"263 544 CURVE SMOOTH",
"263 576 OFFCURVE",
"249 597 OFFCURVE",
"230 613 CURVE",
"294 775 LINE",
"201 775 LINE",
"111 630 LINE SMOOTH",
"86 589 OFFCURVE",
"72 561 OFFCURVE",
"72 524 CURVE SMOOTH",
"72 476 OFFCURVE",
"108 443 OFFCURVE",
"158 443 CURVE SMOOTH"
);
}
);
width = 250;
},
{
hints = (
{
horizontal = 1;
place = "{584, 162}";
type = Stem;
},
{
place = "{131, 45}";
type = Stem;
}
);
layerId = "E8D61EB5-BB7B-4E1E-8596-56C59CE9CB81";
paths = (
{
closed = 1;
nodes = (
"167 584 OFFCURVE",
"176 595 OFFCURVE",
"176 607 CURVE SMOOTH",
"176 616 OFFCURVE",
"172 623 OFFCURVE",
"164 625 CURVE",
"222 746 LINE",
"206 746 LINE",
"144 638 LINE SMOOTH",
"132 618 OFFCURVE",
"131 613 OFFCURVE",
"131 604 CURVE SMOOTH",
"131 595 OFFCURVE",
"137 584 OFFCURVE",
"152 584 CURVE SMOOTH"
);
}
);
width = 214;
}
);
leftKerningGroup = uniA78B;
note = quoteleft;
rightKerningGroup = uniA78B;
unicode = 2018;
},
{
glyphname = quoteright;
lastChange = "2020-10-21 08:49:18 +0000";
layers = (
{
hints = (
{
horizontal = 1;
place = "{442, 332}";
type = Stem;
},
{
place = "{83, 191}";
type = Stem;
}
);
layerId = "FE8AE7D2-7E60-458F-B844-21CAF2BBDFF5";
paths = (
{
closed = 1;
nodes = (
"130 774 OFFCURVE",
"83 729 OFFCURVE",
"83 673 CURVE SMOOTH",
"83 641 OFFCURVE",
"97 620 OFFCURVE",
"116 604 CURVE",
"52 442 LINE",
"145 442 LINE",
"235 587 LINE SMOOTH",
"260 628 OFFCURVE",
"274 656 OFFCURVE",
"274 693 CURVE SMOOTH",
"274 741 OFFCURVE",
"238 774 OFFCURVE",
"188 774 CURVE SMOOTH"
);
}
);
width = 250;
},
{
hints = (
{
horizontal = 1;
place = "{562, 162}";
type = Stem;
},
{
place = "{149, 45}";
type = Stem;
}
);
layerId = "E8D61EB5-BB7B-4E1E-8596-56C59CE9CB81";
paths = (
{
closed = 1;
nodes = (
"158 724 OFFCURVE",
"149 713 OFFCURVE",
"149 701 CURVE SMOOTH",
"149 692 OFFCURVE",
"153 685 OFFCURVE",
"161 683 CURVE",
"103 562 LINE",
"119 562 LINE",
"181 670 LINE SMOOTH",
"193 690 OFFCURVE",
"194 695 OFFCURVE",
"194 704 CURVE SMOOTH",
"194 713 OFFCURVE",
"188 724 OFFCURVE",
"173 724 CURVE SMOOTH"
);
}
);
width = 214;
}
);
leftKerningGroup = uniA78B;
note = quoteright;
rightKerningGroup = uniA78B;
unicode = 2019;
},
{
glyphname = guillemotleft;
lastChange = "2020-10-21 08:49:18 +0000";
layers = (
{
hints = (
{
horizontal = 1;
place = "{-3, 21}";
target = up;
type = BottomGhost;
},
{
place = "{16, 641}";
type = Stem;
}
);
layerId = "FE8AE7D2-7E60-458F-B844-21CAF2BBDFF5";
paths = (
{
closed = 1;
nodes = (
"258 569 LINE",
"33 344 LINE",
"16 222 LINE",
"179 -3 LINE",
"310 78 LINE",
"217 283 LINE",
"368 488 LINE"
);
},
{
closed = 1;
nodes = (
"547 569 LINE",
"322 344 LINE",
"305 222 LINE",
"468 -3 LINE",
"599 78 LINE",
"506 283 LINE",
"657 488 LINE"
);
}
);
width = 648;
},
{
hints = (
{
horizontal = 1;
place = "{74, 429}";
type = Stem;
},
{
place = "{93.5, 25.5}";
type = Stem;
}
);
layerId = "E8D61EB5-BB7B-4E1E-8596-56C59CE9CB81";
paths = (
{
closed = 1;
nodes = (
"274 503 LINE",
"94 295 LINE",
"93 281 LINE",
"215 74 LINE",
"231 83 LINE",
"119 288 LINE",
"288 494 LINE"
);
},
{
closed = 1;
nodes = (
"463 503 LINE",
"283 295 LINE",
"281 281 LINE",
"404 74 LINE",
"419 83 LINE",
"308 288 LINE",
"477 494 LINE"
);
}
);
width = 533;
}
);
leftKerningGroup = guillemotleft;
note = guillemotleft;
rightKerningGroup = guillemotleft;
unicode = 00AB;
},
{
glyphname = guillemotright;
lastChange = "2020-10-21 08:49:18 +0000";
layers = (
{
hints = (
{
horizontal = 1;
place = "{-3, 21}";
target = up;
type = BottomGhost;
},
{
place = "{-5, 642}";
type = Stem;
}
);
layerId = "FE8AE7D2-7E60-458F-B844-21CAF2BBDFF5";
paths = (
{
closed = 1;
nodes = (
"185 569 LINE",
"53 488 LINE",
"148 283 LINE",
"-5 78 LINE",
"106 -3 LINE",
"331 222 LINE",
"348 344 LINE"
);
},
{
closed = 1;
nodes = (
"474 569 LINE",
"342 488 LINE",
"437 283 LINE",
"284 78 LINE",
"395 -3 LINE",
"620 222 LINE",
"637 344 LINE"
);
}
);
width = 648;
},
{
hints = (
{
horizontal = 1;
place = "{74, 429}";
type = Stem;
},
{
place = "{422, 25.5}";
type = Stem;
}
);
layerId = "E8D61EB5-BB7B-4E1E-8596-56C59CE9CB81";
paths = (
{
closed = 1;
nodes = (
"138 503 LINE",
"122 494 LINE",
"233 288 LINE",
"64 83 LINE",
"78 74 LINE",
"258 281 LINE",
"260 295 LINE"
);
},
{
closed = 1;
nodes = (
"327 503 LINE",
"311 494 LINE",
"422 288 LINE",
"253 83 LINE",
"267 74 LINE",
"447 281 LINE",
"448 295 LINE"
);
}
);
width = 533;
}
);
leftKerningGroup = guillemotright;
note = guillemotright;
rightKerningGroup = guillemotright;
unicode = 00BB;
},
{
glyphname = guilsinglleft;
lastChange = "2020-10-21 08:49:18 +0000";
layers = (
{
hints = (
{
horizontal = 1;
place = "{-3, 21}";
target = up;
type = BottomGhost;
},
{
place = "{16, 352}";
type = Stem;
}
);
layerId = "FE8AE7D2-7E60-458F-B844-21CAF2BBDFF5";
paths = (
{
closed = 1;
nodes = (
"258 569 LINE",
"33 344 LINE",
"16 222 LINE",
"179 -3 LINE",
"310 78 LINE",
"217 283 LINE",
"368 488 LINE"
);
}
);
width = 359;
},
{
hints = (
{
horizontal = 1;
place = "{74, 429}";
type = Stem;
},
{
place = "{93.5, 25.5}";
type = Stem;
}
);
layerId = "E8D61EB5-BB7B-4E1E-8596-56C59CE9CB81";
paths = (
{
closed = 1;
nodes = (
"274 503 LINE",
"94 295 LINE",
"93 281 LINE",
"215 74 LINE",
"231 83 LINE",
"119 288 LINE",
"288 494 LINE"
);
}
);
width = 345;
}
);
leftKerningGroup = guillemotleft;
note = guilsinglleft;
rightKerningGroup = guillemotleft;
unicode = 2039;
},
{
glyphname = guilsinglright;
lastChange = "2020-10-21 08:49:18 +0000";
layers = (
{
hints = (
{
horizontal = 1;
place = "{-3, 21}";
target = up;
type = BottomGhost;
},
{
place = "{-5, 353}";
type = Stem;
}
);
layerId = "FE8AE7D2-7E60-458F-B844-21CAF2BBDFF5";
paths = (
{
closed = 1;
nodes = (
"185 569 LINE",
"53 488 LINE",
"148 283 LINE",
"-5 78 LINE",
"106 -3 LINE",
"331 222 LINE",
"348 344 LINE"
);
}
);
width = 359;
},
{
hints = (
{
horizontal = 1;
place = "{74, 429}";
type = Stem;
},
{
place = "{64, 196}";
type = Stem;
}
);
layerId = "E8D61EB5-BB7B-4E1E-8596-56C59CE9CB81";
paths = (
{
closed = 1;
nodes = (
"138 503 LINE",
"122 494 LINE",
"233 288 LINE",
"64 83 LINE",
"78 74 LINE",
"258 281 LINE",
"260 295 LINE"
);
}
);
width = 344;
}
);
leftKerningGroup = guillemotright;
note = guilsinglright;
rightKerningGroup = guillemotright;
unicode = 203A;
},
{
glyphname = quotedbl;
lastChange = "2020-10-21 08:49:18 +0000";
layers = (
{
hints = (
{
horizontal = 1;
place = "{406, 290}";
type = Stem;
},
{
place = "{77, 399}";
type = Stem;
}
);
layerId = "FE8AE7D2-7E60-458F-B844-21CAF2BBDFF5";
paths = (
{
closed = 1;
nodes = (
"77 406 LINE",
"201 406 LINE",
"262 696 LINE",
"96 696 LINE"
);
},
{
closed = 1;
nodes = (
"291 406 LINE",
"415 406 LINE",
"476 696 LINE",
"310 696 LINE"
);
}
);
width = 452;
},
{
hints = (
{
horizontal = 1;
place = "{681, -20}";
target = down;
type = TopGhost;
},
{
place = "{111, 193}";
type = Stem;
}
);
layerId = "E8D61EB5-BB7B-4E1E-8596-56C59CE9CB81";
paths = (
{
closed = 1;
nodes = (
"111 441 LINE",
"129 441 LINE",
"165 681 LINE",
"142 681 LINE"
);
},
{
closed = 1;
nodes = (
"250 441 LINE",
"267 441 LINE",
"304 681 LINE",
"280 681 LINE"
);
}
);
width = 327;
}
);
leftKerningGroup = uniA78B;
note = quotedbl;
rightKerningGroup = uniA78B;
unicode = 0022;
},
{
glyphname = quotesingle;
lastChange = "2020-10-21 08:49:18 +0000";
layers = (
{
hints = (
{
horizontal = 1;
place = "{406, 290}";
type = Stem;
},
{
place = "{77, 185}";
type = Stem;
}
);
layerId = "FE8AE7D2-7E60-458F-B844-21CAF2BBDFF5";
paths = (
{
closed = 1;
nodes = (
"77 406 LINE",
"201 406 LINE",
"262 696 LINE",
"96 696 LINE"
);
}
);
width = 238;
},
{
hints = (
{
horizontal = 1;
place = "{681, -20}";
target = down;
type = TopGhost;
},
{
place = "{111, 54}";
type = Stem;
}
);
layerId = "E8D61EB5-BB7B-4E1E-8596-56C59CE9CB81";
paths = (
{
closed = 1;
nodes = (
"111 441 LINE",
"129 441 LINE",
"165 681 LINE",
"142 681 LINE"
);
}
);
width = 189;
}
);
leftKerningGroup = uniA78B;
note = quotesingle;
rightKerningGroup = uniA78B;
unicode = 0027;
},
{
glyphname = guillemotleft.case;
lastChange = "2020-10-21 08:49:18 +0000";
layers = (
{
hints = (
{
horizontal = 1;
place = "{42, 572}";
type = Stem;
},
{
place = "{22, 641}";
type = Stem;
}
);
layerId = "FE8AE7D2-7E60-458F-B844-21CAF2BBDFF5";
paths = (
{
closed = 1;
nodes = (
"264 614 LINE",
"39 389 LINE",
"22 267 LINE",
"185 42 LINE",
"316 123 LINE",
"223 328 LINE",
"374 533 LINE"
);
},
{
closed = 1;
nodes = (
"553 614 LINE",
"328 389 LINE",
"311 267 LINE",
"474 42 LINE",
"605 123 LINE",
"512 328 LINE",
"663 533 LINE"
);
}
);
width = 648;
},
{
hints = (
{
horizontal = 1;
place = "{119, 429}";
type = Stem;
},
{
place = "{100.5, 25.5}";
type = Stem;
}
);
layerId = "E8D61EB5-BB7B-4E1E-8596-56C59CE9CB81";
paths = (
{
closed = 1;
nodes = (
"281 548 LINE",
"101 340 LINE",
"100 326 LINE",
"222 119 LINE",
"238 128 LINE",
"126 333 LINE",
"295 539 LINE"
);
},
{
closed = 1;
nodes = (
"470 548 LINE",
"290 340 LINE",
"288 326 LINE",
"411 119 LINE",
"426 128 LINE",
"315 333 LINE",
"484 539 LINE"
);
}
);
width = 534;
}
);
leftKerningGroup = guillemotleft;
note = guillemotleft.case;
rightKerningGroup = guillemotleft;
},
{
glyphname = guillemotright.case;
lastChange = "2020-10-21 08:49:18 +0000";
layers = (
{
hints = (
{
horizontal = 1;
place = "{42, 572}";
type = Stem;
},
{
place = "{2, 642}";
type = Stem;
}
);
layerId = "FE8AE7D2-7E60-458F-B844-21CAF2BBDFF5";
paths = (
{
closed = 1;
nodes = (
"192 614 LINE",
"60 533 LINE",
"155 328 LINE",
"2 123 LINE",
"113 42 LINE",
"338 267 LINE",
"355 389 LINE"
);
},
{
closed = 1;
nodes = (
"481 614 LINE",
"349 533 LINE",
"444 328 LINE",
"291 123 LINE",
"402 42 LINE",
"627 267 LINE",
"644 389 LINE"
);
}
);
width = 649;
},
{
hints = (
{
horizontal = 1;
place = "{119, 429}";
type = Stem;
},
{
place = "{240, 25.5}";
type = Stem;
}
);
layerId = "E8D61EB5-BB7B-4E1E-8596-56C59CE9CB81";
paths = (
{
closed = 1;
nodes = (
"144 548 LINE",
"129 539 LINE",
"240 333 LINE",
"71 128 LINE",
"85 119 LINE",
"265 326 LINE",
"266 340 LINE"
);
},
{
closed = 1;
nodes = (
"333 548 LINE",
"317 539 LINE",
"428 333 LINE",
"259 128 LINE",
"273 119 LINE",
"453 326 LINE",
"455 340 LINE"
);
}
);
width = 533;
}
);
leftKerningGroup = guillemotright;
note = guillemotright.case;
rightKerningGroup = guillemotright;
},
{
glyphname = guilsinglleft.case;
lastChange = "2020-10-21 08:49:18 +0000";
layers = (
{
hints = (
{
horizontal = 1;
place = "{42, 572}";
type = Stem;
},
{
place = "{22, 352}";
type = Stem;
}
);
layerId = "FE8AE7D2-7E60-458F-B844-21CAF2BBDFF5";
paths = (
{
closed = 1;
nodes = (
"264 614 LINE",
"39 389 LINE",
"22 267 LINE",
"185 42 LINE",
"316 123 LINE",
"223 328 LINE",
"374 533 LINE"
);
}
);
width = 359;
},
{
hints = (
{
horizontal = 1;
place = "{119, 429}";
type = Stem;
},
{
place = "{100.5, 25.5}";
type = Stem;
}
);
layerId = "E8D61EB5-BB7B-4E1E-8596-56C59CE9CB81";
paths = (
{
closed = 1;
nodes = (
"281 548 LINE",
"101 340 LINE",
"100 326 LINE",
"222 119 LINE",
"238 128 LINE",
"126 333 LINE",
"295 539 LINE"
);
}
);
width = 345;
}
);
leftKerningGroup = guillemotleft;
note = guilsinglleft.case;
rightKerningGroup = guillemotleft;
},
{
glyphname = guilsinglright.case;
lastChange = "2020-10-21 08:49:18 +0000";
layers = (
{
hints = (
{
horizontal = 1;
place = "{42, 572}";
type = Stem;
},
{
place = "{2, 353}";
type = Stem;
}
);
layerId = "FE8AE7D2-7E60-458F-B844-21CAF2BBDFF5";
paths = (
{
closed = 1;
nodes = (
"192 614 LINE",
"60 533 LINE",
"155 328 LINE",
"2 123 LINE",
"113 42 LINE",
"338 267 LINE",
"355 389 LINE"
);
}
);
width = 360;
},
{
hints = (
{
horizontal = 1;
place = "{119, 429}";
type = Stem;
},
{
place = "{240, 25.5}";
type = Stem;
}
);
layerId = "E8D61EB5-BB7B-4E1E-8596-56C59CE9CB81";
paths = (
{
closed = 1;
nodes = (
"144 548 LINE",
"129 539 LINE",
"240 333 LINE",
"71 128 LINE",
"85 119 LINE",
"265 326 LINE",
"266 340 LINE"
);
}
);
width = 344;
}
);
leftKerningGroup = guillemotright;
note = guilsinglright.case;
rightKerningGroup = guillemotright;
},
{
glyphname = uni0E4F;
lastChange = "2020-10-21 08:49:18 +0000";
layers = (
{
hints = (
{
horizontal = 1;
place = "{-77, 87}";
type = Stem;
},
{
horizontal = 1;
place = "{101, 86}";
type = Stem;
},
{
horizontal = 1;
place = "{350, 86}";
type = Stem;
},
{
horizontal = 1;
place = "{527, 87}";
type = Stem;
},
{
place = "{52, 102}";
type = Stem;
},
{
place = "{238, 95}";
type = Stem;
},
{
place = "{478, 95}";
type = Stem;
},
{
place = "{656, 102}";
type = Stem;
}
);
layerId = "FE8AE7D2-7E60-458F-B844-21CAF2BBDFF5";
paths = (
{
closed = 1;
nodes = (
"609 -77 OFFCURVE",
"758 69 OFFCURVE",
"758 268 CURVE SMOOTH",
"758 468 OFFCURVE",
"609 614 OFFCURVE",
"406 614 CURVE SMOOTH",
"202 614 OFFCURVE",
"52 468 OFFCURVE",
"52 268 CURVE SMOOTH",
"52 69 OFFCURVE",
"202 -77 OFFCURVE",
"406 -77 CURVE SMOOTH"
);
},
{
closed = 1;
nodes = (
"261 10 OFFCURVE",
"154 119 OFFCURVE",
"154 268 CURVE SMOOTH",
"154 417 OFFCURVE",
"261 527 OFFCURVE",
"406 527 CURVE SMOOTH",
"550 527 OFFCURVE",
"656 417 OFFCURVE",
"656 268 CURVE SMOOTH",
"656 119 OFFCURVE",
"550 10 OFFCURVE",
"406 10 CURVE SMOOTH"
);
},
{
closed = 1;
nodes = (
"502 101 OFFCURVE",
"573 172 OFFCURVE",
"573 268 CURVE SMOOTH",
"573 365 OFFCURVE",
"502 436 OFFCURVE",
"406 436 CURVE SMOOTH",
"309 436 OFFCURVE",
"238 365 OFFCURVE",
"238 268 CURVE SMOOTH",
"238 172 OFFCURVE",
"309 101 OFFCURVE",
"406 101 CURVE SMOOTH"
);
},
{
closed = 1;
nodes = (
"364 187 OFFCURVE",
"333 221 OFFCURVE",
"333 268 CURVE SMOOTH",
"333 315 OFFCURVE",
"364 350 OFFCURVE",
"406 350 CURVE SMOOTH",
"448 350 OFFCURVE",
"478 315 OFFCURVE",
"478 268 CURVE SMOOTH",
"478 221 OFFCURVE",
"448 187 OFFCURVE",
"406 187 CURVE SMOOTH"
);
}
);
width = 810;
},
{
hints = (
{
horizontal = 1;
place = "{-27, 21}";
type = Stem;
},
{
horizontal = 1;
place = "{131, 20}";
type = Stem;
},
{
horizontal = 1;
place = "{368, 21}";
type = Stem;
},
{
horizontal = 1;
place = "{526, 20}";
type = Stem;
},
{
place = "{124, 22}";
type = Stem;
},
{
place = "{279, 23}";
type = Stem;
},
{
place = "{508, 23}";
type = Stem;
},
{
place = "{664, 22}";
type = Stem;
}
);
layerId = "E8D61EB5-BB7B-4E1E-8596-56C59CE9CB81";
paths = (
{
closed = 1;
nodes = (
"567 -27 OFFCURVE",
"686 94 OFFCURVE",
"686 260 CURVE SMOOTH",
"686 425 OFFCURVE",
"567 546 OFFCURVE",
"405 546 CURVE SMOOTH",
"243 546 OFFCURVE",
"124 425 OFFCURVE",
"124 260 CURVE SMOOTH",
"124 94 OFFCURVE",
"243 -27 OFFCURVE",
"405 -27 CURVE SMOOTH"
);
},
{
closed = 1;
nodes = (
"256 -6 OFFCURVE",
"146 106 OFFCURVE",
"146 260 CURVE SMOOTH",
"146 413 OFFCURVE",
"256 526 OFFCURVE",
"406 526 CURVE SMOOTH",
"555 526 OFFCURVE",
"664 413 OFFCURVE",
"664 260 CURVE SMOOTH",
"664 106 OFFCURVE",
"555 -6 OFFCURVE",
"406 -6 CURVE SMOOTH"
);
},
{
closed = 1;
nodes = (
"478 131 OFFCURVE",
"531 185 OFFCURVE",
"531 260 CURVE SMOOTH",
"531 334 OFFCURVE",
"478 389 OFFCURVE",
"405 389 CURVE SMOOTH",
"332 389 OFFCURVE",
"279 334 OFFCURVE",
"279 260 CURVE SMOOTH",
"279 185 OFFCURVE",
"332 131 OFFCURVE",
"405 131 CURVE SMOOTH"
);
},
{
closed = 1;
nodes = (
"345 151 OFFCURVE",
"302 197 OFFCURVE",
"302 260 CURVE SMOOTH",
"302 322 OFFCURVE",
"345 368 OFFCURVE",
"405 368 CURVE SMOOTH",
"465 368 OFFCURVE",
"508 322 OFFCURVE",
"508 260 CURVE SMOOTH",
"508 197 OFFCURVE",
"465 151 OFFCURVE",
"405 151 CURVE SMOOTH"
);
}
);
width = 810;
}
);
note = uni0E4F;
unicode = 0E4F;
},
{
glyphname = uni05C3;
lastChange = "2020-10-21 08:49:18 +0000";
layers = (
{
hints = (
{
horizontal = 1;
place = "{-20, 21}";
target = up;
type = BottomGhost;
},
{
horizontal = 1;
place = "{312, 206}";
type = Stem;
},
{
place = "{38, 204}";
type = Stem;
},
{
place = "{-8, 204}";
type = Stem;
},
{
horizontal = 1;
place = "{-20, 206}";
type = Stem;
}
);
layerId = "FE8AE7D2-7E60-458F-B844-21CAF2BBDFF5";
paths = (
{
closed = 1;
nodes = (
"192 312 OFFCURVE",
"242 365 OFFCURVE",
"242 427 CURVE SMOOTH",
"242 481 OFFCURVE",
"204 518 OFFCURVE",
"153 518 CURVE SMOOTH",
"88 518 OFFCURVE",
"38 465 OFFCURVE",
"38 405 CURVE SMOOTH",
"38 350 OFFCURVE",
"75 312 OFFCURVE",
"128 312 CURVE SMOOTH"
);
},
{
closed = 1;
nodes = (
"146 -20 OFFCURVE",
"196 33 OFFCURVE",
"196 95 CURVE SMOOTH",
"196 149 OFFCURVE",
"158 186 OFFCURVE",
"107 186 CURVE SMOOTH",
"42 186 OFFCURVE",
"-8 133 OFFCURVE",
"-8 73 CURVE SMOOTH",
"-8 18 OFFCURVE",
"29 -20 OFFCURVE",
"82 -20 CURVE SMOOTH"
);
}
);
width = 240;
},
{
hints = (
{
horizontal = 1;
place = "{-8, 46}";
type = Stem;
},
{
horizontal = 1;
place = "{406, 47}";
type = Stem;
},
{
place = "{23, 47}";
type = Stem;
},
{
place = "{82, 47}";
type = Stem;
}
);
layerId = "E8D61EB5-BB7B-4E1E-8596-56C59CE9CB81";
paths = (
{
closed = 1;
nodes = (
"119 406 OFFCURVE",
"129 417 OFFCURVE",
"129 431 CURVE SMOOTH",
"129 443 OFFCURVE",
"121 453 OFFCURVE",
"107 453 CURVE SMOOTH",
"93 453 OFFCURVE",
"82 442 OFFCURVE",
"82 428 CURVE SMOOTH",
"82 416 OFFCURVE",
"91 406 OFFCURVE",
"104 406 CURVE SMOOTH"
);
},
{
closed = 1;
nodes = (
"60 -8 OFFCURVE",
"70 2 OFFCURVE",
"70 16 CURVE SMOOTH",
"70 28 OFFCURVE",
"62 38 OFFCURVE",
"48 38 CURVE SMOOTH",
"34 38 OFFCURVE",
"23 28 OFFCURVE",
"23 13 CURVE SMOOTH",
"23 1 OFFCURVE",
"32 -8 OFFCURVE",
"45 -8 CURVE SMOOTH"
);
}
);
width = 163;
}
);
leftKerningGroup = colon;
note = uni05C3;
unicode = 05C3;
},
{
glyphname = uni05F3;
lastChange = "2020-10-21 08:49:18 +0000";
layers = (
{
hints = (
{
horizontal = 1;
place = "{591, -20}";
target = down;
type = TopGhost;
},
{
place = "{25, 210}";
type = Stem;
},
{
place = "{44, 191}";
type = Stem;
}
);
layerId = "FE8AE7D2-7E60-458F-B844-21CAF2BBDFF5";
paths = (
{
closed = 1;
nodes = (
"25 283 LINE",
"118 283 LINE",
"194 404 LINE SMOOTH",
"220 445 OFFCURVE",
"235 473 OFFCURVE",
"235 510 CURVE SMOOTH",
"235 558 OFFCURVE",
"199 591 OFFCURVE",
"149 591 CURVE SMOOTH",
"91 591 OFFCURVE",
"44 546 OFFCURVE",
"44 490 CURVE SMOOTH",
"44 458 OFFCURVE",
"62 437 OFFCURVE",
"81 421 CURVE"
);
}
);
width = 237;
},
{
hints = (
{
horizontal = 1;
place = "{571, -20}";
target = down;
type = TopGhost;
},
{
place = "{119, 45}";
type = Stem;
}
);
layerId = "E8D61EB5-BB7B-4E1E-8596-56C59CE9CB81";
paths = (
{
closed = 1;
nodes = (
"85 434 LINE",
"102 434 LINE",
"150 517 LINE SMOOTH",
"162 537 OFFCURVE",
"164 542 OFFCURVE",
"164 551 CURVE SMOOTH",
"164 561 OFFCURVE",
"157 571 OFFCURVE",
"142 571 CURVE SMOOTH",
"127 571 OFFCURVE",
"119 560 OFFCURVE",
"119 548 CURVE SMOOTH",
"119 540 OFFCURVE",
"123 533 OFFCURVE",
"131 530 CURVE"
);
}
);
width = 188;
}
);
note = uni05F3;
unicode = 05F3;
},
{
glyphname = uni05F4;
lastChange = "2020-10-21 08:49:18 +0000";
layers = (
{
hints = (
{
horizontal = 1;
place = "{591, -20}";
target = down;
type = TopGhost;
},
{
place = "{25, 432}";
type = Stem;
},
{
place = "{44, 191}";
type = Stem;
},
{
place = "{266, 191}";
type = Stem;
}
);
layerId = "FE8AE7D2-7E60-458F-B844-21CAF2BBDFF5";
paths = (
{
closed = 1;
nodes = (
"25 283 LINE",
"118 283 LINE",
"194 404 LINE SMOOTH",
"220 445 OFFCURVE",
"235 473 OFFCURVE",
"235 510 CURVE SMOOTH",
"235 558 OFFCURVE",
"199 591 OFFCURVE",
"149 591 CURVE SMOOTH",
"91 591 OFFCURVE",
"44 546 OFFCURVE",
"44 490 CURVE SMOOTH",
"44 458 OFFCURVE",
"62 437 OFFCURVE",
"81 421 CURVE"
);
},
{
closed = 1;
nodes = (
"247 283 LINE",
"340 283 LINE",
"416 404 LINE SMOOTH",
"442 445 OFFCURVE",
"457 473 OFFCURVE",
"457 510 CURVE SMOOTH",
"457 558 OFFCURVE",
"421 591 OFFCURVE",
"371 591 CURVE SMOOTH",
"313 591 OFFCURVE",
"266 546 OFFCURVE",
"266 490 CURVE SMOOTH",
"266 458 OFFCURVE",
"284 437 OFFCURVE",
"303 421 CURVE"
);
}
);
width = 459;
},
{
hints = (
{
horizontal = 1;
place = "{571, -20}";
target = down;
type = TopGhost;
},
{
place = "{119, 45}";
type = Stem;
},
{
place = "{230, 45}";
type = Stem;
},
{
horizontal = 1;
place = "{530, 41}";
type = Stem;
}
);
layerId = "E8D61EB5-BB7B-4E1E-8596-56C59CE9CB81";
paths = (
{
closed = 1;
nodes = (
"85 434 LINE",
"102 434 LINE",
"150 517 LINE SMOOTH",
"162 537 OFFCURVE",
"164 542 OFFCURVE",
"164 551 CURVE SMOOTH",
"164 561 OFFCURVE",
"157 571 OFFCURVE",
"142 571 CURVE SMOOTH",
"127 571 OFFCURVE",
"119 560 OFFCURVE",
"119 548 CURVE SMOOTH",
"119 540 OFFCURVE",
"123 533 OFFCURVE",
"131 530 CURVE"
);
},
{
closed = 1;
nodes = (
"197 434 LINE",
"214 434 LINE",
"262 517 LINE SMOOTH",
"274 537 OFFCURVE",
"275 542 OFFCURVE",
"275 551 CURVE SMOOTH",
"275 561 OFFCURVE",
"269 571 OFFCURVE",
"254 571 CURVE SMOOTH",
"239 571 OFFCURVE",
"230 560 OFFCURVE",
"230 548 CURVE SMOOTH",
"230 540 OFFCURVE",
"235 533 OFFCURVE",
"243 530 CURVE"
);
}
);
width = 300;
}
);
note = uni05F4;
unicode = 05F4;
},
{
glyphname = uni05BE;
lastChange = "2020-10-21 08:49:18 +0000";
layers = (
{
hints = (
{
horizontal = 1;
place = "{411, 160}";
type = Stem;
},
{
place = "{53, 297}";
type = Stem;
}
);
layerId = "FE8AE7D2-7E60-458F-B844-21CAF2BBDFF5";
paths = (
{
closed = 1;
nodes = (
"53 411 LINE",
"328 411 LINE",
"350 571 LINE",
"75 571 LINE"
);
}
);
width = 340;
},
{
hints = (
{
horizontal = 1;
place = "{539, 20}";
type = Stem;
},
{
place = "{117, 211}";
type = Stem;
}
);
layerId = "E8D61EB5-BB7B-4E1E-8596-56C59CE9CB81";
paths = (
{
closed = 1;
nodes = (
"117 539 LINE",
"326 539 LINE",
"328 559 LINE",
"120 559 LINE"
);
}
);
width = 364;
}
);
note = uni05BE;
unicode = 05BE;
},
{
glyphname = uni10FB;
lastChange = "2020-10-21 08:49:18 +0000";
layers = (
{
hints = (
{
horizontal = 1;
place = "{-20, 21}";
target = up;
type = BottomGhost;
},
{
horizontal = 1;
place = "{312, 206}";
type = Stem;
},
{
place = "{38, 204}";
type = Stem;
},
{
place = "{281, 204}";
type = Stem;
},
{
place = "{-8, 204}";
type = Stem;
},
{
horizontal = 1;
place = "{-20, 206}";
type = Stem;
}
);
layerId = "FE8AE7D2-7E60-458F-B844-21CAF2BBDFF5";
paths = (
{
closed = 1;
nodes = (
"192 312 OFFCURVE",
"242 365 OFFCURVE",
"242 427 CURVE SMOOTH",
"242 481 OFFCURVE",
"204 518 OFFCURVE",
"153 518 CURVE SMOOTH",
"88 518 OFFCURVE",
"38 465 OFFCURVE",
"38 405 CURVE SMOOTH",
"38 350 OFFCURVE",
"75 312 OFFCURVE",
"128 312 CURVE SMOOTH"
);
},
{
closed = 1;
nodes = (
"435 144 OFFCURVE",
"485 197 OFFCURVE",
"485 259 CURVE SMOOTH",
"485 313 OFFCURVE",
"447 350 OFFCURVE",
"396 350 CURVE SMOOTH",
"331 350 OFFCURVE",
"281 297 OFFCURVE",
"281 237 CURVE SMOOTH",
"281 182 OFFCURVE",
"318 144 OFFCURVE",
"371 144 CURVE SMOOTH"
);
},
{
closed = 1;
nodes = (
"146 -20 OFFCURVE",
"196 33 OFFCURVE",
"196 95 CURVE SMOOTH",
"196 149 OFFCURVE",
"158 186 OFFCURVE",
"107 186 CURVE SMOOTH",
"42 186 OFFCURVE",
"-8 133 OFFCURVE",
"-8 73 CURVE SMOOTH",
"-8 18 OFFCURVE",
"29 -20 OFFCURVE",
"82 -20 CURVE SMOOTH"
);
}
);
width = 506;
},
{
hints = (
{
horizontal = 1;
place = "{-8, 46}";
type = Stem;
},
{
horizontal = 1;
place = "{199, 46}";
type = Stem;
},
{
horizontal = 1;
place = "{406, 47}";
type = Stem;
},
{
place = "{23, 47}";
type = Stem;
},
{
place = "{82, 47}";
type = Stem;
},
{
place = "{307, 47}";
type = Stem;
}
);
layerId = "E8D61EB5-BB7B-4E1E-8596-56C59CE9CB81";
paths = (
{
closed = 1;
nodes = (
"119 406 OFFCURVE",
"129 417 OFFCURVE",
"129 431 CURVE SMOOTH",
"129 443 OFFCURVE",
"121 453 OFFCURVE",
"107 453 CURVE SMOOTH",
"93 453 OFFCURVE",
"82 442 OFFCURVE",
"82 428 CURVE SMOOTH",
"82 416 OFFCURVE",
"91 406 OFFCURVE",
"104 406 CURVE SMOOTH"
);
},
{
closed = 1;
nodes = (
"344 199 OFFCURVE",
"354 209 OFFCURVE",
"354 223 CURVE SMOOTH",
"354 236 OFFCURVE",
"346 245 OFFCURVE",
"332 245 CURVE SMOOTH",
"318 245 OFFCURVE",
"307 235 OFFCURVE",
"307 221 CURVE SMOOTH",
"307 209 OFFCURVE",
"316 199 OFFCURVE",
"329 199 CURVE SMOOTH"
);
},
{
closed = 1;
nodes = (
"60 -8 OFFCURVE",
"70 2 OFFCURVE",
"70 16 CURVE SMOOTH",
"70 28 OFFCURVE",
"62 38 OFFCURVE",
"48 38 CURVE SMOOTH",
"34 38 OFFCURVE",
"23 28 OFFCURVE",
"23 13 CURVE SMOOTH",
"23 1 OFFCURVE",
"32 -8 OFFCURVE",
"45 -8 CURVE SMOOTH"
);
}
);
width = 417;
}
);
note = uni10FB;
unicode = 10FB;
},
{
glyphname = uni097D;
lastChange = "2020-10-21 08:49:18 +0000";
layers = (
{
hints = (
{
horizontal = 1;
place = "{0, 21}";
target = up;
type = BottomGhost;
},
{
horizontal = 1;
place = "{576, 140}";
type = Stem;
},
{
place = "{330, 185}";
type = Stem;
}
);
layerId = "FE8AE7D2-7E60-458F-B844-21CAF2BBDFF5";
paths = (
{
closed = 1;
nodes = (
"67 0 LINE",
"235 0 LINE",
"252 124 LINE SMOOTH",
"276 297 OFFCURVE",
"515 316 OFFCURVE",
"515 529 CURVE SMOOTH",
"515 653 OFFCURVE",
"437 716 OFFCURVE",
"282 716 CURVE SMOOTH",
"227 716 OFFCURVE",
"160 708 OFFCURVE",
"105 694 CURVE",
"99 555 LINE",
"148 567 OFFCURVE",
"196 576 OFFCURVE",
"246 576 CURVE SMOOTH",
"302 576 OFFCURVE",
"330 554 OFFCURVE",
"330 513 CURVE SMOOTH",
"330 383 OFFCURVE",
"119 382 OFFCURVE",
"85 131 CURVE SMOOTH"
);
}
);
width = 527;
},
{
hints = (
{
horizontal = 1;
place = "{0, 21}";
target = up;
type = BottomGhost;
},
{
horizontal = 1;
place = "{657, 21}";
type = Stem;
},
{
place = "{426, 23}";
type = Stem;
}
);
layerId = "E8D61EB5-BB7B-4E1E-8596-56C59CE9CB81";
paths = (
{
closed = 1;
nodes = (
"173 0 LINE",
"195 0 LINE",
"219 164 LINE SMOOTH",
"246 348 OFFCURVE",
"449 348 OFFCURVE",
"449 526 CURVE SMOOTH",
"449 620 OFFCURVE",
"393 678 OFFCURVE",
"259 678 CURVE SMOOTH",
"210 678 OFFCURVE",
"148 670 OFFCURVE",
"112 663 CURVE",
"113 642 LINE",
"150 650 OFFCURVE",
"210 657 OFFCURVE",
"258 657 CURVE SMOOTH",
"378 657 OFFCURVE",
"426 608 OFFCURVE",
"426 526 CURVE SMOOTH",
"426 361 OFFCURVE",
"225 362 OFFCURVE",
"197 166 CURVE SMOOTH"
);
}
);
width = 493;
}
);
note = uni097D;
unicode = 097D;
},
{
glyphname = uni0964;
lastChange = "2020-10-21 08:49:18 +0000";
layers = (
{
hints = (
{
horizontal = 1;
place = "{756, -20}";
target = down;
type = TopGhost;
},
{
place = "{120, 299}";
type = Stem;
}
);
layerId = "FE8AE7D2-7E60-458F-B844-21CAF2BBDFF5";
paths = (
{
closed = 1;
nodes = (
"232 756 LINE",
"120 -44 LINE",
"307 -44 LINE",
"419 756 LINE"
);
}
);
width = 438;
},
{
hints = (
{
horizontal = 1;
place = "{-24, 747}";
type = Stem;
},
{
place = "{196, 126}";
type = Stem;
}
);
layerId = "E8D61EB5-BB7B-4E1E-8596-56C59CE9CB81";
paths = (
{
closed = 1;
nodes = (
"300 723 LINE",
"196 -24 LINE",
"218 -24 LINE",
"322 723 LINE"
);
}
);
width = 354;
}
);
note = uni0964;
unicode = 0964;
},
{
glyphname = uni0965;
lastChange = "2020-10-21 08:49:18 +0000";
layers = (
{
hints = (
{
horizontal = 1;
place = "{756, -20}";
target = down;
type = TopGhost;
},
{
place = "{120, 599}";
type = Stem;
}
);
layerId = "FE8AE7D2-7E60-458F-B844-21CAF2BBDFF5";
paths = (
{
closed = 1;
nodes = (
"232 756 LINE",
"120 -44 LINE",
"307 -44 LINE",
"419 756 LINE"
);
},
{
closed = 1;
nodes = (
"532 756 LINE",
"420 -44 LINE",
"607 -44 LINE",
"719 756 LINE"
);
}
);
width = 738;
},
{
hints = (
{
horizontal = 1;
place = "{-24, 747}";
type = Stem;
},
{
place = "{196, 406}";
type = Stem;
}
);
layerId = "E8D61EB5-BB7B-4E1E-8596-56C59CE9CB81";
paths = (
{
closed = 1;
nodes = (
"300 723 LINE",
"196 -24 LINE",
"218 -24 LINE",
"322 723 LINE"
);
},
{
closed = 1;
nodes = (
"580 723 LINE",
"476 -24 LINE",
"498 -24 LINE",
"602 723 LINE"
);
}
);
width = 634;
}
);
note = uni0965;
unicode = 0965;
},
{
glyphname = uni0970;
lastChange = "2020-10-21 08:49:18 +0000";
layers = (
{
hints = (
{
horizontal = 1;
place = "{106, 123}";
type = Stem;
},
{
horizontal = 1;
place = "{359, 122}";
type = Stem;
},
{
place = "{34, 158}";
type = Stem;
},
{
place = "{290, 157}";
type = Stem;
}
);
layerId = "FE8AE7D2-7E60-458F-B844-21CAF2BBDFF5";
paths = (
{
closed = 1;
nodes = (
"361 106 OFFCURVE",
"447 186 OFFCURVE",
"447 315 CURVE SMOOTH",
"447 413 OFFCURVE",
"387 481 OFFCURVE",
"257 481 CURVE SMOOTH",
"118 481 OFFCURVE",
"34 399 OFFCURVE",
"34 268 CURVE SMOOTH",
"34 172 OFFCURVE",
"96 106 OFFCURVE",
"226 106 CURVE SMOOTH"
);
},
{
closed = 1;
nodes = (
"203 229 OFFCURVE",
"192 242 OFFCURVE",
"192 273 CURVE SMOOTH",
"192 315 OFFCURVE",
"206 359 OFFCURVE",
"250 359 CURVE SMOOTH",
"278 359 OFFCURVE",
"290 346 OFFCURVE",
"290 316 CURVE SMOOTH",
"290 275 OFFCURVE",
"276 229 OFFCURVE",
"232 229 CURVE SMOOTH"
);
}
);
width = 475;
},
{
hints = (
{
horizontal = 1;
place = "{145, 20}";
type = Stem;
},
{
horizontal = 1;
place = "{422, 20}";
type = Stem;
},
{
place = "{79, 22}";
type = Stem;
},
{
place = "{377, 22}";
type = Stem;
}
);
layerId = "E8D61EB5-BB7B-4E1E-8596-56C59CE9CB81";
paths = (
{
closed = 1;
nodes = (
"328 145 OFFCURVE",
"399 209 OFFCURVE",
"399 308 CURVE SMOOTH",
"399 394 OFFCURVE",
"340 442 OFFCURVE",
"251 442 CURVE SMOOTH",
"151 442 OFFCURVE",
"79 378 OFFCURVE",
"79 279 CURVE SMOOTH",
"79 193 OFFCURVE",
"139 145 OFFCURVE",
"228 145 CURVE SMOOTH"
);
},
{
closed = 1;
nodes = (
"150 165 OFFCURVE",
"101 205 OFFCURVE",
"101 279 CURVE SMOOTH",
"101 365 OFFCURVE",
"162 422 OFFCURVE",
"251 422 CURVE SMOOTH",
"328 422 OFFCURVE",
"377 382 OFFCURVE",
"377 308 CURVE SMOOTH",
"377 222 OFFCURVE",
"317 165 OFFCURVE",
"228 165 CURVE SMOOTH"
);
}
);
width = 472;
}
);
note = uni0970;
unicode = 0970;
},
{
glyphname = uni06D4;
lastChange = "2020-10-21 08:49:18 +0000";
layers = (
{
hints = (
{
horizontal = 1;
place = "{0, 196}";
type = Stem;
},
{
place = "{37, 294}";
type = Stem;
}
);
layerId = "FE8AE7D2-7E60-458F-B844-21CAF2BBDFF5";
paths = (
{
closed = 1;
nodes = (
"75 0 LINE",
"331 0 LINE",
"331 196 LINE",
"37 196 LINE"
);
}
);
width = 376;
},
{
hints = (
{
horizontal = 1;
place = "{0, 22}";
type = Stem;
},
{
place = "{84, 208}";
type = Stem;
}
);
layerId = "E8D61EB5-BB7B-4E1E-8596-56C59CE9CB81";
paths = (
{
closed = 1;
nodes = (
"92 0 LINE",
"292 0 LINE",
"292 22 LINE",
"84 22 LINE"
);
}
);
width = 376;
}
);
note = uni06D4;
unicode = 06D4;
},
{
glyphname = uni060C;
lastChange = "2020-10-21 08:49:18 +0000";
layers = (
{
hints = (
{
horizontal = 1;
place = "{-20, 21}";
target = up;
type = BottomGhost;
},
{
place = "{40, 180}";
type = Stem;
}
);
layerId = "FE8AE7D2-7E60-458F-B844-21CAF2BBDFF5";
paths = (
{
closed = 1;
nodes = (
"220 -20 LINE",
"221 97 OFFCURVE",
"253 237 OFFCURVE",
"291 326 CURVE",
"182 347 LINE",
"102 267 OFFCURVE",
"41 127 OFFCURVE",
"40 38 CURVE"
);
}
);
width = 331;
},
{
hints = (
{
horizontal = 1;
place = "{-8, 21}";
target = up;
type = BottomGhost;
},
{
place = "{42, 23}";
type = Stem;
},
{
horizontal = 1;
place = "{-2, 21}";
target = up;
type = BottomGhost;
}
);
layerId = "E8D61EB5-BB7B-4E1E-8596-56C59CE9CB81";
paths = (
{
closed = 1;
nodes = (
"65 -8 LINE",
"64 87 OFFCURVE",
"101 208 OFFCURVE",
"149 288 CURVE",
"135 292 LINE",
"81 212 OFFCURVE",
"43 87 OFFCURVE",
"42 -2 CURVE"
);
}
);
width = 194;
}
);
note = uni060C;
unicode = 060C;
},
{
glyphname = uni061B;
lastChange = "2020-10-21 08:49:18 +0000";
layers = (
{
hints = (
{
horizontal = 1;
place = "{577, -20}";
target = down;
type = TopGhost;
},
{
place = "{69, 180}";
type = Stem;
}
);
layerId = "FE8AE7D2-7E60-458F-B844-21CAF2BBDFF5";
paths = (
{
closed = 1;
nodes = (
"249 210 LINE",
"250 327 OFFCURVE",
"282 467 OFFCURVE",
"320 556 CURVE",
"211 577 LINE",
"131 497 OFFCURVE",
"70 357 OFFCURVE",
"69 268 CURVE"
);
},
{
closed = 1;
nodes = (
"301 51 LINE",
"256 116 OFFCURVE",
"226 147 OFFCURVE",
"146 196 CURVE",
"30 61 LINE",
"100 10 OFFCURVE",
"127 -14 OFFCURVE",
"178 -81 CURVE"
);
}
);
width = 331;
},
{
hints = (
{
horizontal = 1;
place = "{559, -20}";
target = down;
type = TopGhost;
},
{
place = "{78, 23}";
type = Stem;
}
);
layerId = "E8D61EB5-BB7B-4E1E-8596-56C59CE9CB81";
paths = (
{
closed = 1;
nodes = (
"101 259 LINE",
"100 355 OFFCURVE",
"137 475 OFFCURVE",
"185 556 CURVE",
"171 559 LINE",
"117 480 OFFCURVE",
"79 354 OFFCURVE",
"78 265 CURVE"
);
},
{
closed = 1;
nodes = (
"120 28 LINE",
"112 38 OFFCURVE",
"106 44 OFFCURVE",
"94 51 CURVE",
"75 29 LINE",
"86 21 OFFCURVE",
"91 17 OFFCURVE",
"99 6 CURVE"
);
}
);
width = 194;
}
);
note = uni061B;
unicode = 061B;
},
{
glyphname = uni061F;
lastChange = "2020-10-21 08:49:18 +0000";
layers = (
{
hints = (
{
horizontal = 1;
place = "{562, 154}";
type = Stem;
},
{
place = "{186, 186}";
type = Stem;
},
{
place = "{7, 207}";
type = Stem;
}
);
layerId = "FE8AE7D2-7E60-458F-B844-21CAF2BBDFF5";
paths = (
{
closed = 1;
nodes = (
"85 716 OFFCURVE",
"7 636 OFFCURVE",
"7 542 CURVE SMOOTH",
"7 374 OFFCURVE",
"186 395 OFFCURVE",
"186 270 CURVE",
"372 230 LINE",
"372 474 OFFCURVE",
"214 451 OFFCURVE",
"214 523 CURVE SMOOTH",
"214 548 OFFCURVE",
"238 562 OFFCURVE",
"271 562 CURVE SMOOTH",
"306 562 OFFCURVE",
"346 543 OFFCURVE",
"389 508 CURVE",
"482 644 LINE",
"425 684 OFFCURVE",
"358 716 OFFCURVE",
"243 716 CURVE SMOOTH"
);
},
{
closed = 1;
nodes = (
"401 51 LINE",
"356 116 OFFCURVE",
"326 147 OFFCURVE",
"246 196 CURVE",
"130 61 LINE",
"200 10 OFFCURVE",
"227 -14 OFFCURVE",
"278 -81 CURVE"
);
}
);
width = 500;
},
{
hints = (
{
horizontal = 1;
place = "{671, 20}";
type = Stem;
},
{
place = "{60, 23}";
type = Stem;
},
{
place = "{244, 21}";
type = Stem;
}
);
layerId = "E8D61EB5-BB7B-4E1E-8596-56C59CE9CB81";
paths = (
{
closed = 1;
nodes = (
"124 691 OFFCURVE",
"60 631 OFFCURVE",
"60 555 CURVE SMOOTH",
"60 378 OFFCURVE",
"244 466 OFFCURVE",
"244 203 CURVE",
"265 195 LINE",
"265 475 OFFCURVE",
"83 387 OFFCURVE",
"83 555 CURVE SMOOTH",
"83 624 OFFCURVE",
"139 671 OFFCURVE",
"217 671 CURVE SMOOTH",
"286 671 OFFCURVE",
"329 648 OFFCURVE",
"378 612 CURVE",
"389 631 LINE",
"339 668 OFFCURVE",
"289 691 OFFCURVE",
"218 691 CURVE SMOOTH"
);
},
{
closed = 1;
nodes = (
"275 23 LINE",
"268 34 OFFCURVE",
"262 39 OFFCURVE",
"249 46 CURVE",
"230 24 LINE",
"242 16 OFFCURVE",
"246 12 OFFCURVE",
"255 2 CURVE"
);
}
);
width = 450;
}
);
note = uni061F;
unicode = 061F;
},
{
glyphname = uni066D;
lastChange = "2020-10-21 08:49:18 +0000";
layers = (
{
hints = (
{
horizontal = 1;
place = "{-26, 703}";
type = Stem;
},
{
place = "{38, 742}";
type = Stem;
}
);
layerId = "FE8AE7D2-7E60-458F-B844-21CAF2BBDFF5";
paths = (
{
closed = 1;
nodes = (
"780 382 LINE",
"758 449 LINE",
"478 394 LINE",
"444 677 LINE",
"374 677 LINE",
"340 394 LINE",
"60 449 LINE",
"38 382 LINE",
"296 263 LINE",
"158 15 LINE",
"215 -26 LINE",
"409 183 LINE",
"603 -26 LINE",
"660 15 LINE",
"522 263 LINE"
);
}
);
width = 818;
},
{
hints = (
{
horizontal = 1;
place = "{3, 655}";
type = Stem;
},
{
place = "{399.5, 19}";
type = Stem;
}
);
layerId = "E8D61EB5-BB7B-4E1E-8596-56C59CE9CB81";
paths = (
{
closed = 1;
nodes = (
"751 403 LINE",
"748 414 LINE",
"422 317 LINE",
"415 658 LINE",
"403 658 LINE",
"396 317 LINE",
"70 414 LINE",
"67 403 LINE",
"388 292 LINE",
"195 11 LINE",
"205 3 LINE",
"409 277 LINE",
"613 3 LINE",
"623 11 LINE",
"430 292 LINE"
);
}
);
width = 818;
}
);
note = uni066D;
unicode = 066D;
},
{
glyphname = anoteleia;
lastChange = "2020-10-21 08:49:18 +0000";
layers = (
{
hints = (
{
horizontal = 1;
place = "{203, 206}";
type = Stem;
},
{
place = "{23, 204}";
type = Stem;
}
);
layerId = "FE8AE7D2-7E60-458F-B844-21CAF2BBDFF5";
paths = (
{
closed = 1;
nodes = (
"177 203 OFFCURVE",
"227 256 OFFCURVE",
"227 318 CURVE SMOOTH",
"227 372 OFFCURVE",
"189 409 OFFCURVE",
"138 409 CURVE SMOOTH",
"73 409 OFFCURVE",
"23 356 OFFCURVE",
"23 296 CURVE SMOOTH",
"23 241 OFFCURVE",
"60 203 OFFCURVE",
"113 203 CURVE SMOOTH"
);
}
);
width = 240;
},
{
hints = (
{
horizontal = 1;
place = "{303, 47}";
type = Stem;
},
{
place = "{67, 47}";
type = Stem;
}
);
layerId = "E8D61EB5-BB7B-4E1E-8596-56C59CE9CB81";
paths = (
{
closed = 1;
nodes = (
"104 303 OFFCURVE",
"114 314 OFFCURVE",
"114 328 CURVE SMOOTH",
"114 340 OFFCURVE",
"106 350 OFFCURVE",
"92 350 CURVE SMOOTH",
"78 350 OFFCURVE",
"67 339 OFFCURVE",
"67 325 CURVE SMOOTH",
"67 313 OFFCURVE",
"76 303 OFFCURVE",
"89 303 CURVE SMOOTH"
);
}
);
width = 163;
}
);
note = anoteleia;
unicode = 0387;
},
{
glyphname = uni037E;
lastChange = "2020-10-21 08:49:18 +0000";
layers = (
{
hints = (
{
horizontal = 1;
place = "{0, 21}";
target = up;
type = BottomGhost;
},
{
horizontal = 1;
place = "{312, 206}";
type = Stem;
},
{
place = "{40, 204}";
type = Stem;
},
{
place = "{-5, 203}";
type = Stem;
}
);
layerId = "FE8AE7D2-7E60-458F-B844-21CAF2BBDFF5";
paths = (
{
closed = 1;
nodes = (
"194 312 OFFCURVE",
"244 365 OFFCURVE",
"244 427 CURVE SMOOTH",
"244 481 OFFCURVE",
"206 518 OFFCURVE",
"155 518 CURVE SMOOTH",
"90 518 OFFCURVE",
"40 465 OFFCURVE",
"40 405 CURVE SMOOTH",
"40 350 OFFCURVE",
"77 312 OFFCURVE",
"130 312 CURVE SMOOTH"
);
},
{
closed = 1;
nodes = (
"45 186 OFFCURVE",
"-5 134 OFFCURVE",
"-5 69 CURVE SMOOTH",
"-5 40 OFFCURVE",
"7 16 OFFCURVE",
"30 0 CURVE",
"-41 -184 LINE",
"60 -184 LINE",
"141 -45 LINE SMOOTH",
"181 27 OFFCURVE",
"198 57 OFFCURVE",
"198 97 CURVE SMOOTH",
"198 149 OFFCURVE",
"161 186 OFFCURVE",
"109 186 CURVE SMOOTH"
);
}
);
width = 242;
},
{
hints = (
{
horizontal = 1;
place = "{-6, 21}";
target = up;
type = BottomGhost;
},
{
horizontal = 1;
place = "{406, 47}";
type = Stem;
},
{
place = "{82, 47}";
type = Stem;
},
{
place = "{22, 47}";
type = Stem;
}
);
layerId = "E8D61EB5-BB7B-4E1E-8596-56C59CE9CB81";
paths = (
{
closed = 1;
nodes = (
"119 406 OFFCURVE",
"129 417 OFFCURVE",
"129 431 CURVE SMOOTH",
"129 443 OFFCURVE",
"121 453 OFFCURVE",
"107 453 CURVE SMOOTH",
"93 453 OFFCURVE",
"82 442 OFFCURVE",
"82 428 CURVE SMOOTH",
"82 416 OFFCURVE",
"91 406 OFFCURVE",
"104 406 CURVE SMOOTH"
);
},
{
closed = 1;
nodes = (
"33 38 OFFCURVE",
"22 27 OFFCURVE",
"22 14 CURVE SMOOTH",
"22 4 OFFCURVE",
"26 -3 OFFCURVE",
"34 -6 CURVE",
"-22 -130 LINE",
"-4 -130 LINE",
"56 -18 LINE SMOOTH",
"64 -3 OFFCURVE",
"69 6 OFFCURVE",
"69 16 CURVE SMOOTH",
"69 28 OFFCURVE",
"61 38 OFFCURVE",
"47 38 CURVE SMOOTH"
);
}
);
width = 163;
}
);
leftKerningGroup = colon;
note = uni037E;
unicode = 037E;
},
{
glyphname = uni200C;
lastChange = "2020-10-21 08:49:02 +0000";
layers = (
{
hints = (
{
horizontal = 1;
place = "{750, -20}";
target = down;
type = TopGhost;
},
{
place = "{-73, 143}";
type = Stem;
}
);
layerId = "FE8AE7D2-7E60-458F-B844-21CAF2BBDFF5";
paths = (
{
closed = 1;
nodes = (
"70 750 LINE",
"54 750 LINE",
"-73 -150 LINE",
"-57 -150 LINE"
);
}
);
width = 0;
},
{
hints = (
{
horizontal = 1;
place = "{-150, 900}";
type = Stem;
},
{
place = "{-66, 143}";
type = Stem;
}
);
layerId = "E8D61EB5-BB7B-4E1E-8596-56C59CE9CB81";
paths = (
{
closed = 1;
nodes = (
"77 750 LINE",
"61 750 LINE",
"-66 -150 LINE",
"-50 -150 LINE"
);
}
);
width = 0;
}
);
note = uni200C;
unicode = 200C;
},
{
glyphname = uni200D;
lastChange = "2020-10-21 08:49:02 +0000";
layers = (
{
hints = (
{
horizontal = 1;
place = "{761, -20}";
target = down;
type = TopGhost;
},
{
place = "{-73, 206}";
type = Stem;
},
{
horizontal = 1;
place = "{750, -20}";
target = down;
type = TopGhost;
}
);
layerId = "FE8AE7D2-7E60-458F-B844-21CAF2BBDFF5";
paths = (
{
closed = 1;
nodes = (
"123 815 LINE",
"62 761 LINE",
"17 815 LINE",
"5 804 LINE",
"51 750 LINE",
"-13 693 LINE",
"-4 682 LINE",
"51 731 LINE",
"-73 -150 LINE",
"-57 -150 LINE",
"67 731 LINE",
"108 682 LINE",
"121 693 LINE",
"73 750 LINE",
"133 804 LINE"
);
}
);
width = 0;
},
{
hints = (
{
horizontal = 1;
place = "{693, -20}";
target = down;
type = TopGhost;
},
{
place = "{-66, 207}";
type = Stem;
}
);
layerId = "E8D61EB5-BB7B-4E1E-8596-56C59CE9CB81";
paths = (
{
closed = 1;
nodes = (
"131 815 LINE",
"70 761 LINE",
"23 815 LINE",
"11 804 LINE",
"58 750 LINE",
"-7 693 LINE",
"3 682 LINE",
"58 731 LINE",
"-66 -150 LINE",
"-50 -150 LINE",
"74 731 LINE",
"117 682 LINE",
"129 693 LINE",
"80 750 LINE",
"141 804 LINE"
);
}
);
width = 0;
}
);
note = uni200D;
unicode = 200D;
},
{
glyphname = uni200E;
lastChange = "2020-10-21 08:49:02 +0000";
layers = (
{
hints = (
{
horizontal = 1;
place = "{742, 16}";
type = Stem;
},
{
place = "{-72, 261}";
type = Stem;
},
{
horizontal = 1;
place = "{750, -20}";
target = down;
type = TopGhost;
}
);
layerId = "FE8AE7D2-7E60-458F-B844-21CAF2BBDFF5";
paths = (
{
closed = 1;
nodes = (
"144 822 LINE",
"131 813 LINE",
"165 758 LINE",
"56 758 LINE",
"-72 -150 LINE",
"-56 -150 LINE",
"70 742 LINE",
"163 742 LINE",
"113 687 LINE",
"125 678 LINE",
"189 750 LINE"
);
}
);
width = 0;
},
{
hints = (
{
horizontal = 1;
place = "{687, -20}";
target = down;
type = TopGhost;
},
{
horizontal = 1;
place = "{742, 16}";
type = Stem;
},
{
place = "{-66, 263}";
type = Stem;
}
);
layerId = "E8D61EB5-BB7B-4E1E-8596-56C59CE9CB81";
paths = (
{
closed = 1;
nodes = (
"151 822 LINE",
"138 813 LINE",
"173 758 LINE",
"62 758 LINE",
"-66 -150 LINE",
"-50 -150 LINE",
"76 742 LINE",
"171 742 LINE",
"120 687 LINE",
"133 678 LINE",
"197 750 LINE"
);
}
);
width = 0;
}
);
note = uni200E;
unicode = 200E;
},
{
glyphname = uni200F;
lastChange = "2020-10-21 08:49:02 +0000";
layers = (
{
hints = (
{
horizontal = 1;
place = "{750, -20}";
target = down;
type = TopGhost;
},
{
place = "{-74, 144}";
type = Stem;
},
{
horizontal = 1;
place = "{742, 16}";
type = Stem;
}
);
layerId = "FE8AE7D2-7E60-458F-B844-21CAF2BBDFF5";
paths = (
{
closed = 1;
nodes = (
"-2 822 LINE",
"-65 750 LINE",
"-21 678 LINE",
"-7 687 LINE",
"-41 742 LINE",
"52 742 LINE",
"-74 -150 LINE",
"-58 -150 LINE",
"70 758 LINE",
"-39 758 LINE",
"10 813 LINE"
);
}
);
width = 0;
},
{
hints = (
{
horizontal = 1;
place = "{687, -20}";
target = down;
type = TopGhost;
},
{
horizontal = 1;
place = "{742, 16}";
type = Stem;
},
{
place = "{-66, 144}";
type = Stem;
}
);
layerId = "E8D61EB5-BB7B-4E1E-8596-56C59CE9CB81";
paths = (
{
closed = 1;
nodes = (
"5 822 LINE",
"-59 750 LINE",
"-13 678 LINE",
"0 687 LINE",
"-35 742 LINE",
"60 742 LINE",
"-66 -150 LINE",
"-50 -150 LINE",
"78 758 LINE",
"-33 758 LINE",
"18 813 LINE"
);
}
);
width = 0;
}
);
note = uni200F;
unicode = 200F;
},
{
glyphname = .notdef;
lastChange = "2020-10-21 08:49:02 +0000";
layers = (
{
hints = (
{
horizontal = 1;
place = "{-350, 52}";
type = Stem;
},
{
horizontal = 1;
place = "{403, 48}";
type = Stem;
},
{
horizontal = 1;
place = "{998, 52}";
type = Stem;
},
{
place = "{278.5, 47}";
type = Stem;
},
{
place = "{384, 53}";
type = Stem;
},
{
horizontal = 1;
place = "{48, 72}";
type = Stem;
},
{
place = "{251, 69}";
type = Stem;
}
);
layerId = "FE8AE7D2-7E60-458F-B844-21CAF2BBDFF5";
paths = (
{
closed = 1;
nodes = (
"643 1050 LINE",
"231 1050 LINE",
"34 -350 LINE",
"446 -350 LINE"
);
},
{
closed = 1;
nodes = (
"584 998 LINE",
"401 -298 LINE",
"96 -298 LINE",
"279 998 LINE"
);
},
{
closed = 1;
nodes = (
"305 451 OFFCURVE",
"252 440 OFFCURVE",
"248 415 CURVE SMOOTH",
"247 400 OFFCURVE",
"255 389 OFFCURVE",
"271 389 CURVE SMOOTH",
"273 389 OFFCURVE",
"277 389 OFFCURVE",
"283 391 CURVE SMOOTH",
"301 399 OFFCURVE",
"315 403 OFFCURVE",
"336 403 CURVE SMOOTH",
"384 403 OFFCURVE",
"390 374 OFFCURVE",
"384 337 CURVE SMOOTH",
"377 282 OFFCURVE",
"354 261 OFFCURVE",
"284 257 CURVE",
"273 174 LINE SMOOTH",
"270 159 OFFCURVE",
"283 149 OFFCURVE",
"296 149 CURVE SMOOTH",
"307 149 OFFCURVE",
"320 157 OFFCURVE",
"322 172 CURVE SMOOTH",
"329 218 LINE",
"397 228 OFFCURVE",
"428 265 OFFCURVE",
"437 333 CURVE SMOOTH",
"446 395 OFFCURVE",
"427 451 OFFCURVE",
"342 451 CURVE SMOOTH"
);
},
{
closed = 1;
nodes = (
"270 120 OFFCURVE",
"253 106 OFFCURVE",
"251 88 CURVE SMOOTH",
"248 65 OFFCURVE",
"261 48 OFFCURVE",
"281 48 CURVE SMOOTH",
"300 48 OFFCURVE",
"317 63 OFFCURVE",
"320 82 CURVE SMOOTH",
"322 104 OFFCURVE",
"309 120 OFFCURVE",
"288 120 CURVE SMOOTH"
);
}
);
width = 654;
},
{
hints = (
{
horizontal = 1;
place = "{-350, 38}";
type = Stem;
},
{
horizontal = 1;
place = "{149, 108}";
type = Stem;
},
{
horizontal = 1;
place = "{403, 48}";
type = Stem;
},
{
horizontal = 1;
place = "{1012, 38}";
type = Stem;
},
{
place = "{283.5, 48}";
type = Stem;
},
{
place = "{392, 55.02}";
type = Stem;
},
{
horizontal = 1;
place = "{48, 72}";
type = Stem;
},
{
place = "{256, 69}";
type = Stem;
}
);
layerId = "E8D61EB5-BB7B-4E1E-8596-56C59CE9CB81";
paths = (
{
closed = 1;
nodes = (
"654 1050 LINE",
"234 1050 LINE",
"36 -350 LINE",
"456 -350 LINE"
);
},
{
closed = 1;
nodes = (
"610 1012 LINE",
"422 -312 LINE",
"81 -312 LINE",
"269 1012 LINE"
);
},
{
closed = 1;
nodes = (
"311 451 OFFCURVE",
"256 440 OFFCURVE",
"253 413 CURVE SMOOTH",
"251 400 OFFCURVE",
"259 389 OFFCURVE",
"275 389 CURVE SMOOTH",
"278 389 OFFCURVE",
"282 390 OFFCURVE",
"288 391 CURVE",
"306 400 OFFCURVE",
"320 403 OFFCURVE",
"341 403 CURVE SMOOTH",
"391 403 OFFCURVE",
"397 374 OFFCURVE",
"392 335 CURVE SMOOTH",
"384 282 OFFCURVE",
"361 261 OFFCURVE",
"289 257 CURVE",
"278 174 LINE SMOOTH",
"276 159 OFFCURVE",
"287 149 OFFCURVE",
"301 149 CURVE SMOOTH",
"312 149 OFFCURVE",
"326 157 OFFCURVE",
"328 172 CURVE SMOOTH",
"335 218 LINE",
"404 228 OFFCURVE",
"436 265 OFFCURVE",
"445 335 CURVE SMOOTH",
"454 395 OFFCURVE",
"436 451 OFFCURVE",
"350 451 CURVE SMOOTH"
);
},
{
closed = 1;
nodes = (
"274 120 OFFCURVE",
"258 106 OFFCURVE",
"256 86 CURVE SMOOTH",
"253 65 OFFCURVE",
"266 48 OFFCURVE",
"287 48 CURVE SMOOTH",
"306 48 OFFCURVE",
"322 63 OFFCURVE",
"325 84 CURVE SMOOTH",
"328 104 OFFCURVE",
"314 120 OFFCURVE",
"294 120 CURVE SMOOTH"
);
}
);
width = 666;
}
);
note = .notdef;
},
{
glyphname = dotmath;
lastChange = "2020-10-21 08:52:30 +0000";
layers = (
{
hints = (
{
horizontal = 1;
place = "{203, 206}";
type = Stem;
},
{
place = "{23, 204}";
type = Stem;
}
);
layerId = "FE8AE7D2-7E60-458F-B844-21CAF2BBDFF5";
paths = (
{
closed = 1;
nodes = (
"177 203 OFFCURVE",
"227 256 OFFCURVE",
"227 318 CURVE SMOOTH",
"227 372 OFFCURVE",
"189 409 OFFCURVE",
"138 409 CURVE SMOOTH",
"73 409 OFFCURVE",
"23 356 OFFCURVE",
"23 296 CURVE SMOOTH",
"23 241 OFFCURVE",
"60 203 OFFCURVE",
"113 203 CURVE SMOOTH"
);
}
);
width = 240;
},
{
hints = (
{
horizontal = 1;
place = "{303, 47}";
type = Stem;
},
{
place = "{67, 47}";
type = Stem;
}
);
layerId = "E8D61EB5-BB7B-4E1E-8596-56C59CE9CB81";
paths = (
{
closed = 1;
nodes = (
"104 303 OFFCURVE",
"114 314 OFFCURVE",
"114 328 CURVE SMOOTH",
"114 340 OFFCURVE",
"106 350 OFFCURVE",
"92 350 CURVE SMOOTH",
"78 350 OFFCURVE",
"67 339 OFFCURVE",
"67 325 CURVE SMOOTH",
"67 313 OFFCURVE",
"76 303 OFFCURVE",
"89 303 CURVE SMOOTH"
);
}
);
width = 163;
}
);
leftKerningGroup = periodcentered;
note = dotmath;
rightKerningGroup = periodcentered;
unicode = 22C5;
},
